<svg width="10" height="11" viewBox="0 0 10 11" fill="none" xmlns="http://www.w3.org/2000/svg">
<path d="M9.55933 7.69393V3.82952C9.55915 3.6601 9.51443 3.49371 9.42964 3.34703C9.34486 3.20035 9.223 3.07855 9.07627 2.99384L5.69492 1.06164C5.54805 0.976845 5.38145 0.932205 5.21187 0.932205C5.04228 0.932205 4.87568 0.976845 4.72882 1.06164L1.34746 2.99384C1.20074 3.07855 1.07888 3.20035 0.994091 3.34703C0.909306 3.49371 0.864584 3.6601 0.86441 3.82952V7.69393C0.864584 7.86334 0.909306 8.02974 0.994091 8.17642C1.07888 8.32309 1.20074 8.44489 1.34746 8.5296L4.72882 10.4618C4.87568 10.5466 5.04228 10.5912 5.21187 10.5912C5.38145 10.5912 5.54805 10.5466 5.69492 10.4618L9.07627 8.5296C9.223 8.44489 9.34486 8.32309 9.42964 8.17642C9.51443 8.02974 9.55915 7.86334 9.55933 7.69393Z" stroke="white" stroke-width="0.6" stroke-linecap="round" stroke-linejoin="round"/>
<path d="M0.994835 3.32714L5.21187 5.76655L9.4289 3.32714" stroke="white" stroke-width="0.6" stroke-linecap="round" stroke-linejoin="round"/>
<path d="M5.21187 10.6309V5.76172" stroke="white" stroke-width="0.6" stroke-linecap="round" stroke-linejoin="round"/>
</svg>
