<?xml version="1.0" encoding="UTF-8"?><svg id="uuid-6183d4b7-f08f-431f-815e-7ad57a9dd38d" xmlns="http://www.w3.org/2000/svg" viewBox="0 0 50 50"><defs><style>.uuid-7c13bd58-d4f0-4487-9b1b-d36179d0f1c4{fill:#81d4fa;}</style></defs><g id="uuid-5ea8f4b6-0b27-44ca-902e-d29781b157d8"><path class="uuid-7c13bd58-d4f0-4487-9b1b-d36179d0f1c4" d="M46.74,.81c-.92-.52-1.98-.81-3.1-.81H6.35c-1.13,0-2.19,.29-3.1,.81C1.31,1.9,0,3.97,0,6.35V43.65c0,2.38,1.31,4.46,3.25,5.54,.91,.52,1.97,.81,3.1,.81H43.64c1.12,0,2.18-.29,3.1-.81,1.95-1.08,3.26-3.16,3.26-5.54V6.35c0-2.38-1.31-4.45-3.26-5.54Zm-10.46,42.16c-.91,1.13-2.08,1.99-3.4,2.51h-6.92c-1.2,0-2.4-.48-3.13-1.43v-.02l-5.05-4.86c-.38-.49-.4-1.16-.06-1.68l3.93-6.53v-12.21c0-.94,.65-1.82,1.59-1.96,.1-.02,.21-.02,.3-.02,1.05,0,1.89,.85,1.89,1.89v9.36l.87,.24,10.31,2.85c.53,.14,.91,.63,.91,1.18v7.74c0,.88-.3,1.74-.84,2.43l-.4,.51ZM30.33,9.64c.76,0,1.38,.62,1.38,1.38s-.62,1.38-1.38,1.38-1.38-.62-1.38-1.38,.62-1.38,1.38-1.38Zm0,13.69c.76,0,1.38,.62,1.38,1.38s-.62,1.38-1.38,1.38-1.38-.62-1.38-1.38,.62-1.38,1.38-1.38Zm-6.89-10.94c3.01,0,5.45,2.44,5.45,5.45,0,1.9-.98,3.58-2.45,4.55v-3.73c0-1.59-1.3-2.89-2.89-2.89h0c-.15,0-.31,.01-.46,.04-1.39,.21-2.43,1.48-2.43,2.95v3.77c-1.59-.95-2.66-2.69-2.66-4.68,0-3.01,2.44-5.45,5.45-5.45Zm-6.8-2.75c.76,0,1.38,.62,1.38,1.38s-.62,1.38-1.38,1.38-1.38-.62-1.38-1.38,.62-1.38,1.38-1.38Zm-1.38,15.07c0-.76,.62-1.38,1.38-1.38s1.38,.62,1.38,1.38-.62,1.38-1.38,1.38-1.38-.62-1.38-1.38Z"/></g></svg>