<svg width="14" height="10" viewBox="0 0 14 10" fill="none" xmlns="http://www.w3.org/2000/svg">
<path d="M6.48109 5.89369V4.33816C6.48102 4.26996 6.46302 4.20298 6.42889 4.14394C6.39476 4.0849 6.34571 4.03587 6.28665 4.00177L4.92556 3.22401C4.86644 3.18987 4.79938 3.17191 4.73112 3.17191C4.66285 3.17191 4.59579 3.18987 4.53667 3.22401L3.17558 4.00177C3.11652 4.03587 3.06747 4.0849 3.03334 4.14394C2.99921 4.20298 2.98121 4.26996 2.98114 4.33816V5.89369C2.98121 5.96188 2.99921 6.02886 3.03334 6.0879C3.06747 6.14695 3.11652 6.19597 3.17558 6.23007L4.53667 7.00784C4.59579 7.04197 4.66285 7.05994 4.73112 7.05994C4.79938 7.05994 4.86644 7.04197 4.92556 7.00784L6.28665 6.23007C6.34571 6.19597 6.39476 6.14695 6.42889 6.0879C6.46302 6.02886 6.48102 5.96188 6.48109 5.89369Z" stroke="#9CC89E" stroke-width="0.236943" stroke-linecap="round" stroke-linejoin="round"/>
<path d="M3.03364 4.13589L4.73112 5.11782L6.42859 4.13589" stroke="#9CC89E" stroke-width="0.236943" stroke-linecap="round" stroke-linejoin="round"/>
<path d="M4.73111 7.07591V5.11594" stroke="#9CC89E" stroke-width="0.236943" stroke-linecap="round" stroke-linejoin="round"/>
<circle cx="4.59125" cy="5.18455" r="4.23036" stroke="#9CC89E" stroke-width="0.394904"/>
<path d="M13.8456 1.5618C13.8456 1.45275 13.7572 1.36435 13.6481 1.36435H11.8711C11.762 1.36435 11.6736 1.45275 11.6736 1.5618C11.6736 1.67085 11.762 1.75925 11.8711 1.75925H13.4507V3.33887C13.4507 3.44792 13.5391 3.53632 13.6481 3.53632C13.7572 3.53632 13.8456 3.44792 13.8456 3.33887V1.5618ZM8.75615 6.73302L13.7878 1.70142L13.5085 1.42218L8.47692 6.45378L8.75615 6.73302Z" fill="#9CC89E"/>
</svg>
