<svg width="14" height="10" viewBox="0 0 14 10" fill="none" xmlns="http://www.w3.org/2000/svg">
<path d="M6.48109 5.3184V3.76287C6.48102 3.69467 6.46302 3.6277 6.42889 3.56865C6.39476 3.50961 6.34571 3.46058 6.28665 3.42649L4.92556 2.64872C4.86644 2.61459 4.79938 2.59662 4.73112 2.59662C4.66285 2.59662 4.59579 2.61459 4.53667 2.64872L3.17558 3.42649C3.11652 3.46058 3.06747 3.50961 3.03334 3.56865C2.99921 3.6277 2.98121 3.69467 2.98114 3.76287V5.3184C2.98121 5.3866 2.99921 5.45358 3.03334 5.51262C3.06747 5.57166 3.11652 5.62069 3.17558 5.65479L4.53667 6.43255C4.59579 6.46668 4.66285 6.48465 4.73112 6.48465C4.79938 6.48465 4.86644 6.46668 4.92556 6.43255L6.28665 5.65479C6.34571 5.62069 6.39476 5.57166 6.42889 5.51262C6.46302 5.45358 6.48102 5.3866 6.48109 5.3184Z" stroke="#7AC5E7" stroke-width="0.236943" stroke-linecap="round" stroke-linejoin="round"/>
<path d="M3.03364 3.56067L4.73112 4.5426L6.42859 3.56067" stroke="#7AC5E7" stroke-width="0.236943" stroke-linecap="round" stroke-linejoin="round"/>
<path d="M4.73111 6.50062V4.54065" stroke="#7AC5E7" stroke-width="0.236943" stroke-linecap="round" stroke-linejoin="round"/>
<circle cx="4.59125" cy="4.60927" r="4.23036" stroke="#7AC5E7" stroke-width="0.394904"/>
<path d="M13.8456 0.986511C13.8456 0.877461 13.7572 0.789059 13.6481 0.789059H11.8711C11.762 0.789059 11.6736 0.877461 11.6736 0.986511C11.6736 1.09556 11.762 1.18396 11.8711 1.18396H13.4507V2.76358C13.4507 2.87263 13.5391 2.96103 13.6481 2.96103C13.7572 2.96103 13.8456 2.87263 13.8456 2.76358V0.986511ZM8.75615 6.15773L13.7878 1.12613L13.5085 0.846891L8.47692 5.87849L8.75615 6.15773Z" fill="#7AC5E7"/>
</svg>
