<svg width="14" height="10" viewBox="0 0 14 10" fill="none" xmlns="http://www.w3.org/2000/svg">
<path d="M6.48109 5.44969V3.89416C6.48102 3.82596 6.46302 3.75898 6.42889 3.69994C6.39476 3.6409 6.34571 3.59187 6.28665 3.55777L4.92556 2.78001C4.86644 2.74587 4.79938 2.72791 4.73112 2.72791C4.66286 2.72791 4.5958 2.74587 4.53668 2.78001L3.17559 3.55777C3.11653 3.59187 3.06747 3.6409 3.03335 3.69994C2.99922 3.75898 2.98122 3.82596 2.98115 3.89416V5.44969C2.98122 5.51788 2.99922 5.58486 3.03335 5.6439C3.06747 5.70295 3.11653 5.75197 3.17559 5.78607L4.53668 6.56384C4.5958 6.59797 4.66286 6.61594 4.73112 6.61594C4.79938 6.61594 4.86644 6.59797 4.92556 6.56384L6.28665 5.78607C6.34571 5.75197 6.39476 5.70295 6.42889 5.6439C6.46302 5.58486 6.48102 5.51788 6.48109 5.44969Z" stroke="#C18CCA" stroke-width="0.236943" stroke-linecap="round" stroke-linejoin="round"/>
<path d="M3.03365 3.69193L4.73112 4.67385L6.4286 3.69193" stroke="#C18CCA" stroke-width="0.236943" stroke-linecap="round" stroke-linejoin="round"/>
<path d="M4.73112 6.63188V4.67191" stroke="#C18CCA" stroke-width="0.236943" stroke-linecap="round" stroke-linejoin="round"/>
<circle cx="4.59125" cy="4.74055" r="4.23036" stroke="#C18CCA" stroke-width="0.394904"/>
<path d="M13.8456 1.11777C13.8456 1.00872 13.7572 0.920315 13.6481 0.920315H11.8711C11.762 0.920315 11.6736 1.00872 11.6736 1.11777C11.6736 1.22682 11.762 1.31522 11.8711 1.31522H13.4507V2.89484C13.4507 3.00389 13.5391 3.09229 13.6481 3.09229C13.7572 3.09229 13.8456 3.00389 13.8456 2.89484V1.11777ZM8.75615 6.28899L13.7878 1.25739L13.5085 0.978148L8.47692 6.00975L8.75615 6.28899Z" fill="#C18CCA"/>
</svg>
