<?xml version="1.0" encoding="UTF-8"?>
<svg id="Ebene_2" data-name="Ebene 2" xmlns="http://www.w3.org/2000/svg" viewBox="0 0 106.7 75.94">
  <g id="Ebene_1-2" data-name="Ebene 1">
    <path d="m94.06,0H12.64C5.66,0,0,5.66,0,12.64v50.65c0,6.99,5.66,12.65,12.64,12.65h48.72c-1.11-.56-2.26-1.03-3.45-1.4-.69-.22-1.35-.44-1.92-.81-.89-.6-1.49-1.6-1.64-2.73-.14-1.13.17-2.24.88-3.04.78-.9,1.89-1.38,3.05-1.38.47,0,.95.08,1.42.24l4.79,1.7s.1.03.18.05l1.45.37-11.16-21.77-1.68-3.29c-.77-1.51-.44-3.37.8-4.41.64-.54,1.34-.82,2.11-.82.45,0,.92.1,1.41.29.79.3,1.4.86,1.82,1.7.46.89.91,1.78,1.37,2.67.55,1.07,1.09,2.15,1.64,3.21l1.25,2.43,1.08,2.1,3.05,5.94.49-1.29c.54-1.37,1.48-2.11,2.88-2.25.14-.01.28-.02.41-.02,1.17,0,2.12.55,2.89,1.66l.62.9.46-1c.63-1.39,1.61-2.11,2.96-2.22.09-.01.18-.01.27-.01,1.19,0,2.2.57,3.05,1.75l.61.85.57-1.18c.07-.15.13-.29.21-.44.61-1.15,1.81-1.67,2.94-1.67.46,0,.91.08,1.31.25.81.34,1.41.91,1.82,1.73.23.45.46.9.69,1.35l1.58,3.06,2.79,5.46c1.24,2.49,1.72,5.2,1.42,8.06-.15,1.47-.55,2.77-1.21,3.94.4-.01.8-.04,1.18-.1.4-.05.79-.12,1.18-.21,5.6-1.3,9.77-6.32,9.77-12.32V12.64c0-6.98-5.66-12.64-12.64-12.64Zm-42.49,20.51c1.45-.18,2.78.86,2.95,2.32.17,1.46-.87,2.78-2.32,2.95-1.46.17-2.78-.87-2.96-2.32-.17-1.46.87-2.78,2.33-2.95Zm-13.37,23.05c-1.46.17-2.78-.87-2.95-2.33-.17-1.45.87-2.78,2.32-2.95,1.46-.17,2.78.87,2.95,2.33.18,1.45-.86,2.77-2.32,2.95Zm1.36-12.34c-1.15-.91-1.35-2.58-.44-3.73.9-1.15,2.57-1.35,3.73-.44,1.15.9,1.35,2.57.44,3.73-.91,1.15-2.58,1.35-3.73.44Zm6.4,22.02c-.9,1.15-2.57,1.35-3.73.45-1.15-.91-1.35-2.58-.44-3.74.91-1.15,2.58-1.35,3.73-.44,1.15.91,1.35,2.58.44,3.73Zm16.01-13.58c-.03.4-.08.8-.19,1.2l-.58-1.14c-.65-1.27-1.62-2.17-2.9-2.65-.69-.27-1.41-.42-2.11-.42-1.23,0-2.41.45-3.4,1.3-1.94,1.63-2.48,4.5-1.3,6.84l1.23,2.4c-.07-.01-.14-.02-.21-.03-.08-.01-.17-.03-.26-.05-.16-.02-.31-.06-.47-.1-.2-.05-.41-.11-.61-.17-.23-.08-.46-.17-.69-.27-.18-.08-.36-.17-.53-.26-.26-.14-.51-.29-.76-.45-.17-.11-.33-.24-.5-.37-.03-.02-.05-.04-.08-.06-.2-.16-.38-.32-.55-.49-.18-.17-.35-.34-.51-.53-.15-.19-.31-.37-.46-.57-.51-.72-.9-1.5-1.16-2.32-.04-.13-.08-.25-.1-.38-.12-.4-.19-.79-.23-1.2-.03-.3-.06-.62-.06-.91h0c0-.22.01-.42.03-.62.01-.22.04-.42.07-.62,0-.07.02-.14.04-.22.02-.17.07-.36.11-.54.05-.2.11-.39.17-.6.13-.38.28-.76.48-1.12.03-.08.07-.15.11-.22.22-.39.47-.78.76-1.15,1.07-1.35,2.48-2.28,4.01-2.76.11-.03.22-.07.33-.1.4-.1.81-.18,1.23-.23.3-.03.61-.05.91-.05.19,0,.4.01.59.03.22.01.43.03.63.07.08.01.16.02.23.03.21.04.4.08.6.14.18.04.36.09.54.15.38.13.76.29,1.12.47.08.04.15.08.22.12.4.21.78.47,1.14.75.04.03.07.06.1.09.18.13.35.28.51.44,0,0,.01.01.01.02.09.08.18.17.26.26.09.09.17.18.25.27.6.69,1.07,1.46,1.4,2.28.05.13.1.26.15.4.02.07.05.14.07.22.04.12.08.25.1.37.04.1.07.2.08.32.04.14.07.29.09.43.03.15.05.31.07.46.02.31.05.61.05.92,0,.21-.01.41-.03.62Zm3.78-11.56c-.9,1.16-2.57,1.35-3.73.45-1.15-.91-1.35-2.58-.44-3.73.91-1.16,2.58-1.36,3.73-.45s1.35,2.58.44,3.73Zm4.22,11.68c-1.46.17-2.78-.87-2.95-2.33-.17-1.46.87-2.78,2.32-2.95,1.46-.17,2.78.87,2.95,2.32.18,1.46-.86,2.78-2.32,2.96Z"/>
  </g>
</svg>