<?xml version="1.0" encoding="UTF-8"?>
<svg id="Ebene_2" data-name="Ebene 2" xmlns="http://www.w3.org/2000/svg" viewBox="0 0 106.7 75.94">
  <g id="Ebene_1-2" data-name="Ebene 1">
    <path d="m94.06,0H12.64C5.66,0,0,5.66,0,12.64v50.65c0,6.99,5.66,12.65,12.64,12.65h43.87c.05-.95.41-1.84,1.02-2.54.87-1,2.1-1.54,3.39-1.54.53,0,1.06.09,1.58.27l5.34,1.89c.06.02.12.04.21.06l1.61.41-12.44-24.27-1.87-3.66c-.86-1.69-.49-3.75.89-4.92.71-.6,1.5-.9,2.35-.9.51,0,1.03.1,1.57.31.89.34,1.56.96,2.04,1.9.51.99,1.01,1.98,1.53,2.98.61,1.19,1.21,2.39,1.82,3.57l1.39,2.72,1.21,2.34,3.39,6.61.56-1.43c.6-1.53,1.64-2.35,3.2-2.51.16-.02.31-.02.46-.02,1.3,0,2.36.61,3.23,1.85l.69,1,.51-1.11c.7-1.55,1.79-2.36,3.3-2.48.1-.01.19-.01.29-.01,1.33,0,2.46.63,3.41,1.94l.68.95.63-1.31c.08-.17.15-.33.24-.48.68-1.29,2.01-1.87,3.27-1.87.52,0,1.02.09,1.45.28.91.38,1.58,1.01,2.04,1.93.25.49.51,1,.77,1.5l1.76,3.42c1.03,2.02,2.08,4.04,3.1,6.08.62,1.23,1.07,2.51,1.34,3.83.44-.39.86-.82,1.24-1.27.4-.47.77-.98,1.1-1.52,1.2-1.93,1.89-4.21,1.89-6.65V12.64c0-6.98-5.66-12.64-12.64-12.64Zm-40.62,20.51c1.63-.2,3.1.96,3.29,2.59.2,1.62-.96,3.09-2.59,3.29-1.62.19-3.1-.97-3.29-2.59-.19-1.63.97-3.1,2.59-3.29Zm-14.9,25.69c-1.62.19-3.09-.97-3.29-2.59-.19-1.62.97-3.1,2.59-3.29,1.63-.19,3.1.97,3.29,2.59.2,1.62-.96,3.1-2.59,3.29Zm1.52-13.75c-1.29-1.01-1.51-2.87-.5-4.16,1.01-1.28,2.88-1.5,4.16-.49,1.29,1.01,1.51,2.87.5,4.16-1.02,1.28-2.88,1.5-4.16.49Zm7.14,24.54c-1.02,1.29-2.88,1.51-4.16.5-1.29-1.01-1.51-2.87-.5-4.16,1.01-1.28,2.88-1.51,4.16-.49,1.29,1.01,1.51,2.87.5,4.15Zm17.87-15.82c0,.23-.01.46-.03.68,0,.02,0,.04-.01.06l-.17-.34c-.8-1.59-2.03-2.72-3.64-3.32-.86-.34-1.75-.51-2.63-.51-1.56,0-3.04.56-4.29,1.62-2.42,2.04-3.11,5.65-1.63,8.56l1.1,2.14s-.06-.01-.09-.02c-.23-.04-.46-.11-.68-.18-.26-.09-.52-.19-.77-.3-.2-.09-.4-.19-.6-.3-.28-.14-.56-.31-.83-.49-.19-.13-.38-.27-.57-.41-.03-.02-.06-.05-.09-.07-.21-.18-.42-.36-.61-.55-.2-.18-.38-.38-.56-.59-.18-.2-.36-.41-.51-.64-.58-.8-1.01-1.67-1.3-2.59-.05-.13-.09-.27-.12-.41-.12-.44-.2-.89-.25-1.34-.03-.34-.06-.69-.06-1.02h0c0-.24.01-.46.03-.69.01-.24.04-.46.08-.69.01-.08.02-.16.04-.24.03-.19.08-.4.13-.6.04-.23.11-.44.18-.67.15-.43.32-.85.54-1.25.03-.09.07-.17.12-.25.24-.44.53-.87.84-1.27,1.2-1.51,2.77-2.55,4.47-3.08.13-.04.25-.08.38-.11.44-.12.9-.21,1.36-.26.34-.04.68-.06,1.02-.06.22,0,.44.01.66.03.24.02.47.04.7.08.09.01.18.02.26.04.22.04.44.09.67.15.2.05.39.11.59.17.42.14.85.32,1.25.53.09.04.17.08.25.13.44.23.87.52,1.27.84.04.03.08.06.11.09.2.15.39.32.56.5.01,0,.02.01.02.02.1.09.2.19.29.28.1.1.19.2.28.31.67.77,1.19,1.63,1.56,2.54.06.14.12.29.16.44.03.08.06.16.08.25.05.14.09.27.12.41.04.11.07.23.09.36.04.16.07.32.1.48.03.17.05.35.07.51.03.35.06.69.06,1.02h0Zm4.19-12.19c-1.02,1.28-2.88,1.5-4.16.49-1.29-1.01-1.51-2.87-.5-4.16,1.01-1.28,2.88-1.5,4.16-.49,1.29,1.01,1.51,2.87.5,4.16Zm4.69,13.01c-1.62.19-3.09-.97-3.29-2.59-.19-1.63.97-3.1,2.59-3.29,1.63-.2,3.1.96,3.29,2.59.2,1.62-.96,3.09-2.59,3.29Z"/>
  </g>
</svg>