<?xml version="1.0" encoding="UTF-8"?><svg id="uuid-746df6dd-d3f3-4278-bbe2-6e9add55f839" xmlns="http://www.w3.org/2000/svg" viewBox="0 0 50 50"><defs><style>.uuid-3928a701-d295-42b6-add4-30f855b9b0a6{fill:#ce93d8;}</style></defs><g id="uuid-2b03d6b7-2ae6-472e-8b01-e6eafd4c5a66"><g><path class="uuid-3928a701-d295-42b6-add4-30f855b9b0a6" d="M25,27.05c-2.17,0-3.94,1.76-3.94,3.94v.81c.47,.29,.99,.5,1.52,.67v-1.48c0-1.34,1.08-2.42,2.42-2.42s2.42,1.08,2.42,2.42v1.48c.53-.17,1.05-.4,1.52-.67v-.81c0-2.17-1.76-3.94-3.94-3.94Z"/><path class="uuid-3928a701-d295-42b6-add4-30f855b9b0a6" d="M43.65,0H6.35C2.85,0,0,2.85,0,6.35V43.65c0,3.51,2.85,6.35,6.35,6.35H43.65c3.51,0,6.35-2.84,6.35-6.35V6.35c0-3.5-2.84-6.35-6.35-6.35ZM9.43,9.27c.3-.3,.78-.3,1.08,0l4.18,4.17c.3,.29,.3,.78,0,1.06-.15,.15-.35,.23-.53,.23-.2,0-.4-.08-.55-.21l-4.18-4.17c-.29-.3-.29-.78,0-1.08Zm5.26,26.93l-4.18,4.18c-.15,.14-.35,.21-.53,.21-.2,0-.4-.08-.55-.21-.29-.3-.29-.79,0-1.08l4.18-4.18c.3-.3,.79-.3,1.08,0,.3,.29,.3,.78,0,1.08Zm10.31,4.76c-1.67,0-3.1-1.05-3.67-2.52,.67,.18,1.37,.32,2.07,.4,.43,.38,.99,.61,1.6,.61s1.16-.23,1.58-.61c.71-.08,1.41-.21,2.08-.4-.56,1.48-1.99,2.52-3.67,2.52Zm7.42-6.97l-.02,.02c-.14,.12-.27,.23-.43,.33-.93,.68-1.95,1.23-3.04,1.63-.5,.17-1,.3-1.52,.41-.78,.17-1.58,.26-2.42,.26s-1.64-.09-2.42-.24c-.52-.11-1.03-.26-1.52-.43-1.11-.4-2.13-.94-3.04-1.63-.15-.09-.3-.21-.44-.33l-.03-.03c-.64-.5-1.22-1.08-1.72-1.72l-.03-.03c-1.66-2.04-2.63-4.62-2.63-7.42,0-1.89,.44-3.67,1.25-5.25l.02-.02c.35-.78,.82-1.48,1.37-2.14,0-.02,.02-.02,.02-.03,.02-.03,.05-.06,.08-.09l.02-.02c.5-.61,1.05-1.14,1.66-1.64l.02-.02c2.04-1.63,4.61-2.62,7.42-2.62,1.28,0,2.49,.2,3.65,.58,.84,.27,1.64,.64,2.39,1.09,.49,.29,.94,.61,1.38,.96,.65,.53,1.23,1.11,1.76,1.76,1.64,2.04,2.63,4.61,2.63,7.42s-.99,5.4-2.63,7.44c-.53,.65-1.11,1.23-1.76,1.75Zm8.14,6.39c-.15,.14-.33,.21-.53,.21s-.4-.08-.55-.21l-4.18-4.18c-.29-.3-.29-.79,0-1.08,.3-.3,.79-.3,1.08,0l4.18,4.18c.3,.29,.3,.78,0,1.08Zm0-30.04l-1.57,1.57-1.78,1.76-.84,.84c-.15,.14-.33,.21-.53,.21s-.4-.08-.55-.23c-.14-.14-.21-.32-.21-.52s.08-.4,.23-.55l1.2-1.2,2.98-2.97c.29-.3,.78-.3,1.06,0,.3,.3,.3,.78,0,1.08Z"/></g></g></svg>