<?xml version="1.0" encoding="UTF-8"?>
<svg id="Layer_2" data-name="Layer 2" xmlns="http://www.w3.org/2000/svg" viewBox="0 0 50 50">
  <defs>
    <style>
      .cls-1 {
        fill: #e0e0e0;
      }
    </style>
  </defs>
  <g id="uuid-ec5094a8-3a2a-4161-bf20-e3875f75c591">
    <path class="cls-1" d="m43.65,0H6.35C2.84,0,0,2.84,0,6.35v37.3c0,3.51,2.84,6.35,6.35,6.35h37.3c3.51,0,6.35-2.84,6.35-6.35V6.35c0-3.51-2.84-6.35-6.35-6.35Zm1.33,44.21l-11.25-11.25c-2.33-2.33-5.43-3.61-8.72-3.61-1.93,0-3.78.45-5.46,1.28-1.16,4.71-6.61,14.22-6.61,14.22,0,0-1.43-2.49-2.98-5.56l-4.93,4.93c-.13.13-.24.27-.36.4-.22-.26-.41-.55-.58-.85.08-.08.15-.18.23-.26l5.17-5.17c-1.69-3.43-3.38-7.31-3.38-9.18,0-3.09,2.05-5.7,4.87-6.54-.16-.2-.15-.49.03-.67.2-.19.51-.19.71,0,.14.15.3.28.46.42.25-.03.51-.05.77-.05,1.71,0,3.27.63,4.47,1.68.09-.14.24-.24.41-.24h3c.28,0,.5.22.5.5s-.22.5-.5.5h-2.66c1,1.19,1.6,2.72,1.6,4.39,0,.08,0,.18-.01.27,1.67-.72,3.46-1.08,5.25-1.08,3.41,0,6.83,1.3,9.43,3.91l11.25,11.25c.08.08.15.17.23.26-.17.3-.36.59-.58.85-.12-.13-.23-.27-.36-.4Zm-2.74-36.59c.2.2.2.51,0,.71l-4.57,4.57,4.57,4.57h-.02c.2.2.2.51,0,.71-.1.1-.23.15-.35.15s-.26-.05-.35-.15l-4.57-4.57-4.57,4.57c-.1.1-.23.15-.35.15s-.26-.05-.35-.15c-.2-.2-.2-.51,0-.71l4.57-4.57-4.57-4.57c-.2-.2-.2-.51,0-.71.2-.2.51-.2.71,0l4.57,4.57,4.57-4.57c.2-.2.51-.2.71,0Zm-3.39,27.2c.54-.75.91-1.62,1.06-2.53.05-.27.31-.46.58-.41.27.05.46.3.41.58-.18,1.06-.61,2.08-1.24,2.95-.1.13-.25.21-.4.21-.1,0-.21-.03-.29-.1-.22-.16-.27-.48-.11-.7Zm-.8-8.48c-.2-.19-.22-.5-.03-.71.19-.2.5-.22.71-.03.79.73,1.42,1.64,1.8,2.64.1.26-.03.55-.29.65-.06.02-.12.03-.18.03-.2,0-.39-.12-.47-.32-.33-.86-.87-1.64-1.55-2.27Zm-2.74-1.96c-.03.25-.25.44-.5.44-.02,0-.04,0-.06,0-.25-.03-.51-.05-.76-.05h-2.17c-.28,0-.5-.22-.5-.5s.22-.5.5-.5h2.17c.3,0,.6.02.89.06.27.03.47.29.43.56Zm-7.07-13.14h-3c-.28,0-.5-.22-.5-.5s.22-.5.5-.5h3.29c.28,0,.5.22.5.5s-.22.5-.5.5h-.29Zm.08,13.03c0,.28-.22.5-.5.5h-3c-.28,0-.5-.22-.5-.5s.22-.5.5-.5h3c.28,0,.5.22.5.5Zm-6.58-13.53c0,.28-.22.5-.5.5h-3c-.28,0-.5-.22-.5-.5s.22-.5.5-.5h3c.28,0,.5.22.5.5Zm-7.34.72c-.89.25-1.72.71-2.4,1.32-.1.09-.22.13-.33.13-.14,0-.27-.06-.37-.17-.19-.21-.17-.52.04-.71.8-.72,1.77-1.26,2.81-1.54.27-.08.54.08.62.35.07.27-.08.54-.35.62Zm-5.39,5.79c0-.52.06-1.04.17-1.55.06-.27.33-.44.6-.38.27.06.44.33.38.6-.1.43-.15.88-.15,1.33v.52c0,.32.03.64.08.95.04.27-.14.53-.42.57-.03,0-.05,0-.08,0-.24,0-.45-.17-.49-.42-.06-.36-.09-.73-.09-1.11v-.52Z"/>
  </g>
</svg>