<svg xmlns="http://www.w3.org/2000/svg" viewBox="0 0 82.24 70.95"><defs><style>.a950ff45-acf9-4bf9-8bc6-400382c45831{fill:#fff;}.b5c00144-cd1c-41c2-b50c-11d236c84f9d{fill:none;}.f382d18a-21a8-46a4-b0e0-089226598717{fill:#1d1d1b;}</style></defs><g id="e6c3199e-2feb-4edc-8e49-cfc483b98d88" data-name="Ebene 2"><g id="adb0e27a-a6eb-430c-87bc-e45c7c799619" data-name="Ebene 1"><g id="f27e8f47-8b91-4e04-9512-829ffbb1b91b" data-name="map_bw"><path class="a950ff45-acf9-4bf9-8bc6-400382c45831" d="M61.4,10.41H25.8L0,71H62.49L82.24,10.41Zm18.33,1h1.14L61.77,70H1.52L26.46,11.41H79.73Z"/><path class="a950ff45-acf9-4bf9-8bc6-400382c45831" d="M70.74,0A7.73,7.73,0,0,0,63,7.73a7.24,7.24,0,0,0,.51,2.68,1.59,1.59,0,0,0,.07.2l.45.8,6.69,12,6.71-12,.48-.86a.78.78,0,0,0,0-.14,7.44,7.44,0,0,0,.49-2.68A7.73,7.73,0,0,0,70.74,0ZM77,10.12l-.16.29-.56,1-5.57,10-5.55-10-.56-1-.13-.23A6.44,6.44,0,0,1,64,7.73a6.73,6.73,0,1,1,13,2.39Z"/><path d="M23.23,65.73a.51.51,0,0,1,0,.71.54.54,0,0,1-.36.14.52.52,0,0,1-.35-.14l-4.23-4.23-4.24,4.23a.52.52,0,0,1-.71,0,.51.51,0,0,1,0-.71l4.24-4.23-4.24-4.24a.5.5,0,0,1,.71-.71l4.24,4.24,4.23-4.24a.5.5,0,0,1,.71.71L19,61.5ZM77.45,11.41l-6.71,12-6.69-12H26.46L1.52,70H61.77l19.1-58.54H77.45ZM64.59,22a103.68,103.68,0,0,0-12.69.56L49.55,24.9a2.48,2.48,0,0,1-.94.59,9.28,9.28,0,0,1,0,9.54,2.57,2.57,0,0,1,1,.59l2.75,2.75a2.52,2.52,0,0,1,0,3.54,2.51,2.51,0,0,1-3.54,0L46,39.16a2.53,2.53,0,0,1-.59-.94l-.18.1a4.58,4.58,0,0,1-4.4,4.55C50.44,44,56,46.49,56.12,49.71c.21,4.39-9.57,8.77-26.81,12h-.1a.51.51,0,0,1-.49-.41.5.5,0,0,1,.4-.58c19.38-3.66,26.14-8.09,26-11-.11-2.23-4.6-5-16.9-6.16a49.86,49.86,0,0,1-6.79-1,2.37,2.37,0,0,1-.65.09A2.49,2.49,0,0,1,29,41.91l0,0c-4.59-1.52-5.92-3.63-6.07-5.4-.28-3.5,3.91-7.33,9.32-10h0a7.41,7.41,0,0,1,.48-.93,2.53,2.53,0,0,1-.94-.59L29,22.16a2.5,2.5,0,0,1,3.53-3.54l2.75,2.74a2.47,2.47,0,0,1,.6.95,9.28,9.28,0,0,1,9.54,0,2.44,2.44,0,0,1,.59-.95l2.75-2.74a2.51,2.51,0,0,1,3.54,0,2.48,2.48,0,0,1,.48,2.83A103.62,103.62,0,0,1,64.63,21a.5.5,0,0,1,.48.52A.49.49,0,0,1,64.59,22Z"/><path d="M39.45,42.71l-1.14-.11a56.68,56.68,0,0,1-5.66-.8l2.64-2.64a2.53,2.53,0,0,0,.59-.94l.19.11A4.58,4.58,0,0,0,39.45,42.71Z"/><path d="M32.7,35a2.38,2.38,0,0,0-.94.58L29,38.37a2.51,2.51,0,0,0-.7,2.2c-2.76-1.08-4.27-2.5-4.41-4.19-.21-2.67,3-6,7.82-8.59a9.15,9.15,0,0,0-.34,2.47A9.25,9.25,0,0,0,32.7,35Z"/><path d="M77.47,7.73A6.68,6.68,0,0,1,77,10.12l-.16.29-.56,1-5.57,10-5.55-10-.56-1-.13-.23A6.44,6.44,0,0,1,64,7.73a6.73,6.73,0,1,1,13.45,0Z"/><path class="a950ff45-acf9-4bf9-8bc6-400382c45831" d="M32.22,26.43a7.3,7.3,0,0,0-.5,1.35h0c-4.79,2.59-8,5.92-7.82,8.59.14,1.69,1.65,3.11,4.41,4.19A2.43,2.43,0,0,0,29,41.86c-4.59-1.52-5.92-3.63-6.07-5.4C22.62,33,26.81,29.13,32.22,26.43Z"/><path class="a950ff45-acf9-4bf9-8bc6-400382c45831" d="M56.12,49.71c.21,4.39-9.57,8.77-26.81,12h-.1a.51.51,0,0,1-.49-.41.5.5,0,0,1,.4-.58c19.38-3.66,26.14-8.09,26-11-.11-2.23-4.6-5-16.9-6.16a49.86,49.86,0,0,1-6.79-1,2.37,2.37,0,0,0,1.11-.64l.11-.11a56.68,56.68,0,0,0,5.66.8l1.14.11,1.4.16C50.44,44,56,46.49,56.12,49.71Z"/><path class="a950ff45-acf9-4bf9-8bc6-400382c45831" d="M65.11,21.52a.49.49,0,0,1-.52.48,103.68,103.68,0,0,0-12.69.56l.4-.4a2.4,2.4,0,0,0,.49-.7A103.62,103.62,0,0,1,64.63,21,.5.5,0,0,1,65.11,21.52Z"/><line class="b5c00144-cd1c-41c2-b50c-11d236c84f9d" x1="22.87" y1="56.91" x2="18.64" y2="61.14"/><line class="b5c00144-cd1c-41c2-b50c-11d236c84f9d" x1="17.93" y1="61.85" x2="13.69" y2="66.08"/><line class="b5c00144-cd1c-41c2-b50c-11d236c84f9d" x1="22.87" y1="66.08" x2="18.64" y2="61.85"/><line class="b5c00144-cd1c-41c2-b50c-11d236c84f9d" x1="17.93" y1="61.14" x2="13.69" y2="56.91"/><path class="a950ff45-acf9-4bf9-8bc6-400382c45831" d="M23.23,65.73a.51.51,0,0,1,0,.71.54.54,0,0,1-.36.14.52.52,0,0,1-.35-.14l-4.23-4.23-4.24,4.23a.52.52,0,0,1-.71,0,.51.51,0,0,1,0-.71l4.24-4.23-4.24-4.24a.5.5,0,0,1,.71-.71l4.24,4.24,4.23-4.24a.5.5,0,0,1,.71.71L19,61.5Z"/><path class="f382d18a-21a8-46a4-b0e0-089226598717" d="M45.57,22.4l-.18,0a.56.56,0,0,1,0-.12Z"/><path class="f382d18a-21a8-46a4-b0e0-089226598717" d="M33.88,37.75,31.13,40.5a.52.52,0,0,1-.71,0,.51.51,0,0,1,0-.71L33.17,37a.5.5,0,1,1,.71.71Z"/><path class="a950ff45-acf9-4bf9-8bc6-400382c45831" d="M33.88,37.75,31.13,40.5a.52.52,0,0,1-.71,0,.51.51,0,0,1,0-.71L33.17,37a.5.5,0,1,1,.71.71Z"/><path class="f382d18a-21a8-46a4-b0e0-089226598717" d="M50.89,40.5a.52.52,0,0,1-.35.14.54.54,0,0,1-.36-.14l-2.75-2.75a.51.51,0,0,1,0-.71.5.5,0,0,1,.71,0l2.75,2.75A.5.5,0,0,1,50.89,40.5Z"/><path class="a950ff45-acf9-4bf9-8bc6-400382c45831" d="M50.89,40.5a.52.52,0,0,1-.35.14.54.54,0,0,1-.36-.14l-2.75-2.75a.51.51,0,0,1,0-.71.5.5,0,0,1,.71,0l2.75,2.75A.5.5,0,0,1,50.89,40.5Z"/><path d="M52.31,38.37l-2.75-2.75a2.57,2.57,0,0,0-1-.59,9.28,9.28,0,0,0,0-9.54,2.48,2.48,0,0,0,.94-.59l2.35-2.34.4-.4a2.4,2.4,0,0,0,.49-.7,2.48,2.48,0,0,0-.48-2.83,2.51,2.51,0,0,0-3.54,0L46,21.36a2.44,2.44,0,0,0-.59.95l.14.09-.18,0a.56.56,0,0,1,0-.12,9.28,9.28,0,0,0-9.54,0,2.47,2.47,0,0,0-.6-.95l-2.75-2.74A2.5,2.5,0,0,0,29,22.16l2.75,2.74a2.53,2.53,0,0,0,.94.59,7.41,7.41,0,0,0-.48.93h0a7.3,7.3,0,0,0-.5,1.35h0a9.15,9.15,0,0,0-.34,2.47A9.25,9.25,0,0,0,32.7,35a2.38,2.38,0,0,0-.94.58L29,38.37a2.51,2.51,0,0,0-.7,2.2A2.43,2.43,0,0,0,29,41.86l0,0a2.49,2.49,0,0,0,1.77.73,2.53,2.53,0,0,0,1.76-.73l2.75-2.75a2.53,2.53,0,0,0,.59-.94l.19.11a4.58,4.58,0,0,0,3.38,4.38l1.4.16a4.58,4.58,0,0,0,4.4-4.55l.18-.1a2.53,2.53,0,0,0,.59.94l2.75,2.75a2.51,2.51,0,0,0,3.54,0A2.52,2.52,0,0,0,52.31,38.37ZM47.44,22.78l.79-.79,2-1.95a.48.48,0,0,1,.7,0,.5.5,0,0,1,0,.71l-1,1-1.17,1.16-.55.55a.52.52,0,0,1-.35.14.51.51,0,0,1-.36-.15.48.48,0,0,1-.14-.34A.51.51,0,0,1,47.44,22.78Zm-17-2a.51.51,0,0,1,0-.71.5.5,0,0,1,.71,0l2.75,2.74a.48.48,0,0,1,0,.7.5.5,0,0,1-.35.15.54.54,0,0,1-.36-.14Zm3.46,17L31.13,40.5a.52.52,0,0,1-.71,0,.51.51,0,0,1,0-.71L33.17,37a.5.5,0,1,1,.71.71Zm6.78,3.13a2.58,2.58,0,0,1-2.41-1.66,8.83,8.83,0,0,0,1.36.26,1.57,1.57,0,0,0,1,.4,1.55,1.55,0,0,0,1-.4,8.73,8.73,0,0,0,1.37-.26A2.58,2.58,0,0,1,40.66,40.88Zm4.88-4.58h0l-.28.22a7.86,7.86,0,0,1-2,1.07,8.68,8.68,0,0,1-1,.27,7.52,7.52,0,0,1-1.59.17,8.32,8.32,0,0,1-1.59-.16,8.19,8.19,0,0,1-1-.28,7.54,7.54,0,0,1-2-1.07,2,2,0,0,1-.29-.22l0,0a6.71,6.71,0,0,1-1.13-1.13l0,0a7.7,7.7,0,0,1-1.73-4.88,7.56,7.56,0,0,1,.82-3.45h0a6.36,6.36,0,0,1,.9-1.41s0,0,0,0l.05-.06h0a8,8,0,0,1,1.09-1.08h0a7.79,7.79,0,0,1,4.88-1.72,7.63,7.63,0,0,1,2.4.38,7.44,7.44,0,0,1,1.57.72,8.18,8.18,0,0,1,.91.63,8,8,0,0,1,1.16,1.16,7.76,7.76,0,0,1,0,9.77A7.42,7.42,0,0,1,45.54,36.3Zm5.35,4.2a.52.52,0,0,1-.35.14.54.54,0,0,1-.36-.14l-2.75-2.75a.51.51,0,0,1,0-.71.5.5,0,0,1,.71,0l2.75,2.75A.5.5,0,0,1,50.89,40.5Z"/><path class="a950ff45-acf9-4bf9-8bc6-400382c45831" d="M50.89,20.75l-1,1-1.17,1.16-.55.55a.52.52,0,0,1-.35.14.51.51,0,0,1-.36-.15.48.48,0,0,1-.14-.34.51.51,0,0,1,.15-.36l.79-.79,2-1.95a.48.48,0,0,1,.7,0A.5.5,0,0,1,50.89,20.75Z"/><path class="f382d18a-21a8-46a4-b0e0-089226598717" d="M33.88,23.48a.5.5,0,0,1-.35.15.54.54,0,0,1-.36-.14l-2.75-2.74a.51.51,0,0,1,0-.71.5.5,0,0,1,.71,0l2.75,2.74A.48.48,0,0,1,33.88,23.48Z"/><path class="a950ff45-acf9-4bf9-8bc6-400382c45831" d="M46.7,25.38a8,8,0,0,0-1.16-1.16,8.18,8.18,0,0,0-.91-.63,7.44,7.44,0,0,0-1.57-.72,7.63,7.63,0,0,0-2.4-.38,7.79,7.79,0,0,0-4.88,1.72h0a8,8,0,0,0-1.09,1.08h0l-.05.06s0,0,0,0a6.36,6.36,0,0,0-.9,1.41h0a7.56,7.56,0,0,0-.82,3.45,7.7,7.7,0,0,0,1.73,4.88l0,0a6.71,6.71,0,0,0,1.13,1.13l0,0a2,2,0,0,0,.29.22,7.54,7.54,0,0,0,2,1.07,8.19,8.19,0,0,0,1,.28,8.32,8.32,0,0,0,1.59.16,7.52,7.52,0,0,0,1.59-.17,8.68,8.68,0,0,0,1-.27,7.86,7.86,0,0,0,2-1.07l.28-.22h0a7.42,7.42,0,0,0,1.16-1.15,7.76,7.76,0,0,0,0-9.77Zm-1.45,9.84a6.51,6.51,0,0,1-2,1.3,4.86,4.86,0,0,1-1,.32,6.41,6.41,0,0,1-1.59.2,6,6,0,0,1-1.59-.2,5.79,5.79,0,0,1-1-.31,6.76,6.76,0,0,1-2.75-10.42h0a6.71,6.71,0,0,1,2.21-1.85h0a6.51,6.51,0,0,1,2.6-.73h0a3.59,3.59,0,0,1,.47,0,6.37,6.37,0,0,1,2.32.42,6.76,6.76,0,0,1,4.45,6.35A6.69,6.69,0,0,1,45.25,35.22Z"/><path class="a950ff45-acf9-4bf9-8bc6-400382c45831" d="M33.88,23.48a.5.5,0,0,1-.35.15.54.54,0,0,1-.36-.14l-2.75-2.74a.51.51,0,0,1,0-.71.5.5,0,0,1,.71,0l2.75,2.74A.48.48,0,0,1,33.88,23.48Z"/><path class="f382d18a-21a8-46a4-b0e0-089226598717" d="M40.85,42.87h-.19a4.37,4.37,0,0,1-1.21-.17Z"/><path class="f382d18a-21a8-46a4-b0e0-089226598717" d="M43.07,39.22a2.58,2.58,0,0,1-4.82,0,8.83,8.83,0,0,0,1.36.26,1.57,1.57,0,0,0,1,.4,1.55,1.55,0,0,0,1-.4A8.73,8.73,0,0,0,43.07,39.22Z"/><path class="f382d18a-21a8-46a4-b0e0-089226598717" d="M40.66,31.73a2.59,2.59,0,0,0-2.59,2.59v.53a4.47,4.47,0,0,0,1,.44v-1a1.59,1.59,0,0,1,3.18,0v1a5,5,0,0,0,1-.44v-.53A2.59,2.59,0,0,0,40.66,31.73Zm0,0a2.59,2.59,0,0,0-2.59,2.59v.53a4.47,4.47,0,0,0,1,.44v-1a1.59,1.59,0,0,1,3.18,0v1a5,5,0,0,0,1-.44v-.53A2.59,2.59,0,0,0,40.66,31.73Z"/><path class="a950ff45-acf9-4bf9-8bc6-400382c45831" d="M41.7,39.48a1.55,1.55,0,0,1-1,.4,1.57,1.57,0,0,1-1-.4,8.83,8.83,0,0,1-1.36-.26,2.58,2.58,0,0,0,4.82,0A8.73,8.73,0,0,1,41.7,39.48Z"/><path d="M43.25,34.32v.53a5,5,0,0,1-1,.44v-1a1.59,1.59,0,0,0-3.18,0v1a4.47,4.47,0,0,1-1-.44v-.53a2.59,2.59,0,0,1,5.18,0Z"/><path class="f382d18a-21a8-46a4-b0e0-089226598717" d="M45.43,22.31a.56.56,0,0,0,0,.12l.18,0Z"/><path class="f382d18a-21a8-46a4-b0e0-089226598717" d="M45.43,22.31a.56.56,0,0,0,0,.12l.18,0Z"/><path class="f382d18a-21a8-46a4-b0e0-089226598717" d="M45.43,22.31a.56.56,0,0,0,0,.12l.18,0Z"/><path class="f382d18a-21a8-46a4-b0e0-089226598717" d="M45.43,22.31a.56.56,0,0,0,0,.12l.18,0Z"/><path class="a950ff45-acf9-4bf9-8bc6-400382c45831" d="M43,23.91a6.37,6.37,0,0,0-2.32-.42,3.59,3.59,0,0,0-.47,0h0a6.51,6.51,0,0,0-2.6.73h0a6.71,6.71,0,0,0-2.21,1.85h0a6.81,6.81,0,0,0,2.75,10.42,5.79,5.79,0,0,0,1,.31,6,6,0,0,0,1.59.2,6.41,6.41,0,0,0,1.59-.2,4.86,4.86,0,0,0,1-.32,6.51,6.51,0,0,0,2-1.3,6.69,6.69,0,0,0,2.18-5A6.76,6.76,0,0,0,43,23.91Zm.27,10.94a5,5,0,0,1-1,.44v-1a1.59,1.59,0,0,0-3.18,0v1a4.47,4.47,0,0,1-1-.44v-.53a2.59,2.59,0,0,1,5.18,0Z"/></g></g></g></svg>