<?xml version="1.0" encoding="UTF-8"?><svg id="uuid-ec5094a8-3a2a-4161-bf20-e3875f75c591" xmlns="http://www.w3.org/2000/svg" viewBox="0 0 50 50"><defs><style>.uuid-eca4eedf-f617-4c20-9b43-ff586b6da708{fill:#bdbdbd;}</style></defs><g id="uuid-9db500f7-8696-441f-a442-360248a3cb9e"><path class="uuid-eca4eedf-f617-4c20-9b43-ff586b6da708" d="M43.65,0H6.35C2.84,0,0,2.84,0,6.35V43.65c0,3.51,2.84,6.35,6.35,6.35H43.65c3.51,0,6.35-2.84,6.35-6.35V6.35c0-3.51-2.84-6.35-6.35-6.35ZM12.78,44.29s-6.83-11.91-6.83-15.68,3.06-6.83,6.83-6.83,6.83,3.06,6.83,6.83-6.83,15.68-6.83,15.68Zm11.2-5.15h-3.5c-.28,0-.5-.22-.5-.5s.22-.5,.5-.5h3.5c.28,0,.5,.22,.5,.5s-.22,.5-.5,.5Zm11.17-.64c-.91,.42-1.88,.64-2.89,.64h-2.75c-.28,0-.5-.22-.5-.5s.22-.5,.5-.5h2.75c.86,0,1.69-.18,2.47-.55,.25-.12,.55,0,.66,.24,.12,.25,0,.55-.24,.67Zm3.96-6.22c0,.62-.08,1.23-.24,1.82-.06,.22-.26,.37-.48,.37-.04,0-.09,0-.13-.02-.27-.07-.42-.35-.35-.61,.14-.5,.21-1.03,.21-1.55v-3.81c0-.28,.22-.5,.5-.5s.5,.22,.5,.5v3.81Zm0-9.33c0,.28-.22,.5-.5,.5s-.5-.22-.5-.5v-3.5c0-.28,.22-.5,.5-.5s.5,.22,.5,.5v3.5Zm4.79-6.68c.2,.2,.2,.51,0,.71-.1,.1-.23,.15-.35,.15s-.26-.05-.35-.15l-4.57-4.57-4.57,4.57c-.1,.1-.23,.15-.35,.15s-.26-.05-.35-.15c-.2-.2-.2-.51,0-.71l4.57-4.57-4.57-4.57c-.2-.2-.2-.51,0-.71s.51-.2,.71,0l4.57,4.57,4.57-4.57c.2-.2,.51-.2,.71,0s.2,.51,0,.71l-4.57,4.57,4.57,4.57Z"/></g></svg>