<?xml version="1.0" encoding="UTF-8"?>
<svg id="Ebene_2" data-name="Ebene 2" xmlns="http://www.w3.org/2000/svg" viewBox="0 0 82.24 71">
  <defs>
    <style>
      .cls-1 {
        fill: #fff;
      }

      .cls-2 {
        fill: none;
      }

      .cls-3 {
        fill: #1d1e1c;
      }
    </style>
  </defs>
  <g id="Ebene_1-2" data-name="Ebene 1">
    <g>
      <path class="cls-2" d="m34.39,27.71c-1.42,3.45.23,7.4,3.68,8.82.32.13.66.24,1,.31.52.14,1.05.2,1.59.2.54,0,1.07-.07,1.59-.2.34-.07.68-.18,1-.32.02-.01.05-.03.07-.04-.32.14-.65.25-.99.32-.52.13-1.05.2-1.59.2-.54,0-1.07-.06-1.59-.2-.34-.07-.68-.18-1-.31-.53-.23-1.04-.52-1.5-.87-2.98-2.29-3.54-6.57-1.25-9.55.59-.76,1.33-1.39,2.19-1.84-.02,0-.04.02-.06.03-.86.45-1.62,1.08-2.21,1.85-.38.49-.69,1.02-.93,1.6Z"/>
      <path class="cls-2" d="m31.37,30.26c0,.25.03.49.05.73-.02-.25-.05-.49-.05-.74,0,0,0,0,0,.01Z"/>
      <path class="cls-2" d="m43.25,34.32v.53c-.31.18-.64.32-.98.43h0c.35-.1.68-.25,1-.43v-.53c0-1.43-1.16-2.59-2.59-2.59,0,0,0,0-.01,0,1.43,0,2.58,1.16,2.58,2.59Z"/>
      <path class="cls-2" d="m45.42,38.17l-.18.1s0,.03,0,.05l.17-.1c.12.35.33.67.59.94l2.42,2.36-2.41-2.41c-.26-.27-.47-.59-.59-.94Z"/>
      <path class="cls-2" d="m50.18,40.5l-2.75-2.75s.01.02.02.03l2.75,2.75c.1.09.23.14.36.14.13,0,.25-.05.35-.14l-.02-.03c-.1.09-.22.14-.35.14-.13,0-.26-.05-.36-.14Z"/>
      <path class="cls-2" d="m40.71,40.88s-.08,0-.13,0c-.28,0-.56-.05-.84-.16-.23-.09-.44-.22-.64-.36.44.35.99.57,1.58.57l-.02-.03s.03,0,.05,0c0,0,0,0,0,0Z"/>
      <path class="cls-2" d="m39.07,34.29v.99s.01,0,.02,0v-1c0-.87.71-1.58,1.58-1.59,0,0,0,0-.01,0-.88,0-1.59.71-1.59,1.59Z"/>
      <path class="cls-2" d="m39.05,40.31c-.19-.16-.37-.34-.51-.55.14.21.32.39.51.55Z"/>
      <polygon class="cls-2" points="31.13 40.5 33.9 37.78 33.88 37.71 33.88 37.75 31.13 40.5"/>
      <polygon class="cls-2" points="77.45 11.41 77.43 11.41 70.73 23.39 70.74 23.41 77.45 11.41"/>
      <polygon class="cls-2" points="80.85 11.46 80.87 11.41 79.73 11.41 77.45 11.41 77.45 11.46 80.85 11.46"/>
      <path class="cls-2" d="m77.46,7.73s0-.07,0-.11c0-.05,0-.11,0-.16,0,.09,0,.18,0,.27h0Z"/>
      <path class="cls-2" d="m46.69,35.07c-.34.42-.73.81-1.16,1.15l-.28.22c-.61.45-1.29.81-2,1.07-.33.11-.66.2-1,.27-.52.11-1.06.17-1.59.17-.53,0-1.07-.06-1.59-.16-.34-.07-.67-.17-1-.28-.72-.25-1.39-.61-2-1.07-.1-.06-.2-.14-.29-.22-.42-.33-.8-.71-1.13-1.13-.69-.84-1.18-1.82-1.46-2.85.27,1.08.78,2.09,1.49,2.96.33.42.71.8,1.13,1.13.09.08.19.16.29.22.61.46,1.28.82,2,1.07.33.11.66.21,1,.28.52.1,1.06.16,1.59.16.53,0,1.07-.06,1.59-.17.34-.07.67-.16,1-.27.71-.26,1.39-.62,2-1.07l.28-.22-.02-.03c.43-.3.83-.65,1.19-1.04,1.47-1.82,2-4.14,1.59-6.32.34,2.12-.2,4.36-1.63,6.13Z"/>
      <path class="cls-2" d="m47.44,22.78s-.01.03-.02.04c.02-.02.03-.05.05-.07l-.03.03Z"/>
      <path class="cls-2" d="m45.39,22.29s-.01,0-.02-.01c0,.04,0,.08,0,.12h.02s0-.07,0-.11Z"/>
      <path class="cls-2" d="m50.89,20.75l-1,1-1.17,1.16-.55.55c-.09.08-.21.13-.33.14,0,0,.01,0,.02,0,.13,0,.25-.05.35-.14l.55-.55,1.17-1.16,1-1h0c.06-.06.09-.12.11-.19-.03.06-.07.11-.12.16-.01.01-.03.02-.04.03Z"/>
      <path class="cls-2" d="m40.85,42.88c5.16.6,9.13,1.6,11.74,2.9-2.61-1.3-6.59-2.3-11.76-2.91h-.07.09Z"/>
      <path class="cls-2" d="m28.96,18.9c.89-1.06,2.46-1.2,3.52-.31l2.75,2.74c.27.27.48.59.6.95,0,0,.02,0,.03-.01-.13-.34-.32-.65-.58-.91l-2.75-2.74c-.97-.93-2.51-.93-3.47,0-.99.96-1.02,2.54-.06,3.54-.82-.93-.83-2.31-.04-3.26Z"/>
      <path class="cls-2" d="m32.66,25.55s.02-.04.03-.06c-.35-.12-.67-.33-.94-.59l-2.75-2.74,2.79,2.83c.25.25.55.43.87.56Z"/>
      <path class="cls-2" d="m31.71,27.79s0,0,0,0c-.38.21-.75.42-1.11.63.36-.21.73-.42,1.11-.63Z"/>
      <path class="cls-2" d="m32.65,41.81c1.87.36,3.76.63,5.66.8l1.14.11.2.02c-.07-.02-.14-.02-.2-.04l1.39.17c2.15-.09,3.9-1.65,4.3-3.68-.42,2.01-2.17,3.55-4.3,3.63l-1.4-.16c-1.72-.47-2.99-1.88-3.3-3.59.3,1.73,1.57,3.17,3.31,3.64l-1.14-.11c-1.9-.17-3.79-.44-5.66-.8l2.64-2.64c.26-.27.47-.59.59-.94l.18.11s0-.03,0-.05l-.19-.11c-.12.35-.33.67-.59.94l-2.75,2.75c-.47.46-1.1.73-1.76.73-.66,0-1.3-.26-1.77-.73-4.59-1.52-5.92-3.63-6.07-5.4,0,0,0,0,0,0,0,.02,0,.04,0,.06.15,1.77,1.48,3.88,6.07,5.4.47.48,1.11.74,1.78.74.22,0,.44-.03.65-.09.42-.11.81-.33,1.11-.64l.11-.11Z"/>
      <path class="cls-2" d="m52.79,21.46c3.93-.38,7.89-.53,11.84-.46-3.96-.08-7.91.07-11.85.45.46-.95.27-2.08-.48-2.83-.62-.62-1.48-.84-2.28-.68.79-.15,1.63.08,2.24.69.75.75.94,1.88.48,2.83-.12.26-.29.5-.49.7l-.4.4-2.35,2.34c-.26.27-.59.47-.94.59,1.76,2.94,1.76,6.6,0,9.54.37.12.72.32,1,.59l2.75,2.75c.93.98.93,2.52-.01,3.49-.96.96-2.51.97-3.49.04h0c.98.98,2.56.98,3.54,0,.97-.98.97-2.56,0-3.54l-2.75-2.75c-.28-.27-.63-.47-1-.59,1.76-2.94,1.76-6.6,0-9.54.35-.12.68-.32.94-.59l2.35-2.34h0l.4-.4c.2-.2.37-.44.49-.7Z"/>
      <path class="cls-2" d="m61.41,21.99c1.06-.01,2.12-.01,3.18,0,0,0,.01,0,.02,0,0,0-.01,0-.02,0-1.06-.02-2.12-.02-3.18,0Z"/>
      <path class="cls-2" d="m33.55,23.66c.13,0,.26-.06.35-.15,0,0,.01-.01.02-.02.14-.15.16-.37.07-.55.07.17.05.38-.09.52,0,0-.01.01-.02.02-.09.09-.22.15-.35.15-.13,0-.26-.05-.36-.14l-2.75-2.74s.01.02.02.03l2.75,2.74c.1.09.23.14.36.14Z"/>
      <path class="cls-1" d="m77.91,10.41c.33-.86.49-1.76.49-2.68,0-4.24-3.42-7.69-7.66-7.73-4.27,0-7.73,3.45-7.74,7.72h0c0,.93.17,1.84.51,2.69H25.8L0,71h62.49l19.75-60.59h-4.33Zm-7.44-9.66c3.71-.14,6.84,2.75,6.98,6.47,0,.08,0,.16,0,.25,0,.05,0,.11,0,.16,0,.04,0,.07,0,.11h.01c0,.08-.02.15-.02.23-.01.29-.04.59-.09.88-.02.08-.03.17-.05.25-.08.35-.17.7-.3,1.03l-.16.29-.56,1-5.57,10-5.55-10-.56-1-.13-.23c-.31-.78-.47-1.61-.47-2.45-.14-3.71,2.75-6.84,6.47-6.98Zm-8.7,69.25H1.52L26.46,11.41h37.59l6.68,11.98,6.7-11.98h3.44l-.02.05h.02l-19.1,58.54Z"/>
      <path d="m77.45,11.46v-.05l-6.71,12v-.02s-6.69-11.98-6.69-11.98H26.46L1.52,70h60.25l19.1-58.54h-3.42Zm-30.03,11.36s0-.03.02-.04l.03-.03.76-.76.03-.03,2-1.95c.18-.19.49-.2.68-.02,0,0,.01.01.02.02.14.15.17.37.09.55-.02.07-.06.14-.11.19h0s-1,1-1,1l-1.17,1.16-.55.55c-.1.09-.22.14-.35.14,0,0-.01,0-.02,0,0,0-.01,0-.02,0-.14,0-.26-.05-.36-.15-.09-.09-.14-.21-.14-.34,0-.11.04-.2.1-.29Zm-2.05-.54s.01,0,.02.01c0,0,0,0,0-.01l.03.02s0,0,0,.01h.02s0,0,0,0l.18.12h-.18s0-.02,0-.03h-.06s0-.08,0-.12Zm-2.31.59c.55.18,1.08.42,1.57.72.32.19.62.4.91.63.43.35.81.73,1.16,1.16v-.08c.87,1.08,1.41,2.34,1.62,3.64.41,2.18-.11,4.5-1.59,6.32-.36.39-.76.74-1.19,1.04l.02.03-.28.22c-.61.45-1.29.81-2,1.07-.33.11-.66.2-1,.27-.52.11-1.06.17-1.59.17-.53,0-1.07-.06-1.59-.16-.34-.07-.67-.17-1-.28-.72-.25-1.39-.61-2-1.07-.1-.06-.2-.14-.29-.22-.42-.33-.8-.71-1.13-1.13-.71-.87-1.21-1.88-1.49-2.96-.18-.66-.27-1.34-.27-2.03,0-1.2.28-2.38.82-3.45.24-.51.54-.98.9-1.41l.05-.06c.33-.39.69-.76,1.09-1.08,1.38-1.11,3.1-1.72,4.88-1.72.82,0,1.63.13,2.4.38Zm7.85,17.66c-.1.09-.22.14-.35.14-.13,0-.26-.05-.36-.14l-2.75-2.75s-.01-.02-.02-.03c-.17-.2-.17-.49.02-.68.19-.2.51-.2.71,0,0,0,0,0,0,0l2.75,2.75c.13.15.16.35.09.52,0,.02-.02.03-.03.05-.02.04-.04.08-.07.11l.02.03Zm-2.49.99l-2.42-2.36c-.26-.27-.47-.59-.59-.94l-.17.1s0-.03,0-.05l.18-.1c.12.35.33.67.59.94l2.41,2.41Zm-7.74-.61c-.59,0-1.13-.22-1.58-.57-.02-.01-.03-.02-.05-.04-.19-.16-.37-.34-.51-.55-.02-.03-.05-.07-.07-.1-.05-.09-.1-.18-.14-.28-.03-.05-.06-.1-.08-.16.03,0,.07.01.1.02,0,0,0-.01,0-.02.45.12.9.21,1.36.26.26.24.6.37.96.39.35-.02.69-.15.95-.39.2-.02.41-.05.61-.08.11-.02.22-.04.33-.06.17-.04.34-.07.51-.11,0,0,0,.01-.01.02.03,0,.07-.01.1-.02-.26.69-.8,1.23-1.49,1.49-.28.11-.56.15-.84.16-.04,0-.08,0-.12,0-.02,0-.03,0-.05,0l.02.03Zm-6.78-3.13l-2.77,2.72c-.2.19-.51.19-.71,0-.19-.2-.19-.51,0-.71l2.75-2.79c.2-.2.51-.2.71,0,.2.2.2.51,0,.71l.02.07Zm-2.53-7.52s0,0,0-.01c0,.25.03.49.05.74-.02-.24-.05-.49-.05-.73Zm-.93-9.48s-.01-.02-.02-.03h0c-.19-.2-.19-.51,0-.71.19-.2.51-.2.71,0h0s2.75,2.74,2.75,2.74c.05.05.09.1.11.16.09.18.07.4-.07.55,0,0-.01.01-.02.02-.09.09-.22.15-.35.15-.13,0-.26-.05-.36-.14l-2.75-2.74Zm-1.38-2.16c.97-.94,2.5-.94,3.47,0l2.75,2.74c.26.25.45.57.58.91,0,0-.02,0-.03.01-.12-.36-.33-.68-.6-.95l-2.75-2.74c-1.06-.89-2.64-.75-3.52.31-.79.95-.77,2.33.04,3.26l2.75,2.74c.27.26.59.47.94.59-.01.02-.02.04-.03.06-.32-.13-.62-.31-.87-.56l-2.79-2.83c-.96-.99-.94-2.57.06-3.54Zm-5.83,47.11c.19.2.19.51,0,.71-.1.09-.23.14-.36.14-.13,0-.25-.05-.35-.14l-4.23-4.23-4.24,4.23c-.2.19-.51.19-.71,0-.19-.2-.19-.51,0-.71l4.24-4.23-4.24-4.24c-.2-.2-.2-.51,0-.71.2-.2.51-.2.71,0l4.24,4.24,4.23-4.24c.2-.2.51-.2.71,0s.2.51,0,.71l-4.23,4.24,4.23,4.23Zm6.08-4.02h-.1c-.24,0-.44-.18-.49-.41-.05-.27.13-.53.4-.58,19.38-3.66,26.14-8.09,26-11-.11-2.23-4.6-5-16.9-6.16-2.28-.18-4.55-.51-6.79-1-.21.06-.43.09-.65.09-.67,0-1.31-.26-1.78-.74-4.59-1.52-5.92-3.63-6.07-5.4,0-.02,0-.04,0-.06-.3-3.45,3.88-7.31,9.27-10.01-.21.43-.37.87-.49,1.33,0,0,0,.01,0,.02,0,0,0,0,0,0-.38.2-.75.42-1.11.63-4.16,2.48-6.86,5.49-6.7,7.95.14,1.69,1.65,3.11,4.4,4.19,0,0,0,0,0,.01.09.49.34.94.7,1.29.47.47,1.11.73,1.77.73.66,0,1.29-.27,1.76-.73l2.75-2.75c.26-.27.47-.59.59-.94l.19.11s0,.03,0,.05l-.18-.11c-.12.35-.33.67-.59.94l-2.64,2.64c1.87.36,3.76.63,5.66.8l1.14.11c-1.74-.47-3.01-1.91-3.31-3.64.31,1.71,1.58,3.13,3.3,3.59l1.4.16c2.13-.08,3.88-1.62,4.3-3.63-.4,2.04-2.15,3.59-4.3,3.68h.01s-.02,0-.02,0c5.17.61,9.15,1.61,11.76,2.91,2.24,1.11,3.47,2.44,3.53,3.93.21,4.39-9.57,8.77-26.81,12Zm35.8-40.19c0,.27-.23.49-.5.48,0,0-.01,0-.02,0-1.06-.02-2.12-.02-3.18,0-3.18.04-6.35.23-9.51.57h0l-2.35,2.34c-.26.27-.59.47-.94.59,1.76,2.94,1.76,6.6,0,9.54.37.12.72.32,1,.59l2.75,2.75c.97.98.97,2.56,0,3.54-.98.97-2.56.97-3.54,0h0c.98.92,2.52.91,3.49-.05.94-.97.94-2.51.01-3.49l-2.75-2.75c-.28-.27-.63-.47-1-.59,1.76-2.94,1.76-6.6,0-9.54.35-.12.68-.32.94-.59l2.35-2.34.4-.4c.2-.2.37-.44.49-.7.46-.95.27-2.08-.48-2.83-.61-.61-1.45-.83-2.24-.69.8-.16,1.66.06,2.28.68.75.75.94,1.88.48,2.83,3.94-.38,7.89-.53,11.85-.45.28.01.49.24.48.52,0,0,0,0,0,0Z"/>
      <path d="m64.6,10.41l.56,1,5.55,10,5.57-10,.56-1,.16-.29c.13-.33.23-.68.3-1.03.02-.08.04-.17.05-.25.05-.29.08-.58.09-.88,0-.08.02-.15.02-.23h-.02c0-.09,0-.18,0-.27,0-.08,0-.16,0-.25-.14-3.71-3.27-6.61-6.98-6.47-3.71.14-6.61,3.27-6.47,6.98,0,.84.16,1.67.47,2.45l.13.23Z"/>
      <path class="cls-1" d="m29,41.86c-.36-.35-.61-.8-.7-1.29,0,0,0,0,0-.01-2.75-1.08-4.26-2.5-4.4-4.19-.17-2.45,2.54-5.47,6.7-7.95.36-.22.73-.43,1.11-.63,0,0,0-.01,0-.02.12-.46.29-.9.49-1.33-5.4,2.7-9.57,6.56-9.27,10.01,0,0,0,0,0,0,.15,1.77,1.48,3.88,6.07,5.4Z"/>
      <path class="cls-1" d="m52.59,45.78c-2.61-1.29-6.58-2.3-11.74-2.9h-.09s-.1,0-.1,0c-.34,0-.68-.05-1.01-.13l-.2-.02-1.14-.11c-1.9-.17-3.79-.44-5.66-.8l-.11.11c-.3.31-.69.53-1.11.64,2.24.49,4.51.82,6.79,1,12.3,1.16,16.79,3.93,16.9,6.16.14,2.91-6.62,7.34-26,11-.27.05-.45.31-.4.58.05.23.25.41.49.41h.1c17.24-3.23,27.02-7.61,26.81-12-.06-1.49-1.29-2.82-3.53-3.93Z"/>
      <path class="cls-1" d="m64.63,21c-3.95-.07-7.91.08-11.84.46-.12.26-.29.5-.49.7l-.4.4c3.16-.33,6.33-.52,9.51-.57,1.06-.01,2.12-.01,3.18,0,0,0,.01,0,.02,0,.27,0,.49-.21.5-.48,0,0,0,0,0,0,.01-.28-.2-.51-.48-.52Z"/>
      <path class="cls-1" d="m23.23,56.55c-.2-.2-.51-.2-.71,0l-4.23,4.24-4.24-4.24c-.2-.2-.51-.2-.71,0-.2.2-.2.51,0,.71l4.24,4.24-4.24,4.23c-.19.2-.19.51,0,.71.2.19.51.19.71,0l4.24-4.23,4.23,4.23c.1.09.22.14.35.14.13,0,.26-.05.36-.14.19-.2.19-.51,0-.71l-4.23-4.23,4.23-4.24c.2-.2.2-.51,0-.71Z"/>
      <path class="cls-3" d="m45.43,22.4s0,.02,0,.03h.18l-.18-.12s0,0,0,.01h-.02s0-.02,0-.03l-.03-.02s0,0,0,.01c0,.04,0,.07,0,.11h.04Z"/>
      <path class="cls-1" d="m33.88,37c-.2-.2-.51-.2-.71,0l-2.75,2.79c-.19.2-.19.51,0,.71.2.19.51.19.71,0l2.75-2.75v-.04c.2-.2.2-.51,0-.71Z"/>
      <path class="cls-1" d="m50.99,40.34c.07-.17.04-.37-.09-.52l-2.75-2.75s0,0,0,0c-.2-.19-.51-.19-.71,0-.18.19-.19.48-.02.68l2.75,2.75c.1.09.23.14.36.14.13,0,.25-.05.35-.14.03-.03.05-.07.07-.11,0-.02.02-.03.03-.05Z"/>
      <path class="cls-1" d="m47.82,23.6s.01,0,.02,0c.12,0,.24-.05.33-.14l.55-.55,1.17-1.16,1-1s.03-.02.04-.03c.05-.05.09-.1.12-.16.08-.18.05-.39-.09-.55,0,0-.01-.01-.02-.02-.19-.18-.5-.17-.68.02l-2,1.95-.03.03-.76.76s-.03.05-.05.07c-.06.09-.1.18-.1.29,0,.13.05.25.14.34.1.1.22.15.36.15Z"/>
      <path class="cls-1" d="m34.69,25.29l-.05.06c-.36.43-.66.9-.9,1.41-.54,1.07-.82,2.25-.82,3.45,0,.69.09,1.37.27,2.03.28,1.03.77,2.01,1.46,2.85.33.42.71.8,1.13,1.13.09.08.19.16.29.22.61.46,1.28.82,2,1.07.33.11.66.21,1,.28.52.1,1.06.16,1.59.16.53,0,1.07-.06,1.59-.17.34-.07.67-.16,1-.27.71-.26,1.39-.62,2-1.07l.28-.22c.43-.34.82-.73,1.16-1.15,1.43-1.77,1.97-4,1.63-6.13-.21-1.3-.75-2.56-1.63-3.64v.08c-.34-.43-.72-.81-1.15-1.16-.29-.23-.59-.44-.91-.63-.49-.3-1.02-.54-1.57-.72-.77-.25-1.58-.38-2.4-.38-1.78,0-3.5.61-4.88,1.72-.4.32-.76.69-1.09,1.08Zm3.4,9.03c0-1.43,1.15-2.58,2.58-2.59,0,0,0,0,.01,0,1.43,0,2.59,1.16,2.59,2.59v.53c-.32.18-.65.33-1,.44h0v-1c0-.88-.71-1.59-1.59-1.59,0,0,0,0-.01,0-.87,0-1.58.71-1.58,1.59v1s-.01,0-.02,0c-.34-.1-.67-.25-.98-.43v-.53Zm-.56-10.06s.04-.02.06-.03c-.85.45-1.6,1.07-2.19,1.84-2.29,2.98-1.73,7.26,1.25,9.55.46.35.96.65,1.5.87.32.13.66.24,1,.31.52.14,1.05.2,1.59.2.54,0,1.07-.07,1.59-.2.34-.07.67-.18.99-.32-.02.01-.05.03-.07.04-.32.14-.66.25-1,.32-.52.13-1.05.2-1.59.2-.54,0-1.07-.06-1.59-.2-.34-.07-.68-.18-1-.31-3.45-1.42-5.1-5.37-3.68-8.82.24-.57.55-1.11.93-1.6.59-.77,1.35-1.4,2.21-1.85Z"/>
      <path class="cls-1" d="m33.53,23.63c.13,0,.26-.06.35-.15,0,0,.01-.01.02-.02.14-.14.16-.35.09-.52-.03-.06-.06-.11-.11-.16l-2.75-2.74h0c-.2-.2-.51-.2-.71,0-.19.2-.19.51,0,.71h0s2.75,2.74,2.75,2.74c.1.09.23.14.36.14Z"/>
      <path class="cls-3" d="m39.65,42.74c.33.08.67.13,1.01.13h.19-.01s-1.39-.17-1.39-.17c.07.02.14.03.2.04Z"/>
      <path class="cls-3" d="m40.58,40.87c-.97-.07-1.85-.67-2.23-1.63-.03,0-.07-.01-.1-.02.02.06.06.11.08.16.04.1.09.19.14.28.02.04.05.07.07.1.14.21.32.39.51.55.02.01.03.02.05.04.19.15.4.28.64.36.28.11.56.15.84.16Z"/>
      <path class="cls-3" d="m40.71,40.88s.08,0,.12,0c-.04,0-.09,0-.13,0,0,0,0,0,0,0Z"/>
      <path class="cls-3" d="m41.7,39.48c.46-.04.91-.12,1.36-.24,0,0,0-.01.01-.02-.17.05-.34.08-.51.11-.11.02-.22.04-.33.06-.2.03-.41.06-.61.08-.26.24-.6.37-.95.39.02,0,.03,0,.04,0,.37,0,.73-.15,1-.4Z"/>
      <path class="cls-1" d="m40.58,40.87s.08,0,.13,0c.04,0,.08,0,.13,0,.28,0,.56-.05.84-.16.69-.26,1.23-.8,1.49-1.49-.03,0-.07.01-.1.02-.45.11-.9.2-1.36.24-.27.25-.63.39-1,.4-.02,0-.03,0-.04,0-.35-.02-.69-.15-.96-.39-.46-.05-.91-.14-1.36-.26,0,0,0,.01,0,.02.38.96,1.26,1.56,2.23,1.63Z"/>
      <path d="m39.07,34.29c0-.88.71-1.59,1.59-1.59,0,0,0,0,.01,0s0,0,.01,0c.88,0,1.59.71,1.59,1.59v.99c.34-.11.67-.25.98-.43v-.53c0-1.43-1.15-2.58-2.58-2.59-1.43,0-2.58,1.16-2.58,2.59v.53c.31.18.64.33.98.43v-.99Z"/>
    </g>
  </g>
</svg>