<?xml version="1.0" encoding="UTF-8"?>
<svg id="Layer_2" data-name="Layer 2" xmlns="http://www.w3.org/2000/svg" viewBox="0 0 908.32 603.74">
  <g id="Layer_2-2" data-name="Layer 2">
    <g>
      <g>
        <path d="m761.88,555.57c-7.25-.24-14.52-.35-21.62-.35-49.84,0-103.68,6.32-104.13,20.21-.39,11.88,39,20.5,76,24.61,4.06.45,8.11.85,12.04,1.19,11.67,1.04,23.84,1.77,36.17,2.16,6.95.23,14.04.35,21.07.35h.7c8.23,0,16.37-.17,24.21-.49,38.3-1.57,79.37-7.57,79.77-19.71.49-14.96-62.77-25.97-124.21-27.97Z" fill="#81d4fa"/>
        <path d="m908.29,432.03l-5.24-78.27c-.51-7.58-6.85-13.51-14.44-13.51-.17,0-.34,0-.5,0l-139.84,4.67c-3.89.13-7.49,1.77-10.13,4.62-2.64,2.84-4.01,6.55-3.86,10.43l2.91,73.6c.31,7.8,6.67,13.91,14.48,13.91h142.17c4.06,0,7.82-1.63,10.58-4.6,2.77-2.96,4.14-6.82,3.86-10.86Z" fill="#81d4fa"/>
        <path d="m604.87,391.21c-.07-4.22-3.55-7.66-7.77-7.66h-.15c-13.14.26-53.14,1.06-65.94,1.53-2.86.1-5.11,2.42-5.13,5.34l1.24,167.69c.01,2.77,2.2,5.05,4.97,5.19l68.18,3.39c.11,0,.22,0,.33,0,1.73,0,3.36-.68,4.58-1.91,1.22-1.23,1.88-2.86,1.86-4.59-.02-2.97-.05-6.98-.09-11.82l-2.09-157.16Z" fill="#81d4fa"/>
      </g>
      <g>
        <path d="m407.92,0c-1,0-2.02.09-3.02.28L126.1,51.7c-10.08,1.86-17.69,10.3-18.51,20.54l-6.66,100.34c-.32,4.04,2.09,7.86,5.89,9.31l121.23,44.91c2.69,1.02,5.51,1.54,8.38,1.54.78,0,1.57-.04,2.34-.12l162.54-15.99c10.43-1.04,18.48-9.72,18.73-20.2l4.29-175.14c.11-4.48-1.55-8.7-4.67-11.9-3.09-3.16-7.37-4.98-11.76-4.98Z" fill="#ce93d8"/>
        <path d="m538.73,125.62l-84.47-107.94c-2.15-2.75-5.21-4.26-8.62-4.26-5.35,0-10.99,4.04-11.16,10.81l-4.15,170.88c-.22,9.09,4.18,17.47,11.77,22.42l85.32,57.56c1.54,1.01,3.31,1.54,5.11,1.54,5.09,0,9.22-3.98,9.39-9.08l2.47-125.52c0-5.92-2.01-11.75-5.66-16.42Z" fill="#ce93d8"/>
      </g>
      <g>
        <path d="m192.83,301.08l-165.92-41.03c-.95-.24-1.92-.35-2.89-.35-6.14,0-11.36,4.81-11.89,10.94L.04,412.11c0,.14-.02.27-.03.41v.06s0,.54,0,.54c0,3.25,1.36,6.41,3.73,8.66.28.26.56.51.86.74,2,1.57,4.41,2.45,7.02,2.53l172.9,5.21h0c6.33-.03,11.55-5.01,11.87-11.33l.03-.5,5.49-105.12c.31-5.72-3.51-10.86-9.07-12.23Z" fill="#a5d6a7"/>
        <path d="m343,435.59c-.71-1.15-1.95-1.84-3.31-1.84h-58.75c-3.01,0-5.75,1.66-7.15,4.33l-13.48,25.91c-.62,1.2-.58,2.62.11,3.78.69,1.16,1.92,1.87,3.27,1.9l58.9,1.05c3.03,0,5.85-1.75,7.2-4.47l13.38-26.89c.61-1.21.54-2.62-.17-3.77Z" fill="#a5d6a7"/>
      </g>
    </g>
  </g>
</svg>