<?xml version="1.0" encoding="UTF-8"?>
<svg id="Layer_2" data-name="Layer 2" xmlns="http://www.w3.org/2000/svg" viewBox="0 0 1021.46 1021.46">
  <defs>
    <style>
      .cls-1 {
        fill: #727272;
      }

      .cls-2 {
        fill: #7c7c7c;
      }

      .cls-3 {
        fill: #898989;
      }

      .cls-4 {
        fill: #6d6d6d;
      }

      .cls-5 {
        fill: #5b5b5b;
      }
    </style>
  </defs>
  <g id="Layer_2-2" data-name="Layer 2">
    <g>
      <path class="cls-5" d="m907.5,0H113.96C51.02,0,0,51.02,0,113.96v793.54c0,62.94,51.02,113.96,113.96,113.96h793.54c62.94,0,113.96-51.02,113.96-113.96V113.96c0-62.94-51.02-113.96-113.96-113.96Zm-145.76,589.87l-2.92-73.6c-.3-7.47,5.55-13.76,13.02-14.01l139.84-4.67c7.27-.24,13.42,5.32,13.91,12.58l5.24,78.27c.52,7.79-5.65,14.39-13.46,14.39h-142.17c-7.24,0-13.19-5.72-13.47-12.95Zm-210.22-159.29l-85.31-57.55c-7.26-4.74-11.54-12.9-11.33-21.57l4.16-170.88c.23-9.44,12.17-13.4,17.99-5.96l84.47,107.93c3.53,4.51,5.45,10.07,5.45,15.8l-2.47,125.5c-.22,6.52-7.49,10.29-12.95,6.72Zm-205.52,195.47l-58.75-1.05c-2.14-.04-3.5-2.32-2.51-4.22l13.48-25.91c1.21-2.33,3.62-3.79,6.25-3.79h58.75c2.14,0,3.54,2.25,2.58,4.17l-13.38,26.89c-1.21,2.44-3.72,3.96-6.44,3.91ZM149.82,209.01l278.8-51.42c9.66-1.78,18.5,5.77,18.27,15.59l-4.29,175.14c-.24,9.99-7.89,18.24-17.84,19.24l-162.54,15.98c-3.48.35-6.99-.12-10.26-1.36l-121.25-44.91c-3.39-1.29-5.53-4.66-5.24-8.28l6.66-100.36c.78-9.79,8.04-17.84,17.69-19.62Zm75.1,251.54l-6.56,125.35-194.76-5.87,14.16-165.76,187.16,46.28Zm120.34,279.58l-17.86,4.7-38.22-3.16c-1.36-.11-2.38-1.29-2.31-2.65l.27-4.98,5.04-93.32,19.42-2.59,38.59,2.59-3.05,97.05h0c-.04,1.12-.8,2.07-1.88,2.36Zm284.24-35.42c.04,4.83.07,8.84.1,11.81.02,3.14-2.6,5.65-5.74,5.49l-68.18-3.39c-2.24-.11-4-1.95-4.02-4.19l-.09-12.22h0s-1.18-159.65-1.18-159.65c0,0,1.54-.06,4.19-.15,12.53-.46,50.37-1.22,65.93-1.53,3.75-.07,6.84,2.91,6.9,6.66m202.41,211.03v88.43c-.6,7.34-22.35,15.47-48.58,13.34-26.23-2.14-46.01-6.13-45.41-13.47l-.05-91.51c-44.43-4.93-75.42-14.09-75.11-23.58.41-12.65,56.25-21.11,124.72-18.89,68.48,2.23,123.65,14.29,123.24,26.94-.32,9.66-32.93,16.86-78.81,18.74Z"/>
      <path class="cls-1" d="m77.7,326.48c-27.89-10.65-57.32-3.87-77.7,13.91v445.14l237.36-54.59,20.71-335.66-180.37-68.8Zm129.95,259.1l-172.48-5.2c-6.28-.19-11.12-5.62-10.59-11.88l12.08-141.44c.57-6.71,7.01-11.32,13.55-9.7l165.92,41.03c5.1,1.26,8.58,5.96,8.31,11.21l-5.53,105.61c-.31,5.95-5.32,10.56-11.27,10.38Z"/>
      <path class="cls-2" d="m258.07,395.28l-20.71,335.66,49.78,3.1,4.51-83.51c.31-5.69,4.62-10.36,10.27-11.11l9.68-1.29,27.18,1.82c6.37.43,11.26,5.82,11.05,12.2l-2.69,85.62,95.34,5.94.03-1.43.02-1.05.05-2.35.03-1.05v-.71s.04-1.31.04-1.31l.03-1.43.03-1.53.04-1.65h0s.14-6.55.14-6.55l.02-1.03.02-1.06.05-2.19.05-2.29.05-2.37.05-2.47.03-1.26.03-1.29c.01-.86.03-1.74.05-2.63l.06-2.72.06-2.8.06-2.87c.02-.97.04-1.96.07-2.95l.03-1.51.03-1.52c.02-1.02.05-2.06.07-3.1l.07-3.17.1-4.88c.03-1.65.07-3.32.11-5.02.03-1.7.07-3.42.11-5.17.07-3.49.15-7.06.23-10.72l.24-11.18c.06-2.54.11-5.1.17-7.69l.17-7.86c.06-2.65.11-5.32.17-8.01l.09-4.05.63-29.14.09-4.25c.06-2.83.12-5.68.19-8.53l.09-4.29.28-12.89.09-4.3.19-8.6.09-4.3.28-12.84.27-12.73.45-20.81.18-8.13.09-4.01c.05-2.67.11-5.31.17-7.92l.15-7.04.42-19.32c.05-2.39.1-4.74.15-7.05v-.02c.05-2.32.1-4.59.15-6.83l.14-6.58.07-3.19.06-2.82.07-3.35.06-2.78.04-1.66.21-9.8.05-2.45.11-4.89c.01-.79.03-1.56.05-2.31l.09-4.35.04-1.8.11-5.05.03-1.49.02-.8.03-1.42.06-2.79.03-1.05.06-2.98.02-1.01.03-1.33-192.35,19.34Zm87.93,230.77l-58.75-1.05c-2.14-.04-3.5-2.32-2.51-4.22l13.48-25.91c1.21-2.33,3.62-3.79,6.25-3.79h58.75c2.14,0,3.54,2.25,2.58,4.17l-13.38,26.89c-1.21,2.44-3.72,3.96-6.44,3.91Z"/>
      <path class="cls-1" d="m554.58,542.41h0c-2.33.08-4.18,2-4.16,4.33l1.15,155.46h0s-109.09,41.51-109.09,41.51l.03-1.43.02-1.05.05-2.35.03-1.05v-.71s.04-1.31.04-1.31l.03-1.43.03-1.53.04-1.65h0s.14-6.55.14-6.55l.02-1.03.02-1.06.05-2.19.05-2.29.05-2.37.05-2.47.03-1.26.03-1.29.11-5.35.06-2.8.13-5.82.03-1.51.1-4.62.07-3.17.96-44.66.17-7.86.26-12.06.63-29.14.28-12.78.09-4.29.28-12.89.09-4.3.19-8.6.09-4.3.28-12.84.27-12.73.45-20.81.18-8.13.09-4.01.17-7.92.15-7.04.42-19.32c.05-2.39.1-4.74.15-7.05v-.02c.05-2.32.1-4.59.15-6.83l.14-6.58.07-3.19.06-2.82.07-3.35.06-2.78.04-1.66.21-9.8.05-2.45.11-4.89.05-2.31.09-4.35.04-1.8.11-5.05.03-1.49.02-.8.03-1.42.06-2.79.03-1.05.06-2.98.02-1.01.03-1.33,106.01,68.38-1.85,98.09Z"/>
      <path class="cls-4" d="m629.5,704.71l343.39,11.03-20.71-297.32-395.75,25.9-1.85,98.09c12.53-.46,50.37-1.22,65.93-1.53,3.75-.07,6.84,2.91,6.9,6.66l2.09,157.16Zm132.24-114.84l-2.92-73.6c-.3-7.47,5.55-13.76,13.02-14.01l139.84-4.67c7.27-.24,13.42,5.32,13.91,12.58l5.24,78.27c.52,7.79-5.65,14.39-13.46,14.39h-142.17c-7.24,0-13.19-5.72-13.47-12.95Z"/>
      <polygon class="cls-2" points="1021.46 385.68 1021.46 728.86 972.89 715.74 952.18 418.42 1021.46 385.68"/>
      <path class="cls-3" d="m804.95,759.07l-1.11,103.42c-6.77.47-14.47,1.84-22.6,1.18-13.2-1.08-25.03-1.49-33.44-4.62v-102.49c11.41,1.02,23.54,1.76,36.11,2.16,7.17.24,14.2.35,21.04.35Z"/>
      <path class="cls-1" d="m829.82,758.58v90.63c-.41,5.06-10.9,12.25-25.98,13.28l1.11-103.42c8.62.01,16.94-.16,24.87-.49Z"/>
      <path class="cls-2" d="m747.8,756.56v102.49c-8.3-3.1-12.27-7.76-11.97-11.4l-.05-92.28c3.91.43,7.92.83,12.02,1.19Z"/>
      <path class="cls-3" d="m347.76,640.56c1.36.09,2.39,1.24,2.35,2.6l-2.97,94.62h0c-.04,1.12-.8,2.07-1.88,2.36l-17.44,4.59c-.28.07-.56.1-.85.07l-37.79-3.12c-1.36-.11-2.38-1.29-2.31-2.65l.27-4.98,4.93-91.23c.07-1.21.98-2.2,2.19-2.36l17.1-2.28c.17-.02.33-.03.5-.02l35.91,2.41Z"/>
    </g>
  </g>
</svg>