<?xml version="1.0" encoding="UTF-8"?>
<svg id="Layer_2" data-name="Layer 2" xmlns="http://www.w3.org/2000/svg" viewBox="0 0 1021.46 1021.46">
  <defs>
    <style>
      .cls-1 {
        fill: #fff;
      }

      .cls-2 {
        fill: #81d4fa;
      }

      .cls-3 {
        fill: #a5d6a7;
      }

      .cls-4 {
        fill: #ce93d8;
      }
    </style>
  </defs>
  <g id="Layer_2-2" data-name="Layer 2">
    <g>
      <g>
        <path class="cls-1" d="m907.5,0H113.96C51.02,0,0,51.02,0,113.96v793.54c0,62.94,51.02,113.96,113.96,113.96h793.54c62.94,0,113.96-51.02,113.96-113.96V113.96c0-62.94-51.02-113.96-113.96-113.96Zm-448.48,180.58c.23-9.44,12.17-13.39,17.99-5.96l84.47,107.94c3.53,4.51,5.45,10.07,5.45,15.8l-2.47,125.5c-.22,6.52-7.49,10.29-12.95,6.72l-85.31-57.55c-7.26-4.74-11.54-12.9-11.33-21.57l4.15-170.88ZM125.47,328.98l6.66-100.35c.78-9.79,8.03-17.84,17.69-19.62l278.8-51.42c9.65-1.78,18.5,5.77,18.26,15.59l-4.29,175.14c-.24,9.99-7.89,18.24-17.83,19.23l-162.54,15.99c-3.48.35-7-.12-10.27-1.36l-121.24-44.91c-3.39-1.29-5.53-4.67-5.24-8.29Zm219.79,411.15l-17.44,4.59s-.02,0-.03.01l-.39.1-.43-.04-37.79-3.12c-1.36-.11-2.38-1.28-2.31-2.65l.27-4.98,2.71-50.11,1.8-33.4h0s.41-7.72.41-7.72l-2.22,41.12H36.54c-6.6,0-12-5.4-12-12v-91.87l-.94-.03.94-10.94v-150.8c0-6.6,5.4-12,12-12h377.01c6.6,0,12,5.4,12,12v253.64c0,6.6-5.4,12-12,12h-64.72l-1.69,53.84c-.04,1.12-.8,2.07-1.88,2.36Zm664.46,52.32c0,6.6-5.4,12-12,12h-167.9v42.56c-.41,5.06-10.89,10.5-25.95,12.69-6.78.98-14.49,1.31-22.63.65-13.48-1.1-25.26-2.69-33.44-4.97-7.26-2.02-11.68-4.59-11.97-7.85-.02-.21-.02-.36,0-.58l-.02-42.5h-215.92c-6.6,0-12-5.4-12-12v-308.62c0-6.6,5.4-12,12-12h436.01l16.99,243.91,36.83,9.95v66.76Z"/>
        <path class="cls-2" d="m908.63,739.84c-.32,9.66-32.93,16.86-78.81,18.74-7.93.33-16.25.5-24.87.49-6.84,0-13.87-.11-21.04-.35-12.57-.4-24.7-1.14-36.11-2.16-4.1-.36-8.11-.76-12.02-1.19-44.43-4.93-75.42-14.09-75.11-23.58.41-12.65,56.25-21.11,124.72-18.89,68.48,2.23,123.65,14.29,123.24,26.94Z"/>
        <path class="cls-1" d="m629.59,716.52c.03,3.14-2.6,5.65-5.73,5.49l-68.18-3.39c-2.24-.11-4.01-1.95-4.02-4.19l-.09-12.22h0s-1.15-155.47-1.15-155.47v-.05c.01-2.31,1.84-4.2,4.16-4.28,12.53-.46,50.37-1.22,65.93-1.53,3.75-.07,6.84,2.91,6.9,6.67l2.09,157.16c.04,4.83.07,8.84.09,11.81Z"/>
        <path class="cls-1" d="m36.54,406.29h220.85l.68-11.01-180.37-68.8c-27.89-10.65-57.32-3.87-77.7,13.91v445.14l237.36-54.59,2.9-47.01H36.54c-6.6,0-12-5.4-12-12v-102.48c0-.16,0-.32.01-.48v.12s-.01-150.8-.01-150.8c0-6.6,5.4-12,12-12Z"/>
        <path class="cls-1" d="m224.44,469.59l-5.49,105.12-.03.49c-.3,5.82-5.1,10.36-10.88,10.39-.13,0-.26-.01-.39-.01l-172.48-5.2h-.05c-2.42-.08-4.62-.94-6.38-2.32-.27-.21-.53-.43-.78-.67-2.11-2.01-3.42-4.85-3.42-7.94,0-.16,0-.32.01-.48.01-.16.02-.31.03-.47l12.09-141.45c.57-6.71,7-11.32,13.54-9.7l165.92,41.03c5.1,1.26,8.59,5.96,8.31,11.21Z"/>
        <path class="cls-1" d="m294.25,640.44s-.03,0-.05.01l-2.02.27-.11,2s-.01.06-.01.09l-2.22,41.12h-49.58l-2.9,47.01,49.78,3.1,2.71-50.11,1.8-33.4h0c.3-5.64,4.54-10.27,10.11-11.09l-7.51,1Zm53.51.12l-8.41-.56c5.95.69,10.47,5.74,10.49,11.75l.27-8.6v-.08l.08-2.35-2.43-.16Zm-55.58.16l-.11,2c.11-1.15.98-2.1,2.13-2.27l-2.02.27Zm55.58-.16c1.32.09,2.35,1.2,2.35,2.51l.08-2.35-2.43-.16Zm-55.58.16l-.11,2c.11-1.15.98-2.1,2.13-2.27l-2.02.27Zm55.58-.16c1.32.09,2.35,1.2,2.35,2.51l.08-2.35-2.43-.16Zm-89.69-245.28l-.68,11.01h156.16c6.6,0,12,5.4,12,12v253.64c0,6.6-5.4,12-12,12h-64.72l-1.69,53.84,95.34,5.94.03-1.43.02-1.05.05-2.35.03-1.05v-.71s.04-1.31.04-1.31l.03-1.43.03-1.53.04-1.65h0s.14-6.55.14-6.55l.02-1.03.02-1.06.05-2.19.05-2.29.05-2.37.05-2.47.03-1.26.03-1.29.05-2.63.06-2.72.06-2.8.06-2.87.07-2.95.03-1.51.03-1.52.07-3.1.07-3.17.1-4.88.11-5.02.11-5.17.11-5.3.12-5.42.24-11.18.17-7.69.17-7.86.17-8.01.09-4.05.63-29.14.09-4.25.19-8.53.09-4.29.28-12.89.09-4.3.19-8.6.09-4.3.28-12.84.27-12.73.45-20.81.18-8.13.09-4.01c.05-2.67.11-5.31.17-7.92l.15-7.04.42-19.32c.05-2.39.1-4.74.15-7.05v-.02c.05-2.32.1-4.59.15-6.83l.14-6.58.07-3.19.06-2.82.07-3.35.06-2.78.04-1.66.21-9.8.05-2.45.11-4.89c.01-.79.03-1.56.05-2.31l.09-4.35.04-1.8.11-5.05.03-1.49.02-.8.03-1.42.06-2.79.03-1.05.06-2.98.02-1.01.03-1.33-192.35,19.34Zm92.04,247.79l.08-2.35-2.43-.16c1.32.09,2.35,1.2,2.35,2.51Zm-58.04-.35c.11-1.15.98-2.1,2.13-2.27l-2.02.27-.11,2Zm55.69-2.16c1.32.09,2.35,1.2,2.35,2.51l.08-2.35-2.43-.16Zm-55.58.16l-.11,2c.11-1.15.98-2.1,2.13-2.27l-2.02.27Zm55.58-.16c1.32.09,2.35,1.2,2.35,2.51l.08-2.35-2.43-.16Zm-55.58.16l-.11,2c.11-1.15.98-2.1,2.13-2.27l-2.02.27Z"/>
        <path class="cls-1" d="m365.81,595.25l-13.38,26.89c-1.21,2.44-3.72,3.96-6.43,3.91l-58.75-1.05c-2.14-.04-3.5-2.31-2.51-4.22l13.48-25.91c1.22-2.33,3.63-3.79,6.26-3.79h58.75c2.14,0,3.54,2.25,2.58,4.17Z"/>
        <path class="cls-1" d="m556.43,444.32l-.52,27.51h-36.02c-6.6,0-12,5.4-12,12v235l-65.41,24.88.03-1.43.02-1.05.05-2.35.03-1.05v-.71s.04-1.31.04-1.31l.03-1.43.03-1.53.04-1.65h0s.14-6.55.14-6.55l.02-1.03.02-1.06.05-2.19.05-2.29.05-2.37.05-2.47.03-1.26.03-1.29.05-2.63.06-2.72.06-2.8.06-2.87.07-2.95.03-1.51.03-1.52.07-3.1.07-3.17.1-4.88.11-5.02.11-5.17.11-5.3.12-5.42.24-11.18.17-7.69.17-7.86.17-8.01.09-4.05.63-29.14.09-4.25.19-8.53.09-4.29.28-12.89.09-4.3.19-8.6.09-4.3.28-12.84.27-12.73.45-20.81.18-8.13.09-4.01.17-7.92.15-7.04.42-19.32c.05-2.39.1-4.74.15-7.05v-.02c.05-2.32.1-4.59.15-6.83l.14-6.58.07-3.19.06-2.82.07-3.35.06-2.78.04-1.66.21-9.8.05-2.45.11-4.89.05-2.31.09-4.35.04-1.8.11-5.05.03-1.49.02-.8.03-1.42.06-2.79.03-1.05.06-2.98.02-1.01.03-1.33,106.01,68.38Z"/>
        <path class="cls-1" d="m952.18,418.42l-395.75,25.9-.52,27.51h399.99l-3.72-53.41Z"/>
        <path class="cls-1" d="m917.38,602.82h-142.17c-7.24,0-13.19-5.72-13.48-12.95l-2.91-73.6c-.3-7.48,5.54-13.76,13.02-14.01l139.84-4.67c7.27-.25,13.42,5.32,13.91,12.57l5.24,78.27c.53,7.79-5.65,14.39-13.45,14.39Z"/>
        <polygon class="cls-1" points="1021.46 385.68 1021.46 728.86 1009.72 725.69 972.89 715.74 955.9 471.83 952.18 418.42 1021.46 385.68"/>
        <path class="cls-1" d="m804.95,759.07l-.49,45.38-.59,55.25-.03,2.79c-6.77.47-14.47,1.84-22.6,1.18-13.2-1.08-25.03-1.49-33.44-4.62v-102.49c11.41,1.02,23.54,1.76,36.11,2.16,7.17.24,14.2.35,21.04.35Z"/>
        <path class="cls-1" d="m829.82,758.58v90.63c-.41,5.06-10.9,12.25-25.98,13.28l.03-2.79.59-55.25.49-45.38c8.62.01,16.94-.16,24.87-.49Z"/>
        <path class="cls-1" d="m747.8,756.56v102.49c-8.3-3.1-12.27-7.76-11.97-11.4v-.7l-.02-42.5-.03-49.08c3.91.43,7.92.83,12.02,1.19Z"/>
        <path class="cls-1" d="m350.11,643.07v.08l-.27,8.6-1.01,32.18-1.69,53.84c-.04,1.12-.8,2.07-1.88,2.36l-17.44,4.59s-.02,0-.03.01c-.27.06-.55.09-.82.06l-37.79-3.12c-1.36-.11-2.38-1.28-2.31-2.65l.27-4.98,2.7-50.11,2.22-41.12s0-.06.01-.09c.11-1.15.98-2.1,2.13-2.27.02-.01.03-.01.05-.01l7.51-1,9.59-1.28s.06-.01.09-.01c.13-.01.27-.01.41,0l27,1.81.5.04,8.41.56c1.32.09,2.35,1.2,2.35,2.51Z"/>
      </g>
      <path class="cls-2" d="m761.73,589.87l-2.91-73.6c-.3-7.48,5.54-13.76,13.02-14.01l139.84-4.67c7.27-.25,13.42,5.32,13.91,12.57l5.24,78.27c.53,7.79-5.65,14.39-13.45,14.39h-142.17c-7.24,0-13.19-5.72-13.48-12.95Z"/>
      <path class="cls-2" d="m629.59,716.52c.03,3.14-2.6,5.65-5.73,5.49l-68.18-3.39c-2.24-.11-4.01-1.95-4.02-4.19l-.09-12.22h0s-1.15-155.47-1.15-155.47v-.05c.01-2.31,1.84-4.2,4.16-4.28,12.53-.46,50.37-1.22,65.93-1.53,3.75-.07,6.84,2.91,6.9,6.67l2.09,157.16c.04,4.83.07,8.84.09,11.81Z"/>
      <path class="cls-4" d="m446.88,173.18l-4.29,175.14c-.24,9.99-7.89,18.24-17.83,19.23l-162.54,15.99c-3.48.35-7-.12-10.27-1.36l-121.24-44.91c-3.39-1.29-5.53-4.67-5.24-8.29l6.66-100.35c.78-9.79,8.03-17.84,17.69-19.62l278.8-51.42c9.65-1.78,18.5,5.77,18.26,15.59Z"/>
      <path class="cls-4" d="m566.93,298.36l-2.47,125.5c-.22,6.52-7.49,10.29-12.95,6.72l-85.31-57.55c-7.26-4.74-11.54-12.9-11.33-21.57l4.15-170.88c.23-9.44,12.17-13.39,17.99-5.96l84.47,107.94c3.53,4.51,5.45,10.07,5.45,15.8Z"/>
      <path class="cls-3" d="m224.44,469.59l-5.49,105.12-.03.49c-.3,5.82-5.1,10.36-10.88,10.39-.13,0-.26-.01-.39-.01l-172.48-5.2h-.05c-2.42-.08-4.62-.94-6.38-2.32-.27-.21-.53-.43-.78-.67-2.11-2.01-3.42-4.85-3.42-7.94v-.48c.02-.16.03-.31.04-.47l12.09-141.45c.57-6.71,7-11.32,13.54-9.7l165.92,41.03c5.1,1.26,8.59,5.96,8.31,11.21Z"/>
      <path class="cls-3" d="m365.81,595.25l-13.38,26.89c-1.21,2.44-3.72,3.96-6.43,3.91l-58.75-1.05c-2.14-.04-3.5-2.31-2.51-4.22l13.48-25.91c1.22-2.33,3.63-3.79,6.26-3.79h58.75c2.14,0,3.54,2.25,2.58,4.17Z"/>
    </g>
  </g>
</svg>