<?xml version="1.0" encoding="utf-8"?>
<!-- Generator: Adobe Illustrator 27.5.0, SVG Export Plug-In . SVG Version: 6.00 Build 0)  -->
<svg version="1.1" id="Layer_2_00000144310847350836324690000001527854548906079388_"
	 xmlns="http://www.w3.org/2000/svg" xmlns:xlink="http://www.w3.org/1999/xlink" x="0px" y="0px" viewBox="0 0 1021.5 1021.5"
	 style="enable-background:new 0 0 1021.5 1021.5;" xml:space="preserve">
<style type="text/css">
	.st0{fill:#5B5B5B;}
	.st1{fill:#727272;}
	.st2{fill:#7C7C7C;}
	.st3{fill:#6D6D6D;}
	.st4{fill:#898989;}
	.st5{fill:none;}
	.st6{fill:#FFFFFF;}
</style>
<g>
	<g id="Layer_2-2">
		<g>
			<path class="st0" d="M972.9,715.7l-343.4-11c0,4.8,0.1,8.8,0.1,11.8c0,3.1-2.6,5.6-5.7,5.5l-68.2-3.4c-2.2-0.1-4-2-4-4.2
				l-0.1-12.2l-109.1,41.5l-95.3-5.9c0,1.1-0.8,2.1-1.9,2.4l-17.4,4.6c0,0,0,0,0,0l-0.4,0.1l-0.4,0l-37.8-3.1
				c-1.4-0.1-2.4-1.3-2.3-2.6l0.3-5l-49.8-3.1L0,785.5v235.9h1021.5V728.9L972.9,715.7z M785.4,712.9
				c68.5,2.2,123.6,14.3,123.2,26.9c-0.3,9.7-32.9,16.9-78.8,18.7v90.6c-0.4,5.1-10.9,12.2-26,13.3c-6.8,0.5-14.5,1.8-22.6,1.2
				c-13.2-1.1-25-1.5-33.4-4.6c-8.3-3.1-12.3-7.8-12-11.4v-0.1c0-0.2,0-0.4,0-0.6l0-91.5c-44.4-4.9-75.4-14.1-75.1-23.6
				C661.1,719.1,716.9,710.7,785.4,712.9z"/>
			<g>
				<path class="st0" d="M952.2,418.4l-395.8,25.9l-106-68.4l-192.3,19.3L77.7,326.5c-27.9-10.6-57.3-3.9-77.7,13.9v445.1
					l237.4-54.6l49.8,3.1l4.5-83.6l0.4-7.6l0.1-2.1l2-0.3c0,0,0,0,0,0l7.6-1h0l9.4-1.3c0,0,0.1,0,0.1,0l0.2,0l0.2,0L339,640l0.4,0
					l8.4,0.6l2.4,0.2l-0.1,2.3v0.1l-0.3,8.6c0,0.1,0,0.2,0,0.4l-2.7,85.6l95.3,5.9l109.1-41.5v0l-1.2-155.5v0l0-4.2
					c0,0,1.5-0.1,4.2-0.2c12.5-0.5,50.4-1.2,65.9-1.5c3.8-0.1,6.8,2.9,6.9,6.7l2.1,157.2l343.4,11l48.6,13.1V385.7L952.2,418.4z
					 M224.5,469.5L224.5,469.5l-5.5,105.7l-0.6,10.7l-10.3-0.3c-0.1,0-0.3,0-0.4,0l-172.5-5.2h0L23.6,580l1-11.5L36.7,427l1.1-12.8
					l12.4,3.1c0,0,0,0,0,0l165.9,41l8.8,2.2L224.5,469.5z M365.8,595.2l-13.4,26.9c-1.2,2.4-3.7,4-6.4,3.9l-58.8-1
					c-2.1,0-3.5-2.3-2.5-4.2l13.5-25.9c1.2-2.3,3.6-3.8,6.2-3.8h58.8C365.4,591.1,366.8,593.3,365.8,595.2z M917.4,602.8H775.2
					c-7.2,0-13.2-5.7-13.5-13l-2.9-73.6c-0.3-7.5,5.5-13.8,13-14l139.8-4.7c7.3-0.2,13.4,5.3,13.9,12.6l5.2,78.3
					C931.4,596.2,925.2,602.8,917.4,602.8z M803.9,859.7c-6.8,1-14.5,1.3-22.6,0.6c-13.5-1.1-25.3-2.7-33.4-5
					c-7.3-2-11.7-4.6-12-7.8v0.1c-0.3,3.6,3.7,8.3,12,11.4c8.4,3.1,20.2,3.5,33.4,4.6c8.1,0.7,15.8-0.7,22.6-1.2
					c15.1-1,25.6-8.2,26-13.3V847C829.4,852.1,818.9,857.5,803.9,859.7z"/>
				<path class="st1" d="M77.7,326.5c-27.9-10.6-57.3-3.9-77.7,13.9v445.1l237.4-54.6l20.7-335.7L77.7,326.5z M224.5,469.6
					l-5.5,105.6c-0.3,5.8-5.1,10.4-10.9,10.4c-0.1,0-0.3,0-0.4,0l-172.5-5.2h0c-6.3-0.2-11.1-5.6-10.5-11.9L36.7,427
					c0.6-6.7,7-11.3,13.5-9.7c0,0,0,0,0,0l165.9,41C221.2,459.6,224.7,464.3,224.5,469.6L224.5,469.6z"/>
				<path class="st2" d="M258.1,395.3l-20.7,335.7l49.8,3.1l4.5-83.6c0.4-5.6,4.6-10.2,10.2-11h0l9.4-1.3c0,0,0.1,0,0.1,0l0.2,0
					l0.2,0L339,640l0.4,0c6,0.7,10.5,5.8,10.5,11.8c0,0.1,0,0.2,0,0.4l-2.7,85.6l95.3,5.9l0-1.4l0-1.1l0-2.3l0-1v-0.7l0-1.3l0-1.4
					l0-1.5l0-1.6l0.1-6.5l0-1l0-1.1l0-2.2l0.1-2.3l0-2.4l0-2.5l0-1.3l0-1.3l0-2.6l0.1-2.7l0.1-2.8l0.1-2.9l0.1-3l0-1.5l0-1.5
					l0.1-3.1l0.1-3.2l0.1-4.9l0.1-5l0.1-5.2l0.1-5.3l0.1-5.4l0.2-11.2l0.2-7.7l0.2-7.9l0.2-8l0.1-4l0.6-29.1l0.1-4.2l0.2-8.5
					l0.1-4.3l0.3-12.9l0.1-4.3l0.2-8.6l0.1-4.3l0.3-12.8l0.3-12.7l0.4-20.8l0.2-8.1l0.1-4c0-2.7,0.1-5.3,0.2-7.9l0.2-7l0.4-19.3
					c0-2.4,0.1-4.7,0.2-7v0c0-2.3,0.1-4.6,0.1-6.8l0.1-6.6l0.1-3.2l0.1-2.8l0.1-3.3l0.1-2.8l0-1.7l0.2-9.8l0-2.4l0.1-4.9
					c0-0.8,0-1.6,0.1-2.3l0.1-4.4l0-1.8l0.1-5l0-1.5l0-0.8l0-1.4l0.1-2.8l0-1l0.1-3l0-1l0-1.3L258.1,395.3z M365.8,595.2l-13.4,26.9
					c-1.2,2.4-3.7,4-6.4,3.9l-58.8-1c-2.1,0-3.5-2.3-2.5-4.2l13.5-25.9c1.2-2.3,3.6-3.8,6.2-3.8h58.8
					C365.4,591.1,366.8,593.3,365.8,595.2z"/>
				<path class="st1" d="M556.4,444.3l-1.8,98.1c-2.3,0.1-4.2,2-4.2,4.3v0l1.2,155.5l0,0l-109.1,41.5l0-1.4l0-1l0-2.3l0-1v-0.7
					l0-1.3l0-1.4l0-1.5l0-1.7l0,0l0.1-6.5l0-1l0-1.1l0-2.2l0-2.3l0-2.4l0-2.5l0-1.3l0-1.3l0-2.6l0.1-2.7l0.1-2.8l0.1-2.9l0.1-3
					l0-1.5l0-1.5l0.1-3.1l0.1-3.2l0.1-4.9l0.1-5l0.1-5.2l0.1-5.3l0.1-5.4l0.2-11.2l0.2-7.7l0.2-7.9l0.2-8l0.1-4l0.6-29.1l0.1-4.2
					l0.2-8.5l0.1-4.3l0.3-12.9l0.1-4.3l0.2-8.6l0.1-4.3l0.3-12.8l0.3-12.7l0.5-20.8l0.2-8.1l0.1-4l0.2-7.9l0.1-7l0.4-19.3
					c0-2.4,0.1-4.7,0.1-7v0c0-2.3,0.1-4.6,0.1-6.8l0.1-6.6l0.1-3.2l0.1-2.8l0.1-3.4l0.1-2.8l0-1.7l0.2-9.8l0-2.5l0.1-4.9l0-2.3
					l0.1-4.4l0-1.8l0.1-5l0-1.5l0-0.8l0-1.4l0.1-2.8l0-1l0.1-3l0-1l0-1.3L556.4,444.3L556.4,444.3z"/>
				<path class="st3" d="M952.2,418.4l-395.8,25.9l-1.8,98.1c12.5-0.5,50.4-1.2,65.9-1.5c3.8-0.1,6.8,2.9,6.9,6.7l2.1,157.2
					l343.4,11L952.2,418.4z M917.4,602.8H775.2c-7.2,0-13.2-5.7-13.5-13l-2.9-73.6c-0.3-7.5,5.5-13.8,13-14l139.8-4.7
					c7.3-0.2,13.4,5.3,13.9,12.6l5.2,78.3C931.4,596.2,925.2,602.8,917.4,602.8z"/>
				<polygon class="st2" points="1021.5,385.7 1021.5,728.9 972.9,715.7 952.2,418.4 				"/>
				<path class="st4" d="M805,759.1l-1.1,100.6l0,2.8c-6.8,0.5-14.5,1.8-22.6,1.2c-13.2-1.1-25-1.5-33.4-4.6V756.6
					c11.4,1,23.5,1.8,36.1,2.2C791.1,759,798.1,759.1,805,759.1z"/>
				<path class="st1" d="M829.8,758.6v90.6c-0.4,5.1-10.9,12.2-26,13.3l0-2.8l1.1-100.6C813.6,759.1,821.9,758.9,829.8,758.6z"/>
				<path class="st2" d="M747.8,756.6V859c-8.3-3.1-12.3-7.8-12-11.4v-0.7l0-91.5C739.7,755.8,743.7,756.2,747.8,756.6z"/>
				<path class="st4" d="M350.1,643v0.1l-3,94.6c0,1.1-0.8,2.1-1.9,2.4l-17.4,4.6c0,0,0,0,0,0c-0.3,0.1-0.5,0.1-0.8,0.1l-37.8-3.1
					c-1.4-0.1-2.4-1.3-2.3-2.6l0.3-5l4.5-83.6l0.4-7.6c0.1-1.2,1-2.2,2.1-2.4c0,0,0,0,0,0l7.6-1h0l9.4-1.3c0,0,0.1,0,0.1,0
					c0.1,0,0.3,0,0.4,0L339,640l0.4,0l8.4,0.6C349.1,640.7,350.1,641.7,350.1,643z"/>
			</g>
		</g>
	</g>
	<path class="st0" d="M0,0v340.4c20.4-17.8,49.8-24.6,77.7-13.9l180.4,68.8l192.3-19.3l106,68.4l395.8-25.9l69.3-32.7V0H0z
		 M442.6,348.3c-0.2,10-7.9,18.2-17.8,19.2l-162.5,16c-3.5,0.4-7-0.1-10.3-1.4l-121.2-44.9c-3.4-1.3-5.5-4.7-5.2-8.3l6.7-100.3
		c0.8-9.8,8-17.8,17.7-19.6l278.8-51.4c9.7-1.8,18.5,5.8,18.3,15.6L442.6,348.3z M564.5,423.9c-0.2,6.5-7.5,10.3-12.9,6.7L466.2,373
		c-7.2-4.7-11.5-12.9-11.3-21.6l4.2-170.9c0.2-9.4,12.2-13.4,18-6l84.5,107.9c3.5,4.5,5.5,10.1,5.5,15.8L564.5,423.9z"/>
</g>
<g>
	<path class="st5" d="M1916,0v1021.5h1021.5V0H1916z M2140.4,469.5L2140.4,469.5l-5.5,105.7c-0.3,5.8-5.1,10.4-10.9,10.4
		c-0.1,0-0.3,0-0.4,0l-172.5-5.2h0c-6.3-0.2-11.1-5.6-10.5-11.9l12.1-141.5c0.6-6.7,7-11.3,13.5-9.7c0,0,0,0,0,0l165.9,41
		C2137.2,459.6,2140.6,464.3,2140.4,469.5z M2227.4,638.2l0.2,0l0.2,0C2227.7,638.1,2227.5,638.1,2227.4,638.2z M2243.4,744.8
		l-0.4,0c0.3,0,0.5,0,0.8-0.1L2243.4,744.8z M2281.8,595.2l-13.4,26.9c-1.2,2.4-3.7,4-6.4,3.9l-58.8-1c-2.1,0-3.5-2.3-2.5-4.2
		l13.5-25.9c1.2-2.3,3.6-3.8,6.2-3.8h58.8C2281.3,591.1,2282.7,593.3,2281.8,595.2z M2358.6,348.3c-0.2,10-7.9,18.2-17.8,19.2
		l-162.5,16c-3.5,0.4-7-0.1-10.3-1.4l-121.2-44.9c-3.4-1.3-5.5-4.7-5.2-8.3l6.7-100.3c0.8-9.8,8-17.8,17.7-19.6l278.8-51.4
		c9.7-1.8,18.5,5.8,18.3,15.6L2358.6,348.3z M2370.8,351.5l4.2-170.9c0.2-9.4,12.2-13.4,18-6l84.5,107.9c3.5,4.5,5.5,10.1,5.5,15.8
		l-2.5,125.5c-0.2,6.5-7.5,10.3-12.9,6.7l-85.3-57.5C2374.9,368.3,2370.6,360.1,2370.8,351.5z M2539.8,722l-68.2-3.4
		c-2.2-0.1-4-2-4-4.2l-0.1-12.2v0l-1.2-155.5v0c0-2.3,1.8-4.2,4.2-4.3c12.5-0.5,50.4-1.2,65.9-1.5c3.8-0.1,6.8,2.9,6.9,6.7
		l2.1,157.2c0,4.8,0.1,8.8,0.1,11.8C2545.6,719.7,2543,722.2,2539.8,722z M2651.8,847.5c0-0.2,0-0.4,0-0.6V847.5z M2745.8,758.6
		c-7.9,0.3-16.2,0.5-24.9,0.5c-6.8,0-13.9-0.1-21-0.4c-12.6-0.4-24.7-1.1-36.1-2.2c-4.1-0.4-8.1-0.8-12-1.2
		c-44.4-4.9-75.4-14.1-75.1-23.6c0.4-12.6,56.2-21.1,124.7-18.9c68.5,2.2,123.6,14.3,123.2,26.9
		C2824.3,749.5,2791.7,756.7,2745.8,758.6z M2833.3,602.8h-142.2c-7.2,0-13.2-5.7-13.5-13l-2.9-73.6c-0.3-7.5,5.6-13.8,13-14
		l139.8-4.7c7.3-0.2,13.4,5.3,13.9,12.6l5.2,78.3C2847.3,596.2,2841.1,602.8,2833.3,602.8z"/>
	<g>
		<path class="st6" d="M2824.6,739.8c-0.3,9.7-32.9,16.9-78.8,18.7c-7.9,0.3-16.2,0.5-24.9,0.5c-6.8,0-13.9-0.1-21-0.4
			c-12.6-0.4-24.7-1.1-36.1-2.2c-4.1-0.4-8.1-0.8-12-1.2c-44.4-4.9-75.4-14.1-75.1-23.6c0.4-12.6,56.2-21.1,124.7-18.9
			C2769.8,715.1,2825,727.2,2824.6,739.8z"/>
		<path class="st6" d="M2140.4,469.5L2140.4,469.5l-5.5,105.7c-0.3,5.8-5.1,10.4-10.9,10.4c-0.1,0-0.3,0-0.4,0l-172.5-5.2h0
			c-6.3-0.2-11.1-5.6-10.5-11.9l12.1-141.5c0.6-6.7,7-11.3,13.5-9.7c0,0,0,0,0,0l165.9,41C2137.2,459.6,2140.6,464.3,2140.4,469.5z"
			/>
		<path class="st6" d="M2281.8,595.2l-13.4,26.9c-1.2,2.4-3.7,4-6.4,3.9l-58.8-1c-2.1,0-3.5-2.3-2.5-4.2l13.5-25.9
			c1.2-2.3,3.6-3.8,6.2-3.8h58.8C2281.3,591.1,2282.7,593.3,2281.8,595.2z"/>
		<path class="st6" d="M2833.3,602.8h-142.2c-7.2,0-13.2-5.7-13.5-13l-2.9-73.6c-0.3-7.5,5.6-13.8,13-14l139.8-4.7
			c7.3-0.2,13.4,5.3,13.9,12.6l5.2,78.3C2847.3,596.2,2841.1,602.8,2833.3,602.8z"/>
		<path class="st6" d="M2545.6,716.5c0,3.1-2.6,5.6-5.7,5.5l-68.2-3.4c-2.2-0.1-4-2-4-4.2l-0.1-12.2v0l-1.2-155.5v0
			c0-2.3,1.8-4.2,4.2-4.3c12.5-0.5,50.4-1.2,65.9-1.5c3.8-0.1,6.8,2.9,6.9,6.7l2.1,157.2C2545.5,709.5,2545.5,713.5,2545.6,716.5z"
			/>
		<path class="st6" d="M2482.9,298.4l-2.5,125.5c-0.2,6.5-7.5,10.3-12.9,6.7l-85.3-57.5c-7.2-4.7-11.5-12.9-11.3-21.6l4.2-170.9
			c0.2-9.4,12.2-13.4,18-6l84.5,107.9C2481,287.1,2482.9,292.6,2482.9,298.4z"/>
		<path class="st6" d="M2362.9,173.2l-4.3,175.1c-0.2,10-7.9,18.2-17.8,19.2l-162.5,16c-3.5,0.4-7-0.1-10.3-1.4l-121.2-44.9
			c-3.4-1.3-5.5-4.7-5.2-8.3l6.7-100.3c0.8-9.8,8-17.8,17.7-19.6l278.8-51.4C2354.2,155.8,2363.1,163.4,2362.9,173.2z"/>
	</g>
</g>
</svg>
