<?xml version="1.0" encoding="UTF-8"?>
<svg id="Ebene_2" data-name="Ebene 2" xmlns="http://www.w3.org/2000/svg" viewBox="0 0 92.19 84.37">
  <defs>
    <style>
      .cls-1 {
        fill: #fff;
      }
    </style>
  </defs>
  <g id="Ebene_1-2" data-name="Ebene 1">
    <g>
      <polygon class="cls-1" points="48.65 13.9 80.86 13.9 79.34 18.56 80.39 18.56 82.24 12.9 49.06 12.9 48.65 13.9"/>
      <path class="cls-1" d="m71.07,43.9l-9.31,28.54h-20.14c-.17.35-.36.68-.59,1h21.46l9.63-29.54h-1.05Z"/>
      <polygon class="cls-1" points="18.43 32.74 26.46 13.9 43.24 13.9 43.65 12.9 25.8 12.9 17.34 32.74 18.43 32.74"/>
      <polygon class="cls-1" points="20.46 72.44 1.51 72.44 16.3 37.74 15.21 37.74 0 73.44 20.76 73.44 20.46 72.44"/>
      <path class="cls-1" d="m46.17,12.06l-6.4,15.4c-.84-.29-1.75-.46-2.69-.46-4.37,0-7.95,3.43-8.21,7.74h-15.03c.01.17.03.33.03.5s-.01.33-.03.5h15.03c.1,1.57.63,3.03,1.49,4.24l.84-2.48s.03-.06.04-.09c-.25-.68-.4-1.4-.4-2.17,0-3.44,2.8-6.24,6.24-6.24s6.24,2.8,6.24,6.24-2.8,6.24-6.24,6.24c-.2,0-.4-.01-.59-.03l-.49,1.95c.36.05.71.08,1.08.08,4.54,0,8.24-3.7,8.24-8.24,0-3.25-1.89-6.05-4.63-7.39l6.4-15.4c-.32-.1-.63-.24-.92-.39Z"/>
      <path class="cls-1" d="m55.42,6.88h24.03c-.01-.17-.03-.33-.03-.5s.01-.33.03-.5h-24.03c.01.17.03.33.03.5s-.01.33-.03.5Z"/>
      <path class="cls-1" d="m37.08,40.48c2.89,0,5.24-2.35,5.24-5.24s-2.35-5.24-5.24-5.24-5.24,2.35-5.24,5.24c0,.34.04.66.1.98.93-1.04,2.36-1.39,3.49-1.08,1.42.4,2.17,1.73,1.84,3.24l-.52,2.06c.11,0,.22.03.34.03Z"/>
      <path d="m10.86,35.24c0-1.86-1.52-3.38-3.38-3.38s-3.38,1.52-3.38,3.38,1.52,3.38,3.38,3.38,3.38-1.52,3.38-3.38Z"/>
      <path class="cls-1" d="m11.86,35.24c0-2.42-1.96-4.38-4.38-4.38s-4.38,1.96-4.38,4.38,1.96,4.38,4.38,4.38,4.38-1.96,4.38-4.38Zm-4.38,3.38c-1.86,0-3.38-1.52-3.38-3.38s1.52-3.38,3.38-3.38,3.38,1.52,3.38,3.38-1.52,3.38-3.38,3.38Z"/>
      <path d="m82.43,6.38c0,1.86,1.52,3.38,3.38,3.38s3.38-1.52,3.38-3.38-1.52-3.38-3.38-3.38-3.38,1.52-3.38,3.38Z"/>
      <path class="cls-1" d="m81.43,6.38c0,2.42,1.96,4.38,4.38,4.38s4.38-1.96,4.38-4.38-1.96-4.38-4.38-4.38-4.38,1.96-4.38,4.38Zm4.38-3.38c1.86,0,3.38,1.52,3.38,3.38s-1.52,3.38-3.38,3.38-3.38-1.52-3.38-3.38,1.52-3.38,3.38-3.38Z"/>
      <path d="m54.93,8.88h25c.97,2.28,3.24,3.88,5.87,3.88,3.52,0,6.38-2.86,6.38-6.38s-2.86-6.38-6.38-6.38c-2.63,0-4.89,1.6-5.87,3.88h-25c-.97-2.28-3.24-3.88-5.87-3.88-3.52,0-6.38,2.86-6.38,6.38,0,1.73.7,3.3,1.82,4.46l-.86,2.06-.42,1h-16.78l-8.03,18.84h-5.08c-.97-2.28-3.24-3.88-5.87-3.88-3.52,0-6.38,2.86-6.38,6.38s2.86,6.38,6.38,6.38c2.63,0,4.89-1.6,5.87-3.88h2.95L1.51,72.44h18.94l.31,1,.2.64-1.11,7.03c-.14.87.05,1.69.55,2.3.47.58,1.16.91,1.99.95h9.77s.08,0,.12,0c1.58,0,3.11-1.22,3.58-2.85l1.53-4.87c.02-.07.08-.15.16-.21l1.95-1.43c.59-.44,1.11-.98,1.53-1.56.23-.32.42-.65.59-1h20.14l9.31-28.54h7.45l8-25.34h-7.18l1.52-4.66h-32.21l.42-1,.06-.14c2.61-.02,4.84-1.62,5.81-3.88Zm30.87-6.88c2.41,0,4.38,1.96,4.38,4.38s-1.96,4.38-4.38,4.38-4.38-1.96-4.38-4.38,1.96-4.38,4.38-4.38Zm-6.36,3.88c-.01.17-.03.33-.03.5s.01.33.03.5h-24.03c.01-.17.03-.33.03-.5s-.01-.33-.03-.5h24.03Zm-34.77.5c0-2.42,1.96-4.38,4.38-4.38s4.38,1.96,4.38,4.38-1.96,4.38-4.38,4.38-4.38-1.96-4.38-4.38ZM7.48,39.62c-2.42,0-4.38-1.96-4.38-4.38s1.96-4.38,4.38-4.38,4.38,1.96,4.38,4.38-1.96,4.38-4.38,4.38Zm31.52,34.7l-1.95,1.43c-.23.17-.4.41-.47.66l-1.52,4.85c-.36,1.27-1.57,2.25-2.76,2.25-.03,0-.06,0-.09,0h-9.8c-.55-.02-1.02-.25-1.33-.63-.34-.42-.48-1-.37-1.63l1.12-7.07c.02-.11.01-.21-.01-.29l-2.87-9.35c-.36-1.17.09-2.64,1.16-3.76l6.71-7.57,5.2-15.45c.52-1.52,2.06-2.12,3.19-1.8.99.28,1.48,1.15,1.24,2.23l-3.26,12.91c-.05.18-.02.33.08.42.11.09.33.15.63.02.84-.35,1.7-.29,2.31.16l8.23,6.21c.87.65,1.14,1.82.7,2.99l-4.04,10.67c-.39,1.05-1.13,2.02-2.09,2.72Zm-1.73-35.93c.33-1.51-.42-2.84-1.84-3.24-1.12-.32-2.55.04-3.49,1.08-.06-.32-.1-.65-.1-.98,0-2.89,2.35-5.24,5.24-5.24s5.24,2.35,5.24,5.24-2.35,5.24-5.24,5.24c-.11,0-.22-.03-.34-.03l.52-2.06Zm46.53-17.83l-6.74,21.34h-28.13l8.49-21.34h26.38Zm-43.1,7.29c2.73,1.34,4.63,4.15,4.63,7.39,0,4.54-3.7,8.24-8.24,8.24-.37,0-.73-.03-1.08-.08l.49-1.95c.19.02.39.03.59.03,3.44,0,6.24-2.8,6.24-6.24s-2.8-6.24-6.24-6.24-6.24,2.8-6.24,6.24c0,.76.14,1.49.4,2.17-.01.03-.03.06-.04.09l-.84,2.48c-.86-1.21-1.39-2.67-1.49-4.24h-15.03c.01-.17.03-.33.03-.5s-.01-.33-.03-.5h15.03c.26-4.31,3.84-7.74,8.21-7.74.94,0,1.85.17,2.69.46l6.4-15.4c.3.15.6.28.92.39l-6.4,15.4Z"/>
      <circle cx="49.07" cy="6.38" r="3.38"/>
      <path class="cls-1" d="m49.07,10.76c2.42,0,4.38-1.96,4.38-4.38s-1.96-4.38-4.38-4.38-4.38,1.96-4.38,4.38,1.96,4.38,4.38,4.38Zm-3.38-4.38c0-1.86,1.52-3.38,3.38-3.38s3.38,1.52,3.38,3.38-1.52,3.38-3.38,3.38-3.38-1.52-3.38-3.38Z"/>
      <path d="m58.09,21.56l-7.69,19.34h25.93l6.1-19.34h-24.34Zm.54,4.37h20.22l-2.44,7.72h-20.86l3.08-7.72Z"/>
      <path class="cls-1" d="m48.92,41.9h28.13l6.74-21.34h-26.38l-8.49,21.34Zm27.4-1h-25.93l7.69-19.34h24.34l-6.1,19.34Z"/>
      <polygon points="59.31 26.93 57.02 32.65 75.68 32.65 77.48 26.93 59.31 26.93"/>
      <path class="cls-1" d="m76.41,33.65l2.44-7.72h-20.22l-3.08,7.72h20.86Zm-.73-1h-18.66l2.28-5.72h18.18l-1.8,5.72Z"/>
      <path d="m40.27,71.29l4.04-10.67c.3-.8.14-1.59-.41-2l-8.23-6.21c-.35-.26-.91-.29-1.45-.06-.55.24-1.14.18-1.53-.16-.36-.31-.49-.79-.35-1.29l3.26-12.89c.19-.84-.32-1.12-.63-1.21-.75-.21-1.79.21-2.14,1.25l-5.24,15.53-.19.33-6.67,7.47c-.86.9-1.24,2.04-.97,2.92h0s2.87,9.34,2.87,9.34c.07.21.08.45.04.69l-1.12,7.06c-.06.38,0,.72.19.95.16.19.39.3.68.32h9.8c.82.05,1.74-.72,2.01-1.64l1.52-4.85c.12-.43.4-.83.79-1.11l1.95-1.43c.82-.6,1.46-1.43,1.79-2.33Z"/>
      <path class="cls-1" d="m45.12,60.92c.44-1.17.16-2.35-.7-2.99l-8.23-6.21c-.6-.45-1.47-.52-2.31-.16-.3.13-.52.07-.63-.02-.1-.09-.13-.24-.08-.42l3.26-12.91c.24-1.08-.25-1.96-1.24-2.23-1.13-.32-2.67.28-3.19,1.8l-5.2,15.45-6.71,7.57c-1.07,1.11-1.52,2.59-1.16,3.76l2.87,9.35c.03.08.03.18.01.29l-1.12,7.07c-.1.63.03,1.2.37,1.63.31.38.78.61,1.33.63h9.8s.06,0,.09,0c1.19,0,2.4-.98,2.76-2.25l1.52-4.85c.07-.25.24-.5.47-.66l1.95-1.43c.95-.7,1.69-1.67,2.09-2.72l4.04-10.67Zm-6.64,12.7l-1.95,1.43c-.38.28-.66.68-.79,1.11l-1.52,4.85c-.26.92-1.19,1.69-2.01,1.64h-9.8c-.29-.01-.52-.12-.68-.32-.19-.23-.25-.56-.19-.95l1.12-7.06c.04-.24.03-.48-.04-.69l-2.87-9.34h0c-.27-.88.1-2.02.97-2.92l6.67-7.47.19-.33,5.24-15.53c.36-1.04,1.39-1.46,2.14-1.25.32.09.82.37.63,1.21l-3.26,12.89c-.14.5,0,.98.35,1.29.39.34.98.4,1.53.16.54-.23,1.1-.21,1.45.06l8.23,6.21c.55.41.72,1.2.41,2l-4.04,10.67c-.34.9-.97,1.73-1.79,2.33Z"/>
    </g>
  </g>
</svg>