<?xml version="1.0" encoding="UTF-8"?>
<svg id="Ebene_2" data-name="Ebene 2" xmlns="http://www.w3.org/2000/svg" viewBox="0 0 92.19 84.37">
  <defs>
    <style>
      .cls-1 {
        fill: #fff;
      }

      .cls-2, .cls-3, .cls-4, .cls-5, .cls-6, .cls-7, .cls-8 {
        stroke-miterlimit: 10;
      }

      .cls-2, .cls-3, .cls-4, .cls-5, .cls-7, .cls-8 {
        fill: none;
      }

      .cls-2, .cls-5, .cls-7 {
        stroke: #000;
      }

      .cls-3, .cls-4, .cls-6, .cls-8 {
        stroke: #fff;
      }

      .cls-4, .cls-7 {
        stroke-width: 5px;
      }

      .cls-5 {
        stroke-width: 2.57px;
      }

      .cls-8 {
        stroke-width: .86px;
      }
    </style>
  </defs>
  <g id="icons">
    <g>
      <g id="tap_bw">
        <polygon class="cls-6" points=".76 72.94 62.13 72.94 81.55 13.4 26.13 13.4 .76 72.94"/>
        <g>
          <polyline class="cls-7" points="85.81 6.38 49.07 6.38 37.08 35.24 7.36 35.24"/>
          <polyline class="cls-3" points="85.81 6.38 49.07 6.38 37.08 35.24 7.36 35.24"/>
        </g>
        <g>
          <circle class="cls-1" cx="37.08" cy="35.24" r="5.74"/>
          <circle class="cls-4" cx="37.08" cy="35.24" r="5.74"/>
          <circle class="cls-2" cx="37.08" cy="35.24" r="5.74"/>
        </g>
        <g>
          <circle cx="7.48" cy="35.24" r="3.88"/>
          <circle class="cls-7" cx="7.48" cy="35.24" r="3.88"/>
          <circle class="cls-3" cx="7.48" cy="35.24" r="3.88"/>
        </g>
        <g>
          <circle cx="85.81" cy="6.38" r="3.88"/>
          <circle class="cls-7" cx="85.81" cy="6.38" r="3.88"/>
          <circle class="cls-3" cx="85.81" cy="6.38" r="3.88"/>
        </g>
        <g>
          <circle cx="49.07" cy="6.38" r="3.88"/>
          <circle class="cls-7" cx="49.07" cy="6.38" r="3.88"/>
          <circle class="cls-3" cx="49.07" cy="6.38" r="3.88"/>
        </g>
        <g>
          <path d="m57.75,21.06l-4.71,11.84-3.38,8.5h27.03l2.68-8.5,2.52-7.98,1.22-3.86h-25.36Z"/>
          <path class="cls-7" d="m57.75,21.06l-4.71,11.84-3.38,8.5h27.03l2.68-8.5,2.52-7.98,1.22-3.86h-25.36Z"/>
          <path class="cls-3" d="m57.75,21.06l-4.71,11.84-3.38,8.5h27.03l2.68-8.5,2.52-7.98,1.22-3.86h-25.36Z"/>
        </g>
        <g>
          <line class="cls-3" x1="76.69" y1="41.4" x2="49.66" y2="41.4"/>
          <polygon class="cls-6" points="78.17 26.43 76.05 33.15 56.29 33.15 58.97 26.43 78.17 26.43"/>
        </g>
      </g>
      <g>
        <path d="m19.34,64.42l2.87,9.34c.05.15.06.32.03.49l-1.12,7.07c-.16.98.38,1.72,1.28,1.76h9.82c1.02.04,2.1-.83,2.42-1.95l1.52-4.84c.1-.35.33-.67.63-.89l1.95-1.43c.88-.65,1.57-1.54,1.94-2.53l4.04-10.67c.37-.99.15-1.97-.56-2.5l-8.23-6.21c-.48-.36-1.19-.4-1.88-.11h0c-.81.35-1.51-.17-1.3-.94l3.26-12.9c.5-2.26-2.83-2.45-3.6-.2l-5.24,15.53-.15.25-6.62,7.4c-.96,1-1.38,2.3-1.06,3.33Z"/>
        <path class="cls-5" d="m19.34,64.42l2.87,9.34c.05.15.06.32.03.49l-1.12,7.07c-.16.98.38,1.72,1.28,1.76h9.82c1.02.04,2.1-.83,2.42-1.95l1.52-4.84c.1-.35.33-.67.63-.89l1.95-1.43c.88-.65,1.57-1.54,1.94-2.53l4.04-10.67c.37-.99.15-1.97-.56-2.5l-8.23-6.21c-.48-.36-1.19-.4-1.88-.11h0c-.81.35-1.51-.17-1.3-.94l3.26-12.9c.5-2.26-2.83-2.45-3.6-.2l-5.24,15.53-.15.25-6.62,7.4c-.96,1-1.38,2.3-1.06,3.33Z"/>
        <path class="cls-8" d="m19.34,64.42l2.87,9.34c.05.15.06.32.03.49l-1.12,7.07c-.16.98.38,1.72,1.28,1.76h9.82c1.02.04,2.1-.83,2.42-1.95l1.52-4.84c.1-.35.33-.67.63-.89l1.95-1.43c.88-.65,1.57-1.54,1.94-2.53l4.04-10.67c.37-.99.15-1.97-.56-2.5l-8.23-6.21c-.48-.36-1.19-.4-1.88-.11h0c-.81.35-1.51-.17-1.3-.94l3.26-12.9c.5-2.26-2.83-2.45-3.6-.2l-5.24,15.53-.15.25-6.62,7.4c-.96,1-1.38,2.3-1.06,3.33Z"/>
      </g>
    </g>
  </g>
</svg>