<svg xmlns="http://www.w3.org/2000/svg" viewBox="0 0 93.67 68.12"><defs><style>.fa026b57-815e-4ba5-9126-658dafda20cd{fill:#fff;}</style></defs><g id="a5bf38df-a58c-434c-a415-1f8ccd7e40f3" data-name="Ebene 2"><g id="a0c04154-09ee-4014-9625-26c8dd50c82d" data-name="Ebene 1"><g id="bea644d4-bdef-43dc-87c5-83b1572723af" data-name="vid_bw"><polyline points="8.43 50.22 8.43 50.2 11.67 42.6 12.09 41.6 12.1 41.6 15.3 34.09 15.73 33.09 18.92 25.59 19.34 24.59 22.54 17.09 22.97 16.09 26.42 7.99 26.42 7.58 26.59 7.58 26.92 7.58 82.85 7.58 82.85 7.58 83.04 7.58 82.85 8.15 82.85 8.59 82.71 8.59 80.26 16.09 79.94 17.09 77.49 24.59 77.16 25.59 74.71 33.09 74.38 34.09 71.93 41.6 71.6 42.6 69.17 50.1 69.03 50.53 66.07 59.62 66.06 59.62 63.29 68.11 0.8 68.11 4.84 58.62 4.85 58.62 5.88 56.19 7.96 51.34"/><path d="M8,51.35,5.88,56.19l-1,2.43h0l-4,9.5H63.29l2.77-8.5h0l3-9.08.14-.43,2.43-7.5.33-1,2.45-7.51.33-1,2.45-7.5.33-1,2.45-7.51.32-1,2.45-7.5h.14V8.16L83,7.59H26.42V8L23,16.09l-.43,1-3.2,7.51-.42,1-3.19,7.5-.43,1-3.2,7.51h0l-.42,1-3.24,7.6h0ZM33.47,8.59h42L73,16.09l-.15.47-.18.53L70.22,24.6l-2.78,8.5-.33,1-2.45,7.51-.33,1-.55,1.72L55,34.23l-11.28,8L33.1,32.11l-.88-.83L19.75,40.8l.73-1.73.77-1.81L23,33.1l3.2-7.5.43-1,3.19-7.51.43-1Zm-6.22,0h5.13l-3.2,7.5H24.05Zm-3.63,8.5h5.14l-3.2,7.51H20.43ZM20,25.6h5.13l-1.82,4.29L21.93,33.1H16.81Zm-3.62,8.5h5.13l-1.18,2.77-2,4.74H13.18ZM10,49l2.71-6.41h5.13l-3.19,7.5H9.57l.49-1.1Zm-.9,2.09h5.13l-.23.55-3,7H5.93Zm-1.7,16H2.31l3.19-7.5h5.14Zm49.08-.57-.05.17-.13.4H8.53l3.19-7.5h0l.42-1L15.39,51l.16-.4.07-.17.15-.36,3.11-7.27.07-.17h0L32.15,32.59,43.57,43.53l11.22-8,8.49,9.71Zm6,.57H57.4l1-3,.55-1.7.91-2.77H65Zm2.78-8.5H60.17l.13-.41,2.32-7.1h5.16Zm2.77-8.51H62.94l2.45-7.5h5.17Zm2.77-8.5H65.72l1.94-6,.51-1.55h5.17Zm2.78-8.51H68.49l.79-2.4L71,25.6h5.16Zm2.78-8.5H71.27l2.45-7.51h5.16Zm2.77-8.51H74L74.72,14,76.5,8.59h5.16Z"/><polygon points="54.79 35.57 63.43 45.41 56.52 66.55 56.47 66.72 56.34 67.12 8.53 67.12 11.72 59.62 11.73 59.62 12.15 58.62 15.39 51.04 15.55 50.64 15.62 50.47 15.77 50.11 18.88 42.84 18.95 42.67 18.96 42.66 32.15 32.59 43.57 43.53 54.79 35.57"/><polygon points="75.44 8.58 72.99 16.09 72.84 16.56 72.66 17.09 70.22 24.6 67.44 33.1 67.11 34.1 64.66 41.61 64.33 42.61 63.78 44.33 54.95 34.23 43.67 42.24 33.1 32.11 32.22 31.28 19.75 40.8 20.48 39.07 21.25 37.26 23.02 33.1 26.22 25.6 26.65 24.6 29.84 17.09 30.27 16.09 33.47 8.59 33.64 8.59 33.64 8.58 75.44 8.58"/><path class="fa026b57-815e-4ba5-9126-658dafda20cd" d="M82.85,7.59H26.42V8L23,16.09l-.43,1-3.2,7.51-.42,1-3.19,7.5-.43,1-3.2,7.51h0l-.42,1-3.24,7.6h0L8,51.35,5.88,56.19l-1,2.43h0l-4,9.5H63.29l2.77-8.5h0l3-9.08.14-.43,2.43-7.5.33-1,2.45-7.51.33-1,2.45-7.5.33-1,2.45-7.51.32-1,2.45-7.5h.14V8.16L83,7.59Zm-55.6,1h5.13l-3.2,7.5H24.05Zm-3.63,8.5h5.14l-3.2,7.51H20.43ZM20,25.6h5.13l-1.82,4.29L21.93,33.1H16.81Zm-3.62,8.5h5.13l-1.18,2.77-2,4.74H13.18ZM10,49l2.71-6.41h5.13l-3.19,7.5H9.57l.49-1.1Zm-.9,2.09h5.13l-.23.55-3,7H5.93Zm-6.83,16,3.19-7.5h5.14l-3.2,7.5Zm54.16-.4-.13.4H8.53l3.19-7.5h0l.42-1L15.39,51l.16-.4.07-.17.15-.36,3.11-7.27.07-.17h0l.79-1.86.73-1.73.77-1.81L23,33.1l3.2-7.5.43-1,3.19-7.51.43-1,3.2-7.5h42L73,16.09l-.15.47-.18.53L70.22,24.6l-2.78,8.5-.33,1-2.45,7.51-.33,1-.55,1.72-.35,1.08h0L56.52,66.55Zm6.09.4H57.4l1-3,.55-1.7.91-2.77H65Zm2.78-8.5H60.17l.13-.41,2.32-7.1h5.16Zm2.77-8.51H62.94l2.45-7.5h5.17Zm2.77-8.5H65.72l1.94-6,.51-1.55h5.17Zm2.78-8.51H68.49l.79-2.4L71,25.6h5.16Zm2.78-8.5H71.27l2.45-7.51h5.16Zm2.77-8.51H74L74.72,14,76.5,8.59h5.16Z"/><polygon class="fa026b57-815e-4ba5-9126-658dafda20cd" points="63.78 44.33 63.43 45.41 54.79 35.57 43.57 43.53 32.15 32.59 18.96 42.66 19.75 40.8 32.22 31.28 33.1 32.11 43.67 42.24 54.95 34.23 63.78 44.33"/><polygon points="63.1 0 63.1 11.57 53.28 22.24 93.67 22.24 93.67 0 63.1 0"/><path class="fa026b57-815e-4ba5-9126-658dafda20cd" d="M65.1,2V12.35l-7.26,7.89H91.67V2ZM90.67,19.24H60.12l6-6.5V3H90.67Z"/><path class="fa026b57-815e-4ba5-9126-658dafda20cd" d="M70.7,7.64h16a.5.5,0,0,0,.5-.5.5.5,0,0,0-.5-.5h-16a.51.51,0,0,0-.5.5A.5.5,0,0,0,70.7,7.64Z"/><path class="fa026b57-815e-4ba5-9126-658dafda20cd" d="M70.7,13h16a.5.5,0,0,0,.5-.5.5.5,0,0,0-.5-.5h-16a.5.5,0,0,0-.5.5A.51.51,0,0,0,70.7,13Z"/><path class="fa026b57-815e-4ba5-9126-658dafda20cd" d="M20.34,45.7a8.27,8.27,0,0,0-8.24-7.61H8.27A8.28,8.28,0,0,0,0,46.36a8.28,8.28,0,0,0,8.27,8.27H26.42Z"/><path d="M23.59,53.13H8.27A6.78,6.78,0,0,1,1.5,46.36a6.78,6.78,0,0,1,6.77-6.77H12.1a6.78,6.78,0,0,1,6.77,6.61ZM8.27,40.59A5.79,5.79,0,0,0,2.5,46.36a5.78,5.78,0,0,0,5.77,5.77H21.7l-3.83-5.62v-.15a5.78,5.78,0,0,0-5.77-5.77Z"/><circle cx="7.52" cy="48.01" r="0.65"/><circle cx="10.67" cy="48.01" r="0.65"/><circle cx="13.82" cy="48.01" r="0.65"/></g></g></g></svg>