<?xml version="1.0" encoding="UTF-8"?>
<svg id="Ebene_2" data-name="Ebene 2" xmlns="http://www.w3.org/2000/svg" viewBox="0 0 93.67 68.12">
  <defs>
    <style>
      .cls-1 {
        fill: #fff;
      }

      .cls-2 {
        fill: #8ed150;
      }

      .cls-3 {
        fill: none;
      }
    </style>
  </defs>
  <g id="Ebene_1-2" data-name="Ebene 1">
    <g>
      <polygon class="cls-3" points="11 58.64 11.49 57.48 11 58.64 11 58.64"/>
      <path class="cls-3" d="m8.27,54.63h4.44s-4.44,0-4.44,0c-.22,0-.43-.01-.65-.03l-1.03,2.46,1.03-2.46c.21.02.43.03.64.03Z"/>
      <path class="cls-3" d="m7.52,47.36c-.18,0-.34.07-.46.19.12-.12.28-.19.46-.19.36,0,.65.29.65.65,0,.11-.03.21-.08.3.05-.09.09-.19.09-.3,0-.36-.3-.65-.65-.65Z"/>
      <path class="cls-3" d="m11.32,48.01c0,.11-.04.21-.09.3.05-.09.09-.19.09-.31,0-.36-.3-.65-.65-.65-.18,0-.34.07-.46.19.12-.12.28-.19.46-.19.36,0,.65.29.65.65Z"/>
      <polygon class="cls-3" points="26.42 54.63 26.41 54.63 13.83 54.63 12.89 56.84 13.83 54.63 26.42 54.63"/>
      <polygon class="cls-3" points="5.46 59.59 5.46 59.59 5.5 59.59 10.6 59.59 7.4 67.09 7.4 67.09 10.6 59.59 5.46 59.59"/>
      <polygon class="cls-3" points="54.79 35.57 43.57 43.53 32.15 32.59 28.66 35.26 32.15 32.59 43.57 43.53 54.79 35.57 63.43 45.41 56.52 66.55 56.43 66.69 56.3 67.09 56.3 67.09 56.43 66.69 56.52 66.55 63.43 45.41 54.79 35.57"/>
      <path class="cls-3" d="m19.33,42.38c.27.5.5,1.03.67,1.58-.17-.56-.4-1.09-.67-1.59h0Z"/>
      <polygon class="cls-3" points="59.86 59.62 65 59.62 62.52 67.09 62.52 67.09 65 59.62 59.86 59.62 59.86 59.62"/>
      <polygon class="cls-3" points="32.38 8.59 29.18 16.09 29.18 16.09 32.38 8.59 27.25 8.59 27.25 8.59 32.38 8.59"/>
      <polygon class="cls-3" points="28.76 17.09 25.56 24.6 25.56 24.6 28.76 17.09 23.62 17.09 23.62 17.09 28.76 17.09"/>
      <polygon class="cls-3" points="25.13 25.6 23.31 29.89 21.93 33.1 21.93 33.1 23.31 29.89 25.13 25.6 20 25.6 20 25.6 25.13 25.6"/>
      <polygon class="cls-3" points="21.51 34.1 20.33 36.87 19.53 38.77 20.33 36.87 21.51 34.1 16.38 34.1 16.38 34.1 21.51 34.1"/>
      <path class="cls-3" d="m14.47,48.01c0,.11-.03.21-.08.3.05-.09.09-.19.09-.3,0-.36-.3-.65-.65-.65-.18,0-.34.07-.46.19.12-.12.28-.19.46-.19.36,0,.65.29.65.65Z"/>
      <path class="cls-3" d="m16.31,39.28c.84.5,1.59,1.13,2.2,1.89h0c-.61-.76-1.36-1.39-2.2-1.89Z"/>
      <path class="cls-3" d="m15.67,38.91s0,0,0,0c0,0,0,0,0,0Z"/>
      <polygon class="cls-3" points="68.17 34.03 73.34 34.03 70.84 41.58 70.84 41.58 73.34 34.03 68.17 34.03 68.17 34.03"/>
      <polygon class="cls-3" points="65.39 42.58 70.56 42.58 68.07 50.08 68.07 50.08 70.56 42.58 65.39 42.58 65.39 42.58"/>
      <polygon class="cls-3" points="71 25.6 76.16 25.6 73.62 33.07 73.62 33.07 76.16 25.6 71 25.6 71 25.6"/>
      <path class="cls-3" d="m70.31,12.81s.05.06.09.08c-.03-.02-.06-.05-.09-.08Z"/>
      <path class="cls-3" d="m70.7,6.64h16c.28,0,.5.22.5.5,0,.14-.06.26-.15.35.09-.09.15-.22.15-.36,0-.27-.23-.5-.5-.5h-16c-.21,0-.39.13-.46.31.08-.18.25-.3.46-.31Z"/>
      <path class="cls-3" d="m86.7,12c.28,0,.5.22.5.5,0,.14-.06.26-.15.35.09-.09.15-.22.15-.36,0-.27-.23-.5-.5-.5h-16c-.13,0-.24.05-.32.13.09-.07.2-.12.32-.12h16Z"/>
      <polygon class="cls-3" points="62.62 51.08 67.78 51.08 65.3 58.59 65.3 58.59 67.78 51.08 62.62 51.08 62.62 51.08"/>
      <polygon class="cls-2" points="25.13 25.6 20 25.6 16.81 33.1 21.93 33.1 23.31 29.89 25.13 25.6"/>
      <path class="cls-2" d="m21.51,34.1h-5.13l-1.86,4.36c.4.12.78.27,1.15.45,0,0,0,0,0,0,.22.11.43.24.64.37.84.5,1.59,1.13,2.2,1.88l1.01-2.4.8-1.89,1.18-2.77Z"/>
      <polygon class="cls-2" points="59.86 59.62 58.95 62.39 58.4 64.09 57.4 67.09 62.52 67.09 65 59.62 59.86 59.62"/>
      <polygon class="cls-2" points="65.39 42.58 62.94 50.08 68.07 50.08 70.56 42.58 65.39 42.58"/>
      <polygon class="cls-2" points="23.62 17.09 20.43 24.6 25.56 24.6 28.76 17.09 23.62 17.09"/>
      <polygon class="cls-2" points="27.25 8.59 24.05 16.09 29.18 16.09 32.38 8.59 27.25 8.59"/>
      <polygon class="cls-2" points="5.5 59.59 5.46 59.59 2.27 67.09 7.4 67.09 10.6 59.59 5.5 59.59"/>
      <polygon class="cls-2" points="62.62 51.08 60.3 58.18 60.17 58.59 65.3 58.59 67.78 51.08 62.62 51.08"/>
      <path class="cls-2" d="m11.49,57.48l1.21-2.85h-4.44c-.22,0-.43-.02-.64-.03l-1.03,2.46-.66,1.58h5.07l.5-1.16Z"/>
      <polygon class="cls-2" points="71 25.6 69.28 30.67 68.49 33.07 73.62 33.07 76.16 25.6 71 25.6"/>
      <polygon class="cls-2" points="68.17 34.03 67.66 35.58 65.72 41.58 70.84 41.58 73.34 34.03 68.17 34.03"/>
      <path class="cls-2" d="m56.52,66.55l6.91-21.14-8.64-9.84-11.22,7.96-11.42-10.94-3.49,2.66-9.33,7.12c.28.5.5,1.03.67,1.59.17.56.29,1.14.34,1.74l6.08,8.93h0,0s-12.58,0-12.58,0l-.94,2.2-.75,1.75-.42,1-3.19,7.5h47.77l.13-.4.09-.14Z"/>
      <path class="cls-1" d="m66.75,57.52l2.31-6.98.14-.43,2.43-7.5.33-1,2.45-7.51.33-1,2.45-7.5.33-1,.77-2.36h-1.12l-.77,2.33h-5.13l.76-2.33h-1.04l-.77,2.36-2.78,8.5-.33,1-2.45,7.51-.33,1-.55,1.72-8.83-10.1-11.28,8.01-10.57-10.13-.88-.83-12.47,9.52-.56,1.32s-.01-.02-.02-.02l.57-1.33.73-1.73.77-1.81,1.76-4.13,3.2-7.5.43-1,3.19-7.51.43-1,3.2-7.5h29.65v-1H26.42v.41l-3.42,8.09-.43,1-3.2,7.51-.42,1-3.19,7.5-.43,1-1.76,4.13h-.03c-.47-.09-.95-.14-1.44-.14h-3.83c-4.57.01-8.27,3.71-8.27,8.27,0,4,2.84,7.34,6.62,8.11,0,0,0,0,0,0h.01l-.21.47-.54,1.25-1,2.43-4,9.49h0s62.41.01,62.41.01l2.77-8.5.69-2.1ZM32.38,8.59l-3.2,7.5h-5.13l3.2-7.5h0s5.13,0,5.13,0Zm-3.62,8.5l-3.2,7.51h-5.13l3.19-7.51h0s5.14,0,5.14,0Zm-3.63,8.51l-1.82,4.29-1.38,3.21h-5.12l3.19-7.5h0s5.13,0,5.13,0Zm-3.62,8.5l-1.18,2.77-.8,1.9-1.01,2.4h0c-.61-.75-1.36-1.38-2.2-1.88-.21-.13-.42-.26-.64-.37,0,0,0,0,0,0-.37-.18-.75-.33-1.15-.45l1.86-4.36h0s5.13,0,5.13,0ZM1.5,46.36c0-3.73,3.03-6.76,6.77-6.77h3.83c3.67.01,6.67,2.94,6.77,6.61l4.72,6.93h-15.32c-3.74,0-6.77-3.03-6.77-6.77Zm5.09,10.7l1.03-2.46c.22.02.43.03.65.03h4.44,0s-1.21,2.85-1.21,2.85l-.49,1.16h-5.07l.66-1.58Zm.81,10.03H2.27l3.19-7.5h0s5.14,0,5.14,0l-3.2,7.5h0Zm49.03-.4l-.13.4H8.53l3.19-7.5.42-1,.75-1.75.94-2.21h12.59l-6.08-8.93c-.05-.6-.17-1.18-.34-1.74-.17-.55-.4-1.08-.67-1.58h0s9.33-7.12,9.33-7.12l3.49-2.67,11.42,10.94,11.22-7.96,8.64,9.84-6.91,21.14-.09.14Zm6.09.4h-5.12l1-3,.55-1.7.91-2.77h0s5.14,0,5.14,0l-2.48,7.47Zm2.78-8.5h-5.13l.13-.41,2.32-7.1h0s5.16,0,5.16,0l-2.48,7.51Zm2.77-8.51h-5.13l2.45-7.5h0s5.17,0,5.17,0l-2.49,7.5Zm2.77-8.5h-5.12l1.94-6,.51-1.55h0s5.17,0,5.17,0l-2.5,7.55Zm2.78-8.51h-5.13l.79-2.4,1.72-5.07h0s5.16,0,5.16,0l-2.54,7.47Z"/>
      <path class="cls-2" d="m19.75,40.8l12.47-9.52.88.83,10.57,10.13,11.28-8.01,8.83,10.1.55-1.72.33-1,2.45-7.51.33-1,2.78-8.5.77-2.36h1.04l-.76,2.33h5.13l.77-2.33h16.5V0h-30.57v7.58h0v1.01h-29.65l-3.2,7.5-.43,1-3.19,7.51-.43,1-3.2,7.5-1.76,4.13-.77,1.81-.73,1.73v.03Zm71.92-20.56h-33.83l7.26-7.89V2h26.57v18.24Z"/>
      <path class="cls-2" d="m90.67,19.24V3h-24.55v9.74l-6,6.5h30.55Zm-19.97-12.6h16c.27,0,.5.23.5.5,0,.14-.06.27-.15.36-.09.09-.22.15-.35.15h-16c-.28,0-.5-.22-.5-.5,0-.07.02-.13.04-.19.08-.18.25-.3.46-.31Zm-.32,5.49c.09-.08.2-.13.32-.13h16c.27,0,.5.23.5.5,0,.14-.06.27-.15.36-.09.09-.22.15-.35.15h-16c-.11,0-.21-.05-.3-.11-.03-.02-.06-.05-.09-.08-.07-.09-.12-.19-.12-.31,0-.15.07-.28.18-.38Z"/>
      <path class="cls-1" d="m65.1,12.35l-7.26,7.89h33.83V2h-26.57v10.35Zm1.02-9.35h24.55v16.24h-30.55l6-6.5V3Z"/>
      <path class="cls-1" d="m70.7,7.64h16c.14,0,.26-.06.35-.15.09-.09.15-.21.15-.35,0-.28-.22-.5-.5-.5h-16c-.2,0-.38.13-.46.31-.03.06-.04.13-.04.19,0,.28.22.5.5.5Z"/>
      <path class="cls-1" d="m70.4,12.89c.08.06.18.11.3.11h16c.14,0,.26-.06.35-.15.09-.09.15-.21.15-.35,0-.28-.22-.5-.5-.5h-16c-.12,0-.23.05-.32.12-.11.09-.18.22-.18.38,0,.12.05.22.12.31.03.03.05.06.09.08Z"/>
      <path class="cls-1" d="m21.7,52.13l-3.83-5.62v-.15c-.01-3.18-2.59-5.76-5.77-5.77h-3.83c-3.19.01-5.76,2.59-5.77,5.77,0,3.19,2.58,5.77,5.77,5.77h13.43Zm-8.34-4.58c.12-.12.28-.19.46-.19.35,0,.65.29.65.65,0,.11-.04.21-.09.3-.11.21-.32.35-.57.35-.36,0-.65-.29-.65-.65,0-.18.07-.34.19-.46Zm-3.15,0c.12-.12.28-.19.46-.19.35,0,.65.29.65.65,0,.11-.04.21-.09.31-.11.2-.32.35-.56.35-.36,0-.65-.29-.65-.65,0-.18.07-.34.19-.46Zm-2.69,1.11c-.36,0-.65-.29-.65-.65,0-.18.07-.34.19-.46.12-.12.28-.19.46-.19.35,0,.65.29.65.65,0,.11-.04.21-.09.3-.11.21-.32.35-.57.35Z"/>
      <path class="cls-2" d="m23.59,53.13l-4.72-6.93c-.1-3.67-3.1-6.6-6.77-6.61h-3.83c-3.74.01-6.77,3.04-6.77,6.77s3.03,6.77,6.77,6.77h15.32Zm-21.09-6.77c.01-3.18,2.58-5.76,5.77-5.77h3.83c3.18.01,5.76,2.59,5.77,5.77v.15l3.83,5.62h-13.43c-3.19,0-5.77-2.58-5.77-5.77Z"/>
      <path class="cls-2" d="m7.52,47.36c-.18,0-.34.07-.46.19-.12.12-.19.28-.19.46,0,.36.29.65.65.65.25,0,.46-.15.57-.35.05-.09.08-.19.08-.3,0-.36-.29-.65-.65-.65Z"/>
      <path class="cls-2" d="m10.67,48.66c.25,0,.45-.14.56-.35.05-.09.09-.19.09-.3,0-.36-.29-.65-.65-.65-.18,0-.34.07-.46.19-.12.12-.19.28-.19.46,0,.36.29.65.65.65Z"/>
      <path class="cls-2" d="m13.82,48.66c.25,0,.46-.15.57-.35.05-.09.08-.19.08-.3,0-.36-.29-.65-.65-.65-.18,0-.34.07-.46.19-.12.12-.19.28-.19.46,0,.36.29.65.65.65Z"/>
    </g>
  </g>
</svg>