<?xml version="1.0" encoding="utf-8"?>
<!-- Generator: Adobe Illustrator 27.4.0, SVG Export Plug-In . SVG Version: 6.00 Build 0)  -->
<svg version="1.1" id="Ebene_2" xmlns="http://www.w3.org/2000/svg" xmlns:xlink="http://www.w3.org/1999/xlink" x="0px" y="0px"
	 viewBox="0 0 93.7 68.1" style="enable-background:new 0 0 93.7 68.1;" xml:space="preserve">
<style type="text/css">
	.st0{fill:none;}
	.st1{fill:#A5D6A7;}
	.st2{fill:#FFFFFF;}
</style>
<g id="Ebene_1-2">
	<g>
		<polygon class="st0" points="11,58.6 11.5,57.5 11,58.6 		"/>
		<path class="st0" d="M8.3,54.6h4.4H8.3c-0.2,0-0.4,0-0.7,0l-1,2.5l1-2.5C7.8,54.6,8.1,54.6,8.3,54.6L8.3,54.6z"/>
		<path class="st0" d="M7.5,47.4c-0.2,0-0.3,0.1-0.5,0.2C7.2,47.4,7.3,47.4,7.5,47.4c0.4,0,0.7,0.3,0.7,0.7c0,0.1,0,0.2-0.1,0.3
			c0.1-0.1,0.1-0.2,0.1-0.3C8.2,47.7,7.9,47.4,7.5,47.4L7.5,47.4z"/>
		<path class="st0" d="M11.3,48c0,0.1,0,0.2-0.1,0.3C11.3,48.2,11.3,48.1,11.3,48c0-0.4-0.3-0.7-0.6-0.7c-0.2,0-0.3,0.1-0.5,0.2
			c0.1-0.1,0.3-0.2,0.5-0.2C11,47.3,11.3,47.6,11.3,48L11.3,48z"/>
		<polygon class="st0" points="26.4,54.6 26.4,54.6 13.8,54.6 12.9,56.8 13.8,54.6 		"/>
		<polygon class="st0" points="5.5,59.6 5.5,59.6 5.5,59.6 10.6,59.6 7.4,67.1 7.4,67.1 10.6,59.6 		"/>
		<polygon class="st0" points="54.8,35.6 43.6,43.5 32.2,32.6 28.7,35.3 32.2,32.6 43.6,43.5 54.8,35.6 63.4,45.4 56.5,66.6 
			56.4,66.7 56.3,67.1 56.3,67.1 56.4,66.7 56.5,66.6 63.4,45.4 		"/>
		<path class="st0" d="M19.3,42.4c0.3,0.5,0.5,1,0.7,1.6C19.8,43.4,19.6,42.9,19.3,42.4L19.3,42.4L19.3,42.4z"/>
		<polygon class="st0" points="59.9,59.6 65,59.6 62.5,67.1 62.5,67.1 65,59.6 59.9,59.6 		"/>
		<polygon class="st0" points="32.4,8.6 29.2,16.1 29.2,16.1 32.4,8.6 27.2,8.6 27.2,8.6 		"/>
		<polygon class="st0" points="28.8,17.1 25.6,24.6 25.6,24.6 28.8,17.1 23.6,17.1 23.6,17.1 		"/>
		<polygon class="st0" points="25.1,25.6 23.3,29.9 21.9,33.1 21.9,33.1 23.3,29.9 25.1,25.6 20,25.6 20,25.6 		"/>
		<polygon class="st0" points="21.5,34.1 20.3,36.9 19.5,38.8 20.3,36.9 21.5,34.1 16.4,34.1 16.4,34.1 		"/>
		<path class="st0" d="M14.5,48c0,0.1,0,0.2-0.1,0.3C14.4,48.2,14.5,48.1,14.5,48c0-0.4-0.3-0.7-0.6-0.7c-0.2,0-0.3,0.1-0.5,0.2
			c0.1-0.1,0.3-0.2,0.5-0.2C14.2,47.4,14.5,47.6,14.5,48L14.5,48z"/>
		<path class="st0" d="M16.3,39.3c0.8,0.5,1.6,1.1,2.2,1.9l0,0C17.9,40.4,17.1,39.8,16.3,39.3z"/>
		<path class="st0" d="M15.7,38.9L15.7,38.9L15.7,38.9z"/>
		<polygon class="st0" points="68.2,34 73.3,34 70.8,41.6 70.8,41.6 73.3,34 68.2,34 		"/>
		<polygon class="st0" points="65.4,42.6 70.6,42.6 68.1,50.1 68.1,50.1 70.6,42.6 65.4,42.6 		"/>
		<polygon class="st0" points="71,25.6 76.2,25.6 73.6,33.1 73.6,33.1 76.2,25.6 71,25.6 		"/>
		<path class="st0" d="M70.3,12.8C70.3,12.8,70.4,12.9,70.3,12.8C70.4,12.9,70.3,12.8,70.3,12.8z"/>
		<path class="st0" d="M70.7,6.6h16c0.3,0,0.5,0.2,0.5,0.5c0,0.1-0.1,0.3-0.2,0.3c0.1-0.1,0.2-0.2,0.2-0.4c0-0.3-0.2-0.5-0.5-0.5
			L70.7,6.6c-0.2,0-0.4,0.1-0.5,0.3C70.3,6.8,70.5,6.6,70.7,6.6L70.7,6.6z"/>
		<path class="st0" d="M86.7,12c0.3,0,0.5,0.2,0.5,0.5c0,0.1-0.1,0.3-0.2,0.4c0.1-0.1,0.2-0.2,0.2-0.4C87.2,12.2,87,12,86.7,12
			l-16,0c-0.1,0-0.2,0.1-0.3,0.1c0.1-0.1,0.2-0.1,0.3-0.1C70.7,12,86.7,12,86.7,12z"/>
		<polygon class="st0" points="62.6,51.1 67.8,51.1 65.3,58.6 65.3,58.6 67.8,51.1 62.6,51.1 		"/>
		<polygon class="st1" points="25.1,25.6 20,25.6 16.8,33.1 21.9,33.1 23.3,29.9 		"/>
		<path class="st1" d="M21.5,34.1h-5.1l-1.9,4.4c0.4,0.1,0.8,0.3,1.1,0.5l0,0c0.2,0.1,0.4,0.2,0.6,0.4c0.8,0.5,1.6,1.1,2.2,1.9
			l1-2.4l0.8-1.9L21.5,34.1L21.5,34.1z"/>
		<polygon class="st1" points="59.9,59.6 59,62.4 58.4,64.1 57.4,67.1 62.5,67.1 65,59.6 		"/>
		<polygon class="st1" points="65.4,42.6 62.9,50.1 68.1,50.1 70.6,42.6 		"/>
		<polygon class="st1" points="23.6,17.1 20.4,24.6 25.6,24.6 28.8,17.1 		"/>
		<polygon class="st1" points="27.2,8.6 24,16.1 29.2,16.1 32.4,8.6 		"/>
		<polygon class="st1" points="5.5,59.6 5.5,59.6 2.3,67.1 7.4,67.1 10.6,59.6 		"/>
		<polygon class="st1" points="62.6,51.1 60.3,58.2 60.2,58.6 65.3,58.6 67.8,51.1 		"/>
		<path class="st1" d="M11.5,57.5l1.2-2.8H8.3c-0.2,0-0.4,0-0.6,0l-1,2.5l-0.7,1.6H11L11.5,57.5L11.5,57.5z"/>
		<polygon class="st1" points="71,25.6 69.3,30.7 68.5,33.1 73.6,33.1 76.2,25.6 		"/>
		<polygon class="st1" points="68.2,34 67.7,35.6 65.7,41.6 70.8,41.6 73.3,34 		"/>
		<path class="st1" d="M56.5,66.6l6.9-21.1l-8.6-9.8l-11.2,8L32.2,32.6l-3.5,2.7l-9.3,7.1c0.3,0.5,0.5,1,0.7,1.6s0.3,1.1,0.3,1.7
			l6.1,8.9l0,0l0,0H13.8l-0.9,2.2l-0.8,1.8l-0.4,1l-3.2,7.5h47.8l0.1-0.4L56.5,66.6L56.5,66.6z"/>
		<path class="st2" d="M66.8,57.5l2.3-7l0.1-0.4l2.4-7.5l0.3-1l2.4-7.5l0.3-1l2.4-7.5l0.3-1l0.8-2.4h-1.1l-0.8,2.3h-5.1l0.8-2.3h-1
			l-0.8,2.4l-2.8,8.5l-0.3,1l-2.4,7.5l-0.3,1l-0.5,1.7L55,34.2l-11.3,8L33.1,32.1l-0.9-0.8l-12.5,9.5l-0.6,1.3c0,0,0,0,0,0l0.6-1.3
			l0.7-1.7l0.8-1.8l1.8-4.1l3.2-7.5l0.4-1l3.2-7.5l0.4-1l3.2-7.5h29.7v-1H26.4V8L23,16.1l-0.4,1l-3.2,7.5l-0.4,1l-3.2,7.5l-0.4,1
			l-1.8,4.1h0c-0.5-0.1-0.9-0.1-1.4-0.1H8.3c-4.6,0-8.3,3.7-8.3,8.3c0,4,2.8,7.3,6.6,8.1l0,0h0l-0.2,0.5l-0.5,1.2l-1,2.4l-4,9.5l0,0
			l62.4,0l2.8-8.5C66.1,59.6,66.8,57.5,66.8,57.5z M32.4,8.6l-3.2,7.5H24l3.2-7.5l0,0H32.4z M28.8,17.1l-3.2,7.5h-5.1l3.2-7.5l0,0
			C23.6,17.1,28.8,17.1,28.8,17.1z M25.1,25.6l-1.8,4.3l-1.4,3.2h-5.1l3.2-7.5l0,0C20,25.6,25.1,25.6,25.1,25.6z M21.5,34.1
			l-1.2,2.8l-0.8,1.9l-1,2.4l0,0c-0.6-0.8-1.4-1.4-2.2-1.9c-0.2-0.1-0.4-0.3-0.6-0.4l0,0c-0.4-0.2-0.8-0.3-1.1-0.5l1.9-4.4l0,0
			L21.5,34.1L21.5,34.1z M1.5,46.4c0-3.7,3-6.8,6.8-6.8h3.8c3.7,0,6.7,2.9,6.8,6.6l4.7,6.9H8.3C4.5,53.1,1.5,50.1,1.5,46.4z
			 M6.6,57.1l1-2.5c0.2,0,0.4,0,0.6,0h4.4l0,0l-1.2,2.8L11,58.6H5.9L6.6,57.1L6.6,57.1z M7.4,67.1H2.3l3.2-7.5l0,0h5.1L7.4,67.1
			C7.4,67.1,7.4,67.1,7.4,67.1z M56.4,66.7l-0.1,0.4H8.5l3.2-7.5l0.4-1l0.8-1.8l0.9-2.2h12.6l-6.1-8.9c0-0.6-0.2-1.2-0.3-1.7
			c-0.2-0.5-0.4-1.1-0.7-1.6l0,0l9.3-7.1l3.5-2.7l11.4,10.9l11.2-8l8.6,9.8l-6.9,21.1L56.4,66.7z M62.5,67.1h-5.1l1-3l0.5-1.7
			l0.9-2.8l0,0H65L62.5,67.1z M65.3,58.6h-5.1l0.1-0.4l2.3-7.1l0,0h5.2C67.8,51.1,65.3,58.6,65.3,58.6z M68.1,50.1h-5.1l2.5-7.5l0,0
			h5.2L68.1,50.1z M70.8,41.6h-5.1l1.9-6l0.5-1.5l0,0h5.2L70.8,41.6z M73.6,33.1h-5.1l0.8-2.4l1.7-5.1l0,0h5.2
			C76.2,25.6,73.6,33.1,73.6,33.1z"/>
		<path class="st1" d="M19.8,40.8l12.5-9.5l0.9,0.8l10.6,10.1l11.3-8l8.8,10.1l0.6-1.7l0.3-1l2.4-7.5l0.3-1l2.8-8.5l0.8-2.4h1
			l-0.8,2.3h5.1l0.8-2.3h16.5V0H63.1v7.6l0,0v1H33.4l-3.2,7.5l-0.4,1l-3.2,7.5l-0.4,1L23,33.1l-1.8,4.1L20.5,39L19.8,40.8L19.8,40.8
			L19.8,40.8z M91.7,20.2H57.8l7.3-7.9V2h26.6V20.2z"/>
		<path class="st1" d="M90.7,19.2V3H66.1v9.7l-6,6.5H90.7z M70.7,6.6h16c0.3,0,0.5,0.2,0.5,0.5c0,0.1-0.1,0.3-0.2,0.4
			c-0.1,0.1-0.2,0.2-0.3,0.2h-16c-0.3,0-0.5-0.2-0.5-0.5c0-0.1,0-0.1,0-0.2C70.3,6.8,70.5,6.7,70.7,6.6L70.7,6.6z M70.4,12.1
			c0.1-0.1,0.2-0.1,0.3-0.1h16c0.3,0,0.5,0.2,0.5,0.5c0,0.1-0.1,0.3-0.2,0.4C87,12.9,86.8,13,86.7,13h-16c-0.1,0-0.2-0.1-0.3-0.1
			c0,0-0.1-0.1-0.1-0.1c-0.1-0.1-0.1-0.2-0.1-0.3C70.2,12.4,70.3,12.2,70.4,12.1L70.4,12.1z"/>
		<path class="st2" d="M65.1,12.4l-7.3,7.9h33.8V2H65.1V12.4z M66.1,3h24.6v16.2H60.1l6-6.5V3z"/>
		<path class="st2" d="M70.7,7.6h16c0.1,0,0.3-0.1,0.3-0.2s0.2-0.2,0.2-0.3c0-0.3-0.2-0.5-0.5-0.5h-16c-0.2,0-0.4,0.1-0.5,0.3
			c0,0.1,0,0.1,0,0.2C70.2,7.4,70.4,7.6,70.7,7.6z"/>
		<path class="st2" d="M70.4,12.9c0.1,0.1,0.2,0.1,0.3,0.1h16c0.1,0,0.3-0.1,0.3-0.1c0.1-0.1,0.2-0.2,0.2-0.4c0-0.3-0.2-0.5-0.5-0.5
			h-16c-0.1,0-0.2,0.1-0.3,0.1c-0.1,0.1-0.2,0.2-0.2,0.4C70.2,12.6,70.3,12.7,70.4,12.9C70.4,12.8,70.4,12.9,70.4,12.9L70.4,12.9z"
			/>
		<path class="st2" d="M21.7,52.1l-3.8-5.6v-0.2c0-3.2-2.6-5.8-5.8-5.8H8.3c-3.2,0-5.8,2.6-5.8,5.8c0,3.2,2.6,5.8,5.8,5.8H21.7z
			 M13.4,47.6c0.1-0.1,0.3-0.2,0.5-0.2c0.4,0,0.6,0.3,0.6,0.7c0,0.1,0,0.2-0.1,0.3c-0.1,0.2-0.3,0.3-0.6,0.3c-0.4,0-0.6-0.3-0.6-0.7
			C13.2,47.8,13.2,47.7,13.4,47.6L13.4,47.6z M10.2,47.6c0.1-0.1,0.3-0.2,0.5-0.2c0.4,0,0.6,0.3,0.6,0.7c0,0.1,0,0.2-0.1,0.3
			c-0.1,0.2-0.3,0.3-0.6,0.3c-0.4,0-0.6-0.3-0.6-0.7C10,47.8,10.1,47.7,10.2,47.6L10.2,47.6z M7.5,48.7c-0.4,0-0.7-0.3-0.7-0.7
			c0-0.2,0.1-0.3,0.2-0.5s0.3-0.2,0.5-0.2c0.3,0,0.7,0.3,0.7,0.7c0,0.1,0,0.2-0.1,0.3C8,48.5,7.8,48.7,7.5,48.7L7.5,48.7z"/>
		<path class="st1" d="M23.6,53.1l-4.7-6.9c-0.1-3.7-3.1-6.6-6.8-6.6H8.3c-3.7,0-6.8,3-6.8,6.8s3,6.8,6.8,6.8H23.6z M2.5,46.4
			c0-3.2,2.6-5.8,5.8-5.8h3.8c3.2,0,5.8,2.6,5.8,5.8v0.2l3.8,5.6H8.3C5.1,52.1,2.5,49.6,2.5,46.4z"/>
		<path class="st1" d="M7.5,47.4c-0.2,0-0.3,0.1-0.5,0.2S6.9,47.8,6.9,48c0,0.4,0.3,0.7,0.7,0.7c0.2,0,0.5-0.2,0.6-0.3
			c0.1-0.1,0.1-0.2,0.1-0.3C8.2,47.7,7.9,47.4,7.5,47.4z"/>
		<path class="st1" d="M10.7,48.7c0.2,0,0.4-0.1,0.6-0.3c0.1-0.1,0.1-0.2,0.1-0.3c0-0.4-0.3-0.7-0.6-0.7c-0.2,0-0.3,0.1-0.5,0.2
			S10,47.8,10,48C10,48.4,10.3,48.7,10.7,48.7z"/>
		<path class="st1" d="M13.8,48.7c0.2,0,0.5-0.2,0.6-0.3c0.1-0.1,0.1-0.2,0.1-0.3c0-0.4-0.3-0.7-0.6-0.7c-0.2,0-0.3,0.1-0.5,0.2
			s-0.2,0.3-0.2,0.5C13.2,48.4,13.5,48.7,13.8,48.7z"/>
	</g>
</g>
</svg>
