<?xml version="1.0" encoding="UTF-8"?>
<svg id="Ebene_2" data-name="Ebene 2" xmlns="http://www.w3.org/2000/svg" viewBox="0 0 314.15 1872.04">
  <g id="Ebene_1-2" data-name="Ebene 1">
    <path d="m296.84,1839.45l-31,22.46c-2.51,1.81-3.06,5.31-1.25,7.82,1.1,1.51,2.81,2.31,4.54,2.31h0c1.14,0,2.29-.35,3.27-1.06l35.68-25.85c3.84-2.78,6.05-6.83,6.06-11.11.01-4.27-2.18-8.33-6.01-11.13l-35.72-26.14c-2.51-1.82-6-1.28-7.82,1.21-1.82,2.49-1.28,6,1.21,7.82l30.7,22.46h-126.13c-32.21-1.83-57.86-28.61-57.86-61.27v-825.9h184.33l-31,22.46c-2.51,1.81-3.06,5.31-1.25,7.82,1.1,1.51,2.81,2.31,4.54,2.31h0c1.14,0,2.29-.35,3.27-1.06l35.68-25.85c3.84-2.78,6.05-6.83,6.06-11.11.01-4.27-2.18-8.33-6.01-11.13l-35.72-26.14c-2.51-1.82-6-1.28-7.82,1.21-1.82,2.49-1.28,6,1.21,7.82l30.7,22.46H112.51V104.99c0-32.38,25.2-58.96,57.02-61.21h127.31l-31,22.46c-2.51,1.81-3.06,5.31-1.25,7.82,1.1,1.51,2.81,2.31,4.54,2.31h0c1.14,0,2.29-.35,3.27-1.06l35.68-25.85c3.84-2.78,6.05-6.83,6.06-11.11.01-4.27-2.18-8.33-6.01-11.13L272.42,1.08c-2.51-1.82-6-1.28-7.82,1.21-1.82,2.49-1.28,6,1.21,7.82l30.7,22.46-128.34.17c-37.3,2.93-66.75,34.19-66.75,72.23v824.89H5.81c-2.69,0-5.17,1.8-5.69,4.44-.72,3.6,2.01,6.76,5.48,6.76h95.81v825.9c0,37.82,29.13,68.95,66.13,72.18.19.02.38.02.57.02l128.72.26Z"/>
  </g>
</svg>