<svg width="1920" height="1293" viewBox="0 0 1920 1293" fill="none" xmlns="http://www.w3.org/2000/svg">
<path d="M1598.5 525C1837.3 327 1444.67 6.16667 1218.5 -129.5L2063.5 -90.5L2160 1158.5H512.5L464 558.5C742.667 629.833 1359.7 723 1598.5 525Z" fill="#151515"/>
<path d="M1685 599.5C1848.6 297.1 1324.83 42.5 1042.5 -47L1031.5 -51.5L2091.5 37.5L2067 1277.5L840.5 1162V826.5C1053.83 876.833 1521.4 901.9 1685 599.5Z" fill="#2C2C2C"/>
<path d="M-125 57C209.833 -103.5 886.7 -281.9 915.5 288.5C946.262 897.752 90.9793 331.454 -114.588 687.509C-110.779 1115.73 -117.418 1422.12 -155.5 960C-165.758 835.517 -149.593 748.14 -114.588 687.509C-116.42 481.535 -120.67 247.376 -125 57Z" fill="#151515"/>
<path d="M528.5 195C226.1 -5.40001 2.83334 151.833 -71 255.5L-218 920L1056 847.5C1006.17 713.5 830.9 395.4 528.5 195Z" fill="#2C2C2C"/>
<path d="M483.5 298.5C43.9 13.3 -68.3333 311 -69.5 495.5L-104.5 1242.5L2148.5 1293L2269 616C2262 644.333 2144.4 742.1 1730 906.5C1212 1112 1033 655 483.5 298.5Z" fill="#484848"/>
</svg>
