<svg xmlns="http://www.w3.org/2000/svg" viewBox="0 0 24.37 24.36"><defs><style>.fa9790b2-edab-44cc-a300-fd93dbc114eb{fill:#1d1d1b;}</style></defs><g id="b983ff72-7a57-4872-9552-3e23c19aa9be" data-name="Ebene 2"><g id="b985ce7c-99a6-4a9c-be2d-58fb17345fdc" data-name="Ebene 1"><path class="fa9790b2-edab-44cc-a300-fd93dbc114eb" d="M12.16,2.19a.25.25,0,0,0-.25.25V4.3a.25.25,0,0,0,.25.25.25.25,0,0,0,.25-.25V2.44A.25.25,0,0,0,12.16,2.19Z"/><path class="fa9790b2-edab-44cc-a300-fd93dbc114eb" d="M7.43,4.31a.25.25,0,1,0-.35.35L8.39,6a.25.25,0,0,0,.18.08A.25.25,0,0,0,8.74,6a.24.24,0,0,0,0-.35Z"/><path class="fa9790b2-edab-44cc-a300-fd93dbc114eb" d="M16,12.85a.25.25,0,0,0-.36.36l1.32,1.31a.22.22,0,0,0,.17.07.25.25,0,0,0,.18-.42Z"/><path class="fa9790b2-edab-44cc-a300-fd93dbc114eb" d="M7.32,9.41a.25.25,0,0,0-.25-.25H5.21A.25.25,0,0,0,5,9.41a.25.25,0,0,0,.25.25H7.07A.25.25,0,0,0,7.32,9.41Z"/><path class="fa9790b2-edab-44cc-a300-fd93dbc114eb" d="M19.15,9.16H17.3a.25.25,0,0,0-.25.25.25.25,0,0,0,.25.25h1.85a.25.25,0,0,0,.25-.25A.25.25,0,0,0,19.15,9.16Z"/><path class="fa9790b2-edab-44cc-a300-fd93dbc114eb" d="M7.08,14.52a.23.23,0,0,0,.17.07.24.24,0,0,0,.18-.07l1.31-1.31a.25.25,0,0,0,0-.36.26.26,0,0,0-.35,0L7.08,14.17A.24.24,0,0,0,7.08,14.52Z"/><path class="fa9790b2-edab-44cc-a300-fd93dbc114eb" d="M17.29,4.31a.24.24,0,0,0-.35,0L15.62,5.62a.26.26,0,0,0,0,.35A.24.24,0,0,0,16,6l1.31-1.31A.24.24,0,0,0,17.29,4.31Z"/><path class="fa9790b2-edab-44cc-a300-fd93dbc114eb" d="M12.18,0A12.2,12.2,0,0,0,.63,16.07,12.66,12.66,0,0,0,2,18.93a12.22,12.22,0,0,0,21.8-3.15,12.32,12.32,0,0,0,.54-3.6A12.2,12.2,0,0,0,12.18,0ZM10.74,23.77c-.16,0-.31-.06-.46-.09-.32-.05-.63-.09-.94-.17l-.53-.17c-.27-.08-.55-.15-.82-.26s-.36-.16-.54-.24-.5-.21-.74-.34l-.54-.33c-.22-.13-.45-.26-.66-.4s-.34-.27-.52-.41-.4-.3-.59-.47-.32-.32-.48-.48-.35-.34-.52-.53-.29-.37-.43-.55a6.26,6.26,0,0,1-.39-.51,14.52,14.52,0,0,1,7.78-3.56h0a1.13,1.13,0,0,0,1,.72h1.48a1.16,1.16,0,0,0,.42-.08,2.46,2.46,0,0,1-1.57,1l-.83.26c-1.86.57-2.39.75-2.35,1.17s.41.57,3.76.87c1,.1,1.79.14,2.33.17a7.44,7.44,0,0,0-1.36.79,2.84,2.84,0,0,0-1.34,2,2.47,2.47,0,0,0,.51,1.64l-.31,0A11.6,11.6,0,0,1,10.74,23.77Zm10.35-4c-.18.21-.37.4-.56.59s-.29.32-.45.46a7.91,7.91,0,0,1-.63.52l-.48.39c-.23.16-.47.3-.7.44s-.34.22-.52.32-.51.24-.77.36-.35.17-.53.24-.56.19-.85.28l-.52.17c-.32.08-.64.13-1,.18-.15,0-.3.07-.46.09s-.39,0-.59,0a.21.21,0,0,0,0-.1,2.07,2.07,0,0,1-.54-1.46,2.38,2.38,0,0,1,1.14-1.66,7.42,7.42,0,0,1,2.11-1c.22-.08.41-.14.38-.36s-.18-.23-.66-.25-1.45-.05-3-.19a19.52,19.52,0,0,1-3.18-.44,19.23,19.23,0,0,1,1.86-.63l.84-.26q1.86-.58,2-1.71a1.38,1.38,0,0,0,0-.35l.05-.12h0a14.57,14.57,0,0,1,7.9,3.42c-.13.2-.28.39-.42.58S21.23,19.57,21.09,19.73Zm-7.69-4.5a.61.61,0,0,1-.48.24H11.44a.62.62,0,0,1-.49-.26,14.09,14.09,0,0,1,2.43,0A.14.14,0,0,1,13.4,15.23Zm-2.14-3.62a.28.28,0,0,0,.23.13l.11,0L13,11l.73,1.44a.24.24,0,0,0,.22.14.27.27,0,0,0,.12,0,.24.24,0,0,0,.1-.34l-.73-1.43L14.92,10a.25.25,0,1,0-.23-.44l-1.43.73-.74-1.44a.24.24,0,0,0-.33-.1.24.24,0,0,0-.11.33l.66,1.3c-.88,0-2.8,0-3,.73-.19.56.56,1.11,1.13,1.47a7.61,7.61,0,0,1,2.32,2.07,14,14,0,0,0-2.33.05,2.57,2.57,0,0,0-1.08-2,4.12,4.12,0,0,1,2.44-7.44,4.2,4.2,0,0,1,.93.1,4.08,4.08,0,0,1,3.14,3.33,4.15,4.15,0,0,1-1.62,4,2.57,2.57,0,0,0-1,1.71,8.29,8.29,0,0,0-2.49-2.26c-1-.64-.93-.89-.93-.9.07-.22.91-.37,1.94-.38l-.74.37A.26.26,0,0,0,11.26,11.61Zm12.09,4a12.23,12.23,0,0,1-1.18,2.58,15.06,15.06,0,0,0-8.11-3.5h0a2.06,2.06,0,0,1,.88-1.59A4.63,4.63,0,0,0,13.22,4.9a5.33,5.33,0,0,0-1-.11,4.63,4.63,0,0,0-2.74,8.35,2.06,2.06,0,0,1,.88,1.62h0a15.06,15.06,0,0,0-8,3.65,11.75,11.75,0,0,1-1.2-2.5A11.57,11.57,0,0,1,.5,12.18a11.69,11.69,0,1,1,22.85,3.46Z"/></g></g></svg>