<?xml version="1.0" encoding="UTF-8"?>
<svg id="Ebene_2" data-name="Ebene 2" xmlns="http://www.w3.org/2000/svg" viewBox="0 0 315.03 1806.82">
  <g id="Ebene_2-2" data-name="Ebene 2">
    <path d="m309.02,891.93l-35.72-26.14c-2.51-1.82-6-1.28-7.82,1.21-1.82,2.49-1.28,6,1.21,7.82l30.7,22.46h-137.45V72.39C159.93,34.35,130.48,3.09,93.18.16L5.61,0C2.51,0,0,2.5,0,5.6s2.51,5.6,5.6,5.6h86.22c31.82,2.25,57.02,28.83,57.02,61.21v824.87h0s-143,0-143,0c-2.69,0-5.17,1.8-5.69,4.44-.72,3.6,2.01,6.76,5.48,6.76h143.21v825.91c0,32.66-25.65,59.44-57.86,61.27H5.58c-3.08,0-5.58,2.5-5.58,5.58s2.51,5.59,5.6,5.58l87.64-.24c.19,0,.5-.02.7-.03,36.94-3.29,66-34.39,66-72.17v-825.89h137.78l-31,22.46c-2.51,1.81-3.06,5.31-1.25,7.82,1.1,1.51,2.81,2.31,4.54,2.31,1.14,0,2.29-.35,3.27-1.06l35.68-25.85c3.84-2.78,6.05-6.83,6.06-11.11.01-4.27-2.18-8.33-6.01-11.13Z"/>
  </g>
</svg>