<?xml version="1.0" encoding="UTF-8"?>
<svg id="Ebene_2" data-name="Ebene 2" xmlns="http://www.w3.org/2000/svg" viewBox="0 0 730.07 76.37">
  <g id="Ebene_1-2" data-name="Ebene 1">
    <g>
      <path d="m0,32.58h720.66v11.2H0v-11.2Z"/>
      <path d="m685.05,76.37c-1.73,0-3.45-.8-4.54-2.31-1.81-2.5-1.26-6.01,1.25-7.82l35.68-25.86c.91-.66,1.43-1.41,1.43-2.06,0-.65-.52-1.41-1.43-2.07l-35.72-26.14c-2.49-1.82-3.04-5.33-1.21-7.82,1.82-2.5,5.31-3.04,7.82-1.21l35.72,26.14c3.83,2.8,6.02,6.86,6.01,11.13,0,4.27-2.22,8.32-6.06,11.11l-35.68,25.86c-.98.71-2.13,1.06-3.27,1.06h0Z"/>
    </g>
  </g>
</svg>