<svg width="90" height="73" viewBox="0 0 90 73" fill="none" xmlns="http://www.w3.org/2000/svg">
<path d="M41.1977 44.3612C37.1363 48.1601 30.9539 46.0429 28.3704 44.5095L28.3252 40.6018C22.588 37.5416 9.90739 30.6534 5.08237 27.5826C-0.948891 23.7441 1.55331 18.2437 1.50812 14.336C1.46293 10.4282 4.87451 9.60715 16.8467 9.4687C28.8188 9.33026 27.9275 6.21398 40.791 9.19181C53.6544 12.1696 61.387 15.2068 64.0428 22.9926C66.6987 30.7783 57.2829 30.1056 54.7898 36.3876C52.2966 42.6696 46.2744 39.6126 41.1977 44.3612Z" fill="#C18CCA"/>
<path d="M72.0187 2.0898C75.8124 3.51563 88.6163 21.5761 89.0906 24.9031H72.0187C69.1734 29.6558 62.724 39.6366 59.689 41.5377C55.8952 43.9141 47.3593 49.1422 34.0811 45.8152C20.803 42.4883 28.8647 45.8152 25.5452 31.0817C22.2256 16.3481 33.1327 31.0817 47.3593 23.9525C61.5858 16.8234 49.2561 20.6256 49.2561 9.69423C49.2561 -1.23713 50.6788 5.41673 53.9983 2.0898C57.3179 -1.23714 68.2249 0.663967 72.0187 2.0898Z" fill="#9CC89E"/>
<path d="M57.4678 31.0944C60.9843 32.4131 72.8524 49.1164 73.292 52.1933H57.4678C54.8304 56.5889 48.8524 65.8197 46.0392 67.5779C42.5227 69.7758 34.6106 74.6109 22.303 71.534C9.99526 68.4571 17.4678 71.534 14.3909 57.9076C11.3139 44.2812 21.4238 57.9076 34.6106 51.3142C47.7975 44.7208 36.3689 48.2373 36.3689 38.1274C36.3689 28.0175 37.6876 34.1713 40.7645 31.0944C43.8414 28.0175 53.9513 29.7757 57.4678 31.0944Z" fill="#7AC5E7"/>
</svg>
