<?xml version="1.0" encoding="UTF-8"?>
<svg width="700pt" height="700pt" version="1.1" viewBox="0 0 700 700" xmlns="http://www.w3.org/2000/svg" xmlns:xlink="http://www.w3.org/1999/xlink">
 <defs>
  <symbol id="t" overflow="visible">
   <path d="m19.547-1.1719c-1.0117 0.52344-2.0625 0.91406-3.1562 1.1719-1.0938 0.26953-2.2344 0.40625-3.4219 0.40625-3.543 0-6.3516-0.98828-8.4219-2.9688-2.0625-1.9766-3.0938-4.6602-3.0938-8.0469 0-3.4062 1.0312-6.0977 3.0938-8.0781 2.0703-1.9766 4.8789-2.9688 8.4219-2.9688 1.1875 0 2.3281 0.13672 3.4219 0.40625 1.0938 0.26172 2.1445 0.65625 3.1562 1.1875v4.3906c-1.0234-0.6875-2.0273-1.1914-3.0156-1.5156-0.98047-0.32031-2.0156-0.48438-3.1094-0.48438-1.9609 0-3.5 0.625-4.625 1.875-1.1172 1.25-1.6719 2.9805-1.6719 5.1875 0 2.1875 0.55469 3.9141 1.6719 5.1719 1.125 1.25 2.6641 1.875 4.625 1.875 1.0938 0 2.1289-0.16016 3.1094-0.48438 0.98828-0.32031 1.9922-0.82812 3.0156-1.5156z"/>
  </symbol>
  <symbol id="c" overflow="visible">
   <path d="m14.297-11.609c-0.44922-0.20703-0.89062-0.35938-1.3281-0.45312-0.4375-0.10156-0.88281-0.15625-1.3281-0.15625-1.3125 0-2.3242 0.42188-3.0312 1.2656-0.71094 0.83594-1.0625 2.0391-1.0625 3.6094v7.3438h-5.0938v-15.953h5.0938v2.625c0.65625-1.0508 1.4062-1.8164 2.25-2.2969 0.85156-0.47656 1.875-0.71875 3.0625-0.71875 0.17578 0 0.36328 0.011719 0.5625 0.03125 0.19531 0.011719 0.48438 0.042969 0.85938 0.09375z"/>
  </symbol>
  <symbol id="b" overflow="visible">
   <path d="m18.375-8.0156v1.4531h-11.922c0.125 1.1992 0.55469 2.0938 1.2969 2.6875 0.73828 0.59375 1.7734 0.89062 3.1094 0.89062 1.0703 0 2.1719-0.15625 3.2969-0.46875 1.125-0.32031 2.2812-0.80469 3.4688-1.4531v3.9375c-1.2109 0.46094-2.418 0.80469-3.625 1.0312-1.2109 0.22656-2.4141 0.34375-3.6094 0.34375-2.8984 0-5.1484-0.72656-6.75-2.1875-1.5938-1.4688-2.3906-3.5312-2.3906-6.1875 0-2.5938 0.78516-4.6328 2.3594-6.125 1.5703-1.5 3.7344-2.25 6.4844-2.25 2.5078 0 4.5156 0.75781 6.0156 2.2656 1.5078 1.5117 2.2656 3.5312 2.2656 6.0625zm-5.2344-1.7031c0-0.96875-0.28906-1.75-0.85938-2.3438-0.5625-0.59375-1.2969-0.89062-2.2031-0.89062-0.99219 0-1.7969 0.28125-2.4219 0.84375-0.61719 0.55469-0.99609 1.3516-1.1406 2.3906z"/>
  </symbol>
  <symbol id="m" overflow="visible">
   <path d="m9.5938-7.1719c-1.0625 0-1.8672 0.18359-2.4062 0.54688-0.53125 0.35547-0.79688 0.88281-0.79688 1.5781 0 0.64844 0.21094 1.1523 0.64062 1.5156 0.4375 0.36719 1.0391 0.54688 1.8125 0.54688 0.95703 0 1.7656-0.34375 2.4219-1.0312s0.98438-1.5469 0.98438-2.5781v-0.57812zm7.7969-1.9375v9.1094h-5.1406v-2.3594c-0.6875 0.96875-1.4609 1.6719-2.3125 2.1094-0.85547 0.4375-1.8906 0.65625-3.1094 0.65625-1.6562 0-3-0.47656-4.0312-1.4375-1.0312-0.96875-1.5469-2.2188-1.5469-3.75 0-1.875 0.64062-3.25 1.9219-4.125 1.2891-0.875 3.3164-1.3125 6.0781-1.3125h3v-0.39062c0-0.8125-0.32031-1.4062-0.95312-1.7812-0.63672-0.375-1.6328-0.5625-2.9844-0.5625-1.0859 0-2.1016 0.10938-3.0469 0.32812-0.9375 0.21875-1.8086 0.54688-2.6094 0.98438v-3.8906c1.082-0.25781 2.1758-0.45703 3.2812-0.59375 1.1016-0.14453 2.207-0.21875 3.3125-0.21875 2.875 0 4.9453 0.57031 6.2188 1.7031 1.2812 1.1367 1.9219 2.9805 1.9219 5.5312z"/>
  </symbol>
  <symbol id="d" overflow="visible">
   <path d="m8.0156-20.484v4.5312h5.2656v3.6406h-5.2656v6.7656c0 0.74219 0.14453 1.2461 0.4375 1.5156 0.30078 0.26172 0.89062 0.39062 1.7656 0.39062h2.6094v3.6406h-4.3594c-2.0234 0-3.4531-0.41406-4.2969-1.25-0.83594-0.84375-1.25-2.2734-1.25-4.2969v-6.7656h-2.5312v-3.6406h2.5312v-4.5312z"/>
  </symbol>
  <symbol id="l" overflow="visible">
   <path d="m13.297-13.625v-8.5312h5.1406v22.156h-5.1406v-2.3125c-0.69922 0.94922-1.4688 1.6406-2.3125 2.0781-0.84375 0.42578-1.8242 0.64062-2.9375 0.64062-1.9688 0-3.5859-0.77344-4.8438-2.3281-1.2617-1.5625-1.8906-3.5781-1.8906-6.0469 0-2.457 0.62891-4.4688 1.8906-6.0312 1.2578-1.5625 2.875-2.3438 4.8438-2.3438 1.1016 0 2.0781 0.22656 2.9219 0.67188 0.85156 0.4375 1.6289 1.1211 2.3281 2.0469zm-3.3594 10.328c1.0938 0 1.9258-0.39453 2.5-1.1875 0.57031-0.80078 0.85938-1.9609 0.85938-3.4844 0-1.5078-0.28906-2.6641-0.85938-3.4688-0.57422-0.80078-1.4062-1.2031-2.5-1.2031-1.0859 0-1.9141 0.40234-2.4844 1.2031-0.57422 0.80469-0.85938 1.9609-0.85938 3.4688 0 1.5234 0.28516 2.6836 0.85938 3.4844 0.57031 0.79297 1.3984 1.1875 2.4844 1.1875z"/>
  </symbol>
  <symbol id="k" overflow="visible">
   <path d="m10.938-3.2969c1.0938 0 1.9258-0.39453 2.5-1.1875 0.57031-0.80078 0.85938-1.9609 0.85938-3.4844 0-1.5078-0.28906-2.6641-0.85938-3.4688-0.57422-0.80078-1.4062-1.2031-2.5-1.2031s-1.9336 0.40234-2.5156 1.2031c-0.58594 0.80469-0.875 1.9609-0.875 3.4688 0 1.5117 0.28906 2.668 0.875 3.4688 0.58203 0.80469 1.4219 1.2031 2.5156 1.2031zm-3.3906-10.328c0.70703-0.92578 1.4883-1.6094 2.3438-2.0469 0.85156-0.44531 1.832-0.67188 2.9375-0.67188 1.9688 0 3.582 0.78125 4.8438 2.3438 1.2695 1.5625 1.9062 3.5742 1.9062 6.0312 0 2.4688-0.63672 4.4844-1.9062 6.0469-1.2617 1.5547-2.875 2.3281-4.8438 2.3281-1.1055 0-2.0859-0.21875-2.9375-0.65625-0.85547-0.4375-1.6367-1.125-2.3438-2.0625v2.3125h-5.0938v-22.156h5.0938z"/>
  </symbol>
  <symbol id="j" overflow="visible">
   <path d="m0.35938-15.953h5.0938l4.2969 10.828 3.6406-10.828h5.0938l-6.7031 17.469c-0.67969 1.7695-1.4648 3.0078-2.3594 3.7188-0.89844 0.70703-2.0781 1.0625-3.5469 1.0625h-2.9531v-3.3438h1.5938c0.86328 0 1.4922-0.14062 1.8906-0.42188 0.39453-0.27344 0.70312-0.76562 0.92188-1.4844l0.14062-0.4375z"/>
  </symbol>
  <symbol id="i" overflow="visible">
   <path d="m2.6719-21.266h14.812v4.1406h-9.3281v3.9688h8.7656v4.1406h-8.7656v4.875h9.6406v4.1406h-15.125z"/>
  </symbol>
  <symbol id="s" overflow="visible">
   <path d="m2.4531-22.156h5.0938v12.062l5.875-5.8594h5.9219l-7.7969 7.3281 8.4062 8.625h-6.1719l-6.2344-6.6562v6.6562h-5.0938z"/>
  </symbol>
  <symbol id="a" overflow="visible">
   <path d="m10.047-12.688c-1.1367 0-2 0.40625-2.5938 1.2188s-0.89062 1.9805-0.89062 3.5c0 1.5312 0.29688 2.7031 0.89062 3.5156s1.457 1.2188 2.5938 1.2188c1.1016 0 1.9453-0.40625 2.5312-1.2188 0.59375-0.8125 0.89062-1.9844 0.89062-3.5156 0-1.5195-0.29688-2.6875-0.89062-3.5-0.58594-0.8125-1.4297-1.2188-2.5312-1.2188zm0-3.6562c2.7383 0 4.8789 0.74609 6.4219 2.2344 1.5391 1.4805 2.3125 3.5273 2.3125 6.1406 0 2.625-0.77344 4.6797-2.3125 6.1562-1.543 1.4805-3.6836 2.2188-6.4219 2.2188-2.7617 0-4.918-0.73828-6.4688-2.2188-1.5547-1.4766-2.3281-3.5312-2.3281-6.1562 0-2.6133 0.77344-4.6602 2.3281-6.1406 1.5508-1.4883 3.707-2.2344 6.4688-2.2344z"/>
  </symbol>
  <symbol id="h" overflow="visible">
   <path d="m2.6719-21.266h9.1094c2.707 0 4.7852 0.60547 6.2344 1.8125 1.4453 1.1992 2.1719 2.9062 2.1719 5.125 0 2.2305-0.72656 3.9492-2.1719 5.1562-1.4492 1.1992-3.5273 1.7969-6.2344 1.7969h-3.625v7.375h-5.4844zm5.4844 3.9688v5.9375h3.0469c1.0625 0 1.8789-0.25391 2.4531-0.76562 0.58203-0.51953 0.875-1.2539 0.875-2.2031 0-0.94531-0.29297-1.6758-0.875-2.1875-0.57422-0.51953-1.3906-0.78125-2.4531-0.78125z"/>
  </symbol>
  <symbol id="g" overflow="visible">
   <path d="m2.2812-6.2031v-9.75h5.125v1.5938c0 0.86719-0.007812 1.9531-0.015625 3.2656-0.011719 1.3047-0.015625 2.1719-0.015625 2.6094 0 1.2812 0.03125 2.2031 0.09375 2.7656 0.070312 0.5625 0.1875 0.97656 0.34375 1.2344 0.21875 0.33594 0.49219 0.58984 0.82812 0.76562 0.33203 0.17969 0.71875 0.26562 1.1562 0.26562 1.0625 0 1.8945-0.40625 2.5-1.2188 0.61328-0.8125 0.92188-1.9453 0.92188-3.4062v-7.875h5.0938v15.953h-5.0938v-2.3125c-0.77344 0.9375-1.5898 1.625-2.4531 2.0625-0.85547 0.4375-1.7969 0.65625-2.8281 0.65625-1.8438 0-3.25-0.5625-4.2188-1.6875-0.96094-1.1328-1.4375-2.7734-1.4375-4.9219z"/>
  </symbol>
  <symbol id="f" overflow="visible">
   <path d="m18.484-9.7188v9.7188h-5.125v-7.4375c0-1.375-0.03125-2.3203-0.09375-2.8438-0.0625-0.51953-0.16797-0.90625-0.3125-1.1562-0.19922-0.33203-0.46875-0.58594-0.8125-0.76562-0.34375-0.1875-0.73438-0.28125-1.1719-0.28125-1.0625 0-1.9023 0.41406-2.5156 1.2344-0.60547 0.8125-0.90625 1.9492-0.90625 3.4062v7.8438h-5.0938v-15.953h5.0938v2.3281c0.76953-0.92578 1.5859-1.6094 2.4531-2.0469 0.86328-0.44531 1.8164-0.67188 2.8594-0.67188 1.8438 0 3.2383 0.57031 4.1875 1.7031 0.95703 1.125 1.4375 2.7656 1.4375 4.9219z"/>
  </symbol>
  <symbol id="e" overflow="visible">
   <path d="m17.234-13.297c0.64453-0.98828 1.4102-1.7422 2.2969-2.2656 0.89453-0.51953 1.875-0.78125 2.9375-0.78125 1.832 0 3.2266 0.57031 4.1875 1.7031 0.95703 1.125 1.4375 2.7656 1.4375 4.9219v9.7188h-5.125v-8.3125-0.39062c0.007812-0.13281 0.015625-0.32031 0.015625-0.5625 0-1.1328-0.16797-1.9531-0.5-2.4531-0.32422-0.50781-0.85938-0.76562-1.6094-0.76562-0.96875 0-1.7188 0.40234-2.25 1.2031-0.52344 0.79297-0.79297 1.9453-0.8125 3.4531v7.8281h-5.125v-8.3125c0-1.7695-0.15234-2.9062-0.45312-3.4062-0.30469-0.50781-0.84375-0.76562-1.625-0.76562-0.98047 0-1.7344 0.40234-2.2656 1.2031-0.53125 0.80469-0.79688 1.9492-0.79688 3.4375v7.8438h-5.125v-15.953h5.125v2.3281c0.625-0.89453 1.3438-1.5703 2.1562-2.0312 0.8125-0.45703 1.707-0.6875 2.6875-0.6875 1.1016 0 2.0781 0.26562 2.9219 0.79688s1.4844 1.2812 1.9219 2.25z"/>
  </symbol>
  <symbol id="r" overflow="visible">
   <path d="m12.953-22.156v3.3438h-2.8281c-0.71875 0-1.2266 0.13281-1.5156 0.39062-0.28125 0.26172-0.42188 0.71484-0.42188 1.3594v1.1094h4.3594v3.6406h-4.3594v12.312h-5.0938v-12.312h-2.5312v-3.6406h2.5312v-1.1094c0-1.7383 0.48438-3.0195 1.4531-3.8438 0.96875-0.83203 2.4688-1.25 4.5-1.25z"/>
  </symbol>
  <symbol id="q" overflow="visible">
   <path d="m18.484-9.7188v9.7188h-5.125v-7.4062c0-1.3945-0.03125-2.3516-0.09375-2.875-0.0625-0.51953-0.16797-0.90625-0.3125-1.1562-0.19922-0.33203-0.46875-0.58594-0.8125-0.76562-0.34375-0.1875-0.73438-0.28125-1.1719-0.28125-1.0625 0-1.9023 0.41406-2.5156 1.2344-0.60547 0.8125-0.90625 1.9492-0.90625 3.4062v7.8438h-5.0938v-22.156h5.0938v8.5312c0.76953-0.92578 1.5859-1.6094 2.4531-2.0469 0.86328-0.44531 1.8164-0.67188 2.8594-0.67188 1.8438 0 3.2383 0.57031 4.1875 1.7031 0.95703 1.125 1.4375 2.7656 1.4375 4.9219z"/>
  </symbol>
  <symbol id="p" overflow="visible">
   <path d="m2.6719-21.266h6.125l7.7344 14.578v-14.578h5.2031v21.266h-6.125l-7.7344-14.594v14.594h-5.2031z"/>
  </symbol>
  <symbol id="o" overflow="visible">
   <path d="m2.4531-15.953h5.0938v15.672c0 2.1328-0.51562 3.7656-1.5469 4.8906-1.0234 1.125-2.5078 1.6875-4.4531 1.6875h-2.5156v-3.3438h0.89062c0.96875 0 1.6289-0.21875 1.9844-0.65625 0.36328-0.4375 0.54688-1.2969 0.54688-2.5781zm0-6.2031h5.0938v4.1562h-5.0938z"/>
  </symbol>
  <symbol id="n" overflow="visible">
   <path d="m15.344-15.453v4.1562c-0.69922-0.46875-1.3984-0.81641-2.0938-1.0469-0.69922-0.22656-1.4219-0.34375-2.1719-0.34375-1.4297 0-2.5391 0.41797-3.3281 1.25-0.79297 0.82422-1.1875 1.9805-1.1875 3.4688 0 1.5 0.39453 2.668 1.1875 3.5 0.78906 0.82422 1.8984 1.2344 3.3281 1.2344 0.80078 0 1.5547-0.11719 2.2656-0.35938 0.71875-0.23828 1.3828-0.58594 2-1.0469v4.1719c-0.80469 0.29297-1.6172 0.50781-2.4375 0.65625-0.8125 0.14453-1.6367 0.21875-2.4688 0.21875-2.875 0-5.125-0.73438-6.75-2.2031-1.625-1.4766-2.4375-3.5352-2.4375-6.1719 0-2.625 0.8125-4.6758 2.4375-6.1562 1.625-1.4766 3.875-2.2188 6.75-2.2188 0.83203 0 1.6562 0.078125 2.4688 0.23438 0.8125 0.14844 1.625 0.36719 2.4375 0.65625z"/>
  </symbol>
 </defs>
 <g>
  <path d="m542.9 187.45c-37.434 0-68.367 28.27-72.629 64.57l-70.562-0.003906c-1.5-11.777-6.0312-22.621-12.805-31.711l56.047-54.012c12.625 10.359 28.766 16.59 46.328 16.59 40.336 0 73.156-32.816 73.156-73.156 0-40.336-32.816-73.148-73.156-73.148-40.336 0-73.156 32.816-73.156 73.148 0 16.598 5.5664 31.914 14.914 44.203l-56.059 54.023c-11.578-9.3164-26.273-14.902-42.258-14.902-14.914 0-28.719 4.8711-39.906 13.09l-49.129-51.699c10.559-12.684 16.918-28.973 16.918-46.727 0-40.336-32.816-73.156-73.156-73.156-40.336 0-73.156 32.816-73.156 73.156 0 40.336 32.816 73.156 73.156 73.156 16.414 0 31.582-5.4375 43.797-14.594l49.121 51.695c-9.4961 11.637-15.203 26.477-15.203 42.629 0 7.9922 1.4297 15.734 4.0547 22.953l-51.457 26.418c-13.152-19.496-35.449-32.348-60.684-32.348-40.336 0-73.156 32.816-73.156 73.156 0 40.336 32.816 73.156 73.156 73.156 40.336 0 73.156-32.816 73.156-73.156 0-8.9844-1.6406-17.586-4.6133-25.551l51.449-26.418c7.5781 11.023 18.379 19.785 31.254 24.773v27.695c-22.102 0.98438-37.352 16.586-37.352 38.609 0 0.21094 0.003906 0.42188 0.023438 0.62891l2.8594 38.977c1.6758 22.82 20.703 33.379 35.992 41.859 2.1406 1.1914 4.1641 2.3086 6.1133 3.4492 2.1406 1.25 3.2734 3.2148 3.2734 5.6914v36.34c0 2.2734 0.90234 4.457 2.5156 6.0664 1.6094 1.6094 3.793 2.5156 6.0664 2.5156h117.34c4.7422 0 8.582-3.8438 8.582-8.582v-36.34c0-1.9766 1.043-4.3711 2.3633-7.4023 2.1836-5.0117 5.1758-11.875 5.1758-21.582v-76.906c0-13.871-11.289-25.16-25.164-25.16-2.5195 0-5.0039 0.39063-7.3789 1.125-4.1953-8.3945-12.875-14.168-22.879-14.168-4.1016 0-8.0859 1.0156-11.645 2.8477-4.9648-7.0273-13.148-11.648-22.309-11.648-3.3906 0-6.668 0.63672-9.707 1.8086v-8.0547c20.406-9.9453 34.562-29.754 37.48-52.18h70.559c4.2656 36.309 35.203 64.57 72.629 64.57 40.336 0 73.156-32.816 73.156-73.156 0.035156-40.324-32.785-73.141-73.121-73.141zm-421.4 206.53c3.7109-16.438 18.316-28.375 35.582-28.379h0.011718 0.011719c17.262 0.003906 31.875 11.941 35.582 28.379-9.6836 7.9922-22.086 12.797-35.594 12.797-13.512 0.003906-25.91-4.8047-35.594-12.797zm21.379-59.762c0-7.8398 6.375-14.215 14.215-14.215s14.215 6.375 14.215 14.215c0 7.8359-6.375 14.211-14.211 14.215h-0.003906-0.003906c-7.8438 0-14.211-6.375-14.211-14.215zm62.625 44.648c-5.1328-10.723-13.68-19.395-24.203-24.699 4.4805-5.4258 7.1758-12.379 7.1758-19.949 0-17.301-14.074-31.383-31.383-31.383-17.301 0-31.383 14.074-31.383 31.383 0 7.5703 2.6953 14.523 7.1758 19.949-10.523 5.3008-19.074 13.973-24.203 24.699-4.8086-8.2617-7.5781-17.852-7.5781-28.074 0-30.871 25.117-55.988 55.988-55.988s55.988 25.117 55.988 55.988c0 10.223-2.7695 19.812-7.5781 28.074zm248.18-225.94c3.7109-16.445 18.328-28.379 35.594-28.379s31.887 11.934 35.594 28.379c-9.6836 7.9922-22.086 12.805-35.594 12.805-13.508-0.003907-25.91-4.8125-35.594-12.805zm35.598-45.539c-7.8398 0-14.215-6.375-14.215-14.215s6.375-14.215 14.215-14.215c7.8398 0 14.215 6.375 14.215 14.215 0 7.832-6.3828 14.215-14.215 14.215zm-0.007812-53.637c30.871 0 55.988 25.117 55.988 55.988 0 10.227-2.7695 19.816-7.5781 28.074-5.1328-10.723-13.684-19.395-24.203-24.699 4.4805-5.4258 7.1758-12.379 7.1758-19.949 0-17.301-14.074-31.379-31.383-31.379-17.301 0-31.383 14.074-31.383 31.379 0 7.5703 2.6953 14.523 7.1758 19.949-10.523 5.3008-19.074 13.973-24.203 24.699-4.8086-8.2617-7.5781-17.852-7.5781-28.074 0-30.871 25.121-55.988 55.988-55.988zm-301.82-2.0195c30.871 0 55.988 25.117 55.988 55.988 0 10.227-2.7695 19.816-7.5781 28.074-5.1328-10.723-13.68-19.395-24.203-24.699 4.4805-5.4258 7.1758-12.379 7.1758-19.949 0-17.301-14.074-31.383-31.383-31.383-17.301 0-31.383 14.074-31.383 31.383 0 7.5703 2.6953 14.52 7.1758 19.949-10.523 5.3008-19.074 13.973-24.203 24.699-4.8086-8.2617-7.5781-17.852-7.5781-28.074 0-30.871 25.113-55.988 55.988-55.988zm0 53.633c-7.8398 0-14.215-6.375-14.215-14.215 0-7.8398 6.375-14.215 14.215-14.215 7.8398 0 14.215 6.375 14.215 14.215 0 7.8359-6.375 14.215-14.215 14.215zm-35.598 45.547c3.7109-16.445 18.328-28.379 35.594-28.379s31.887 11.934 35.594 28.379c-9.6836 7.9922-22.086 12.805-35.594 12.805-13.508-0.003906-25.91-4.8164-35.594-12.805zm184.56 357.36v-19.176h100.18v19.176zm35.512-163.49c5.4609 0 9.9805 4.4258 10.109 9.875v30.586c0 4.7422 3.8438 8.582 8.582 8.582s8.582-3.8438 8.582-8.582l-0.003906-28.297c1.582-2.0703 4.0469-3.3594 6.668-3.3594 4.625 0 8.3867 3.7617 8.3867 8.3867v33.461c0 4.7422 3.8438 8.582 8.582 8.582 4.7422 0 8.582-3.8438 8.582-8.582v-27.242c1.3516-0.99609 2.9805-1.5586 4.7031-1.5586 4.4102 0 7.9961 3.5859 7.9961 7.9961v76.906c0 6.1289-1.8203 10.309-3.7461 14.73-0.80078 1.8359-1.5977 3.7031-2.2695 5.6719h-103.27c-1.8945-4.9414-5.4258-9.1523-10.215-11.941-2.1055-1.2266-4.3047-2.4453-6.4297-3.6211-15.832-8.7852-26.273-15.48-27.199-28.105l-2.8359-38.645c0.12109-12.355 7.7695-20.27 20.184-21.117v37.305c0 4.7422 3.8438 8.582 8.582 8.582 4.7422 0 8.582-3.8438 8.582-8.582v-121.77c0-5.3906 4.3867-9.7773 9.7812-9.7773 5.3906 0 9.7773 4.3867 9.7773 9.7773v97.637c0 4.7422 3.8438 8.582 8.582 8.582 4.7422 0 8.582-3.8438 8.582-8.582v-29.621c1.2695-4.2539 5.2305-7.2734 9.7109-7.2734zm-9.6992-43.352v-17.391c0-14.859-12.086-26.945-26.945-26.945-14.859 0-26.945 12.086-26.945 26.945v20.656c-15.734-8.7344-26-25.527-26-44.09 0-27.785 22.605-50.383 50.383-50.383 27.777 0 50.383 22.605 50.383 50.383 0 16.312-8.0312 31.48-20.875 40.824zm180.67-96.809c30.871 0 55.988 25.117 55.988 55.988 0 10.227-2.7695 19.816-7.5781 28.074-5.1328-10.723-13.68-19.395-24.203-24.699 4.4805-5.4258 7.1758-12.379 7.1758-19.949 0-17.301-14.074-31.383-31.383-31.383-17.301 0-31.383 14.074-31.383 31.383 0 7.5703 2.6953 14.52 7.1758 19.949-10.523 5.3008-19.074 13.973-24.203 24.699-4.8086-8.2617-7.5781-17.852-7.5781-28.074 0-30.871 25.117-55.988 55.988-55.988zm0 53.629c-7.8398 0-14.215-6.375-14.215-14.215s6.375-14.215 14.215-14.215 14.215 6.375 14.215 14.215-6.375 14.215-14.215 14.215zm-35.594 45.547c3.7109-16.445 18.324-28.379 35.594-28.379 17.266 0 31.887 11.934 35.594 28.379-9.6836 7.9922-22.086 12.797-35.594 12.797-13.504 0.003906-25.91-4.8047-35.594-12.797z"/>
  <use x="70" y="647.5" xlink:href="#t"/>
  <use x="91.40625" y="647.5" xlink:href="#c"/>
  <use x="105.789062" y="647.5" xlink:href="#b"/>
  <use x="125.570312" y="647.5" xlink:href="#m"/>
  <use x="145.253906" y="647.5" xlink:href="#d"/>
  <use x="159.195312" y="647.5" xlink:href="#b"/>
  <use x="178.976562" y="647.5" xlink:href="#l"/>
  <use x="210.007812" y="647.5" xlink:href="#k"/>
  <use x="230.886719" y="647.5" xlink:href="#j"/>
  <use x="260.054688" y="647.5" xlink:href="#i"/>
  <use x="279.976562" y="647.5" xlink:href="#s"/>
  <use x="299.375" y="647.5" xlink:href="#a"/>
  <use x="329.566406" y="647.5" xlink:href="#h"/>
  <use x="350.941406" y="647.5" xlink:href="#g"/>
  <use x="371.707031" y="647.5" xlink:href="#c"/>
  <use x="386.089844" y="647.5" xlink:href="#f"/>
  <use x="406.855469" y="647.5" xlink:href="#a"/>
  <use x="426.894531" y="647.5" xlink:href="#e"/>
  <use x="457.285156" y="647.5" xlink:href="#a"/>
  <use x="70" y="676.667969" xlink:href="#r"/>
  <use x="82.6875" y="676.667969" xlink:href="#c"/>
  <use x="97.074219" y="676.667969" xlink:href="#a"/>
  <use x="117.109375" y="676.667969" xlink:href="#e"/>
  <use x="157.65625" y="676.667969" xlink:href="#d"/>
  <use x="171.597656" y="676.667969" xlink:href="#q"/>
  <use x="192.363281" y="676.667969" xlink:href="#b"/>
  <use x="222.300781" y="676.667969" xlink:href="#p"/>
  <use x="246.710938" y="676.667969" xlink:href="#a"/>
  <use x="266.746094" y="676.667969" xlink:href="#g"/>
  <use x="287.511719" y="676.667969" xlink:href="#f"/>
  <use x="318.429688" y="676.667969" xlink:href="#h"/>
  <use x="339.804688" y="676.667969" xlink:href="#c"/>
  <use x="354.191406" y="676.667969" xlink:href="#a"/>
  <use x="374.226562" y="676.667969" xlink:href="#o"/>
  <use x="384.226562" y="676.667969" xlink:href="#b"/>
  <use x="404.007812" y="676.667969" xlink:href="#n"/>
  <use x="421.296875" y="676.667969" xlink:href="#d"/>
 </g>
</svg>
