<?xml version="1.0" encoding="UTF-8"?>
<svg width="700pt" height="700pt" version="1.1" viewBox="0 0 700 700" xmlns="http://www.w3.org/2000/svg" xmlns:xlink="http://www.w3.org/1999/xlink">
 <defs>
  <symbol id="t" overflow="visible">
   <path d="m19.547-1.1719c-1.0117 0.52344-2.0625 0.91406-3.1562 1.1719-1.0938 0.26953-2.2344 0.40625-3.4219 0.40625-3.543 0-6.3516-0.98828-8.4219-2.9688-2.0625-1.9766-3.0938-4.6602-3.0938-8.0469 0-3.4062 1.0312-6.0977 3.0938-8.0781 2.0703-1.9766 4.8789-2.9688 8.4219-2.9688 1.1875 0 2.3281 0.13672 3.4219 0.40625 1.0938 0.26172 2.1445 0.65625 3.1562 1.1875v4.3906c-1.0234-0.6875-2.0273-1.1914-3.0156-1.5156-0.98047-0.32031-2.0156-0.48438-3.1094-0.48438-1.9609 0-3.5 0.625-4.625 1.875-1.1172 1.25-1.6719 2.9805-1.6719 5.1875 0 2.1875 0.55469 3.9141 1.6719 5.1719 1.125 1.25 2.6641 1.875 4.625 1.875 1.0938 0 2.1289-0.16016 3.1094-0.48438 0.98828-0.32031 1.9922-0.82812 3.0156-1.5156z"/>
  </symbol>
  <symbol id="c" overflow="visible">
   <path d="m14.297-11.609c-0.44922-0.20703-0.89062-0.35938-1.3281-0.45312-0.4375-0.10156-0.88281-0.15625-1.3281-0.15625-1.3125 0-2.3242 0.42188-3.0312 1.2656-0.71094 0.83594-1.0625 2.0391-1.0625 3.6094v7.3438h-5.0938v-15.953h5.0938v2.625c0.65625-1.0508 1.4062-1.8164 2.25-2.2969 0.85156-0.47656 1.875-0.71875 3.0625-0.71875 0.17578 0 0.36328 0.011719 0.5625 0.03125 0.19531 0.011719 0.48438 0.042969 0.85938 0.09375z"/>
  </symbol>
  <symbol id="b" overflow="visible">
   <path d="m18.375-8.0156v1.4531h-11.922c0.125 1.1992 0.55469 2.0938 1.2969 2.6875 0.73828 0.59375 1.7734 0.89062 3.1094 0.89062 1.0703 0 2.1719-0.15625 3.2969-0.46875 1.125-0.32031 2.2812-0.80469 3.4688-1.4531v3.9375c-1.2109 0.46094-2.418 0.80469-3.625 1.0312-1.2109 0.22656-2.4141 0.34375-3.6094 0.34375-2.8984 0-5.1484-0.72656-6.75-2.1875-1.5938-1.4688-2.3906-3.5312-2.3906-6.1875 0-2.5938 0.78516-4.6328 2.3594-6.125 1.5703-1.5 3.7344-2.25 6.4844-2.25 2.5078 0 4.5156 0.75781 6.0156 2.2656 1.5078 1.5117 2.2656 3.5312 2.2656 6.0625zm-5.2344-1.7031c0-0.96875-0.28906-1.75-0.85938-2.3438-0.5625-0.59375-1.2969-0.89062-2.2031-0.89062-0.99219 0-1.7969 0.28125-2.4219 0.84375-0.61719 0.55469-0.99609 1.3516-1.1406 2.3906z"/>
  </symbol>
  <symbol id="m" overflow="visible">
   <path d="m9.5938-7.1719c-1.0625 0-1.8672 0.18359-2.4062 0.54688-0.53125 0.35547-0.79688 0.88281-0.79688 1.5781 0 0.64844 0.21094 1.1523 0.64062 1.5156 0.4375 0.36719 1.0391 0.54688 1.8125 0.54688 0.95703 0 1.7656-0.34375 2.4219-1.0312s0.98438-1.5469 0.98438-2.5781v-0.57812zm7.7969-1.9375v9.1094h-5.1406v-2.3594c-0.6875 0.96875-1.4609 1.6719-2.3125 2.1094-0.85547 0.4375-1.8906 0.65625-3.1094 0.65625-1.6562 0-3-0.47656-4.0312-1.4375-1.0312-0.96875-1.5469-2.2188-1.5469-3.75 0-1.875 0.64062-3.25 1.9219-4.125 1.2891-0.875 3.3164-1.3125 6.0781-1.3125h3v-0.39062c0-0.8125-0.32031-1.4062-0.95312-1.7812-0.63672-0.375-1.6328-0.5625-2.9844-0.5625-1.0859 0-2.1016 0.10938-3.0469 0.32812-0.9375 0.21875-1.8086 0.54688-2.6094 0.98438v-3.8906c1.082-0.25781 2.1758-0.45703 3.2812-0.59375 1.1016-0.14453 2.207-0.21875 3.3125-0.21875 2.875 0 4.9453 0.57031 6.2188 1.7031 1.2812 1.1367 1.9219 2.9805 1.9219 5.5312z"/>
  </symbol>
  <symbol id="d" overflow="visible">
   <path d="m8.0156-20.484v4.5312h5.2656v3.6406h-5.2656v6.7656c0 0.74219 0.14453 1.2461 0.4375 1.5156 0.30078 0.26172 0.89062 0.39062 1.7656 0.39062h2.6094v3.6406h-4.3594c-2.0234 0-3.4531-0.41406-4.2969-1.25-0.83594-0.84375-1.25-2.2734-1.25-4.2969v-6.7656h-2.5312v-3.6406h2.5312v-4.5312z"/>
  </symbol>
  <symbol id="l" overflow="visible">
   <path d="m13.297-13.625v-8.5312h5.1406v22.156h-5.1406v-2.3125c-0.69922 0.94922-1.4688 1.6406-2.3125 2.0781-0.84375 0.42578-1.8242 0.64062-2.9375 0.64062-1.9688 0-3.5859-0.77344-4.8438-2.3281-1.2617-1.5625-1.8906-3.5781-1.8906-6.0469 0-2.457 0.62891-4.4688 1.8906-6.0312 1.2578-1.5625 2.875-2.3438 4.8438-2.3438 1.1016 0 2.0781 0.22656 2.9219 0.67188 0.85156 0.4375 1.6289 1.1211 2.3281 2.0469zm-3.3594 10.328c1.0938 0 1.9258-0.39453 2.5-1.1875 0.57031-0.80078 0.85938-1.9609 0.85938-3.4844 0-1.5078-0.28906-2.6641-0.85938-3.4688-0.57422-0.80078-1.4062-1.2031-2.5-1.2031-1.0859 0-1.9141 0.40234-2.4844 1.2031-0.57422 0.80469-0.85938 1.9609-0.85938 3.4688 0 1.5234 0.28516 2.6836 0.85938 3.4844 0.57031 0.79297 1.3984 1.1875 2.4844 1.1875z"/>
  </symbol>
  <symbol id="k" overflow="visible">
   <path d="m10.938-3.2969c1.0938 0 1.9258-0.39453 2.5-1.1875 0.57031-0.80078 0.85938-1.9609 0.85938-3.4844 0-1.5078-0.28906-2.6641-0.85938-3.4688-0.57422-0.80078-1.4062-1.2031-2.5-1.2031s-1.9336 0.40234-2.5156 1.2031c-0.58594 0.80469-0.875 1.9609-0.875 3.4688 0 1.5117 0.28906 2.668 0.875 3.4688 0.58203 0.80469 1.4219 1.2031 2.5156 1.2031zm-3.3906-10.328c0.70703-0.92578 1.4883-1.6094 2.3438-2.0469 0.85156-0.44531 1.832-0.67188 2.9375-0.67188 1.9688 0 3.582 0.78125 4.8438 2.3438 1.2695 1.5625 1.9062 3.5742 1.9062 6.0312 0 2.4688-0.63672 4.4844-1.9062 6.0469-1.2617 1.5547-2.875 2.3281-4.8438 2.3281-1.1055 0-2.0859-0.21875-2.9375-0.65625-0.85547-0.4375-1.6367-1.125-2.3438-2.0625v2.3125h-5.0938v-22.156h5.0938z"/>
  </symbol>
  <symbol id="j" overflow="visible">
   <path d="m0.35938-15.953h5.0938l4.2969 10.828 3.6406-10.828h5.0938l-6.7031 17.469c-0.67969 1.7695-1.4648 3.0078-2.3594 3.7188-0.89844 0.70703-2.0781 1.0625-3.5469 1.0625h-2.9531v-3.3438h1.5938c0.86328 0 1.4922-0.14062 1.8906-0.42188 0.39453-0.27344 0.70312-0.76562 0.92188-1.4844l0.14062-0.4375z"/>
  </symbol>
  <symbol id="i" overflow="visible">
   <path d="m2.6719-21.266h14.812v4.1406h-9.3281v3.9688h8.7656v4.1406h-8.7656v4.875h9.6406v4.1406h-15.125z"/>
  </symbol>
  <symbol id="s" overflow="visible">
   <path d="m2.4531-22.156h5.0938v12.062l5.875-5.8594h5.9219l-7.7969 7.3281 8.4062 8.625h-6.1719l-6.2344-6.6562v6.6562h-5.0938z"/>
  </symbol>
  <symbol id="a" overflow="visible">
   <path d="m10.047-12.688c-1.1367 0-2 0.40625-2.5938 1.2188s-0.89062 1.9805-0.89062 3.5c0 1.5312 0.29688 2.7031 0.89062 3.5156s1.457 1.2188 2.5938 1.2188c1.1016 0 1.9453-0.40625 2.5312-1.2188 0.59375-0.8125 0.89062-1.9844 0.89062-3.5156 0-1.5195-0.29688-2.6875-0.89062-3.5-0.58594-0.8125-1.4297-1.2188-2.5312-1.2188zm0-3.6562c2.7383 0 4.8789 0.74609 6.4219 2.2344 1.5391 1.4805 2.3125 3.5273 2.3125 6.1406 0 2.625-0.77344 4.6797-2.3125 6.1562-1.543 1.4805-3.6836 2.2188-6.4219 2.2188-2.7617 0-4.918-0.73828-6.4688-2.2188-1.5547-1.4766-2.3281-3.5312-2.3281-6.1562 0-2.6133 0.77344-4.6602 2.3281-6.1406 1.5508-1.4883 3.707-2.2344 6.4688-2.2344z"/>
  </symbol>
  <symbol id="h" overflow="visible">
   <path d="m2.6719-21.266h9.1094c2.707 0 4.7852 0.60547 6.2344 1.8125 1.4453 1.1992 2.1719 2.9062 2.1719 5.125 0 2.2305-0.72656 3.9492-2.1719 5.1562-1.4492 1.1992-3.5273 1.7969-6.2344 1.7969h-3.625v7.375h-5.4844zm5.4844 3.9688v5.9375h3.0469c1.0625 0 1.8789-0.25391 2.4531-0.76562 0.58203-0.51953 0.875-1.2539 0.875-2.2031 0-0.94531-0.29297-1.6758-0.875-2.1875-0.57422-0.51953-1.3906-0.78125-2.4531-0.78125z"/>
  </symbol>
  <symbol id="g" overflow="visible">
   <path d="m2.2812-6.2031v-9.75h5.125v1.5938c0 0.86719-0.007812 1.9531-0.015625 3.2656-0.011719 1.3047-0.015625 2.1719-0.015625 2.6094 0 1.2812 0.03125 2.2031 0.09375 2.7656 0.070312 0.5625 0.1875 0.97656 0.34375 1.2344 0.21875 0.33594 0.49219 0.58984 0.82812 0.76562 0.33203 0.17969 0.71875 0.26562 1.1562 0.26562 1.0625 0 1.8945-0.40625 2.5-1.2188 0.61328-0.8125 0.92188-1.9453 0.92188-3.4062v-7.875h5.0938v15.953h-5.0938v-2.3125c-0.77344 0.9375-1.5898 1.625-2.4531 2.0625-0.85547 0.4375-1.7969 0.65625-2.8281 0.65625-1.8438 0-3.25-0.5625-4.2188-1.6875-0.96094-1.1328-1.4375-2.7734-1.4375-4.9219z"/>
  </symbol>
  <symbol id="f" overflow="visible">
   <path d="m18.484-9.7188v9.7188h-5.125v-7.4375c0-1.375-0.03125-2.3203-0.09375-2.8438-0.0625-0.51953-0.16797-0.90625-0.3125-1.1562-0.19922-0.33203-0.46875-0.58594-0.8125-0.76562-0.34375-0.1875-0.73438-0.28125-1.1719-0.28125-1.0625 0-1.9023 0.41406-2.5156 1.2344-0.60547 0.8125-0.90625 1.9492-0.90625 3.4062v7.8438h-5.0938v-15.953h5.0938v2.3281c0.76953-0.92578 1.5859-1.6094 2.4531-2.0469 0.86328-0.44531 1.8164-0.67188 2.8594-0.67188 1.8438 0 3.2383 0.57031 4.1875 1.7031 0.95703 1.125 1.4375 2.7656 1.4375 4.9219z"/>
  </symbol>
  <symbol id="e" overflow="visible">
   <path d="m17.234-13.297c0.64453-0.98828 1.4102-1.7422 2.2969-2.2656 0.89453-0.51953 1.875-0.78125 2.9375-0.78125 1.832 0 3.2266 0.57031 4.1875 1.7031 0.95703 1.125 1.4375 2.7656 1.4375 4.9219v9.7188h-5.125v-8.3125-0.39062c0.007812-0.13281 0.015625-0.32031 0.015625-0.5625 0-1.1328-0.16797-1.9531-0.5-2.4531-0.32422-0.50781-0.85938-0.76562-1.6094-0.76562-0.96875 0-1.7188 0.40234-2.25 1.2031-0.52344 0.79297-0.79297 1.9453-0.8125 3.4531v7.8281h-5.125v-8.3125c0-1.7695-0.15234-2.9062-0.45312-3.4062-0.30469-0.50781-0.84375-0.76562-1.625-0.76562-0.98047 0-1.7344 0.40234-2.2656 1.2031-0.53125 0.80469-0.79688 1.9492-0.79688 3.4375v7.8438h-5.125v-15.953h5.125v2.3281c0.625-0.89453 1.3438-1.5703 2.1562-2.0312 0.8125-0.45703 1.707-0.6875 2.6875-0.6875 1.1016 0 2.0781 0.26562 2.9219 0.79688s1.4844 1.2812 1.9219 2.25z"/>
  </symbol>
  <symbol id="r" overflow="visible">
   <path d="m12.953-22.156v3.3438h-2.8281c-0.71875 0-1.2266 0.13281-1.5156 0.39062-0.28125 0.26172-0.42188 0.71484-0.42188 1.3594v1.1094h4.3594v3.6406h-4.3594v12.312h-5.0938v-12.312h-2.5312v-3.6406h2.5312v-1.1094c0-1.7383 0.48438-3.0195 1.4531-3.8438 0.96875-0.83203 2.4688-1.25 4.5-1.25z"/>
  </symbol>
  <symbol id="q" overflow="visible">
   <path d="m18.484-9.7188v9.7188h-5.125v-7.4062c0-1.3945-0.03125-2.3516-0.09375-2.875-0.0625-0.51953-0.16797-0.90625-0.3125-1.1562-0.19922-0.33203-0.46875-0.58594-0.8125-0.76562-0.34375-0.1875-0.73438-0.28125-1.1719-0.28125-1.0625 0-1.9023 0.41406-2.5156 1.2344-0.60547 0.8125-0.90625 1.9492-0.90625 3.4062v7.8438h-5.0938v-22.156h5.0938v8.5312c0.76953-0.92578 1.5859-1.6094 2.4531-2.0469 0.86328-0.44531 1.8164-0.67188 2.8594-0.67188 1.8438 0 3.2383 0.57031 4.1875 1.7031 0.95703 1.125 1.4375 2.7656 1.4375 4.9219z"/>
  </symbol>
  <symbol id="p" overflow="visible">
   <path d="m2.6719-21.266h6.125l7.7344 14.578v-14.578h5.2031v21.266h-6.125l-7.7344-14.594v14.594h-5.2031z"/>
  </symbol>
  <symbol id="o" overflow="visible">
   <path d="m2.4531-15.953h5.0938v15.672c0 2.1328-0.51562 3.7656-1.5469 4.8906-1.0234 1.125-2.5078 1.6875-4.4531 1.6875h-2.5156v-3.3438h0.89062c0.96875 0 1.6289-0.21875 1.9844-0.65625 0.36328-0.4375 0.54688-1.2969 0.54688-2.5781zm0-6.2031h5.0938v4.1562h-5.0938z"/>
  </symbol>
  <symbol id="n" overflow="visible">
   <path d="m15.344-15.453v4.1562c-0.69922-0.46875-1.3984-0.81641-2.0938-1.0469-0.69922-0.22656-1.4219-0.34375-2.1719-0.34375-1.4297 0-2.5391 0.41797-3.3281 1.25-0.79297 0.82422-1.1875 1.9805-1.1875 3.4688 0 1.5 0.39453 2.668 1.1875 3.5 0.78906 0.82422 1.8984 1.2344 3.3281 1.2344 0.80078 0 1.5547-0.11719 2.2656-0.35938 0.71875-0.23828 1.3828-0.58594 2-1.0469v4.1719c-0.80469 0.29297-1.6172 0.50781-2.4375 0.65625-0.8125 0.14453-1.6367 0.21875-2.4688 0.21875-2.875 0-5.125-0.73438-6.75-2.2031-1.625-1.4766-2.4375-3.5352-2.4375-6.1719 0-2.625 0.8125-4.6758 2.4375-6.1562 1.625-1.4766 3.875-2.2188 6.75-2.2188 0.83203 0 1.6562 0.078125 2.4688 0.23438 0.8125 0.14844 1.625 0.36719 2.4375 0.65625z"/>
  </symbol>
 </defs>
 <g>
  <path d="m400.59 328.38h-93.637c-3.207 0-6.1484 1.8008-7.5938 4.668-4.3398 8.582-6.5391 17.832-6.5391 27.504 0 33.613 27.348 60.957 60.957 60.957 33.613 0 60.957-27.348 60.957-60.957 0-9.6719-2.1992-18.93-6.5391-27.504-1.457-2.8594-4.3945-4.668-7.6055-4.668zm-46.816 76.109c-24.227 0-43.93-19.703-43.93-43.93 0-5.25 0.89844-10.324 2.6719-15.148h82.52c1.7734 4.8242 2.6719 9.8984 2.6719 15.148-0.003906 24.219-19.715 43.93-43.934 43.93zm174.83-210.03h-50.953c-3.6523-11.953-14.781-20.668-27.914-20.668-16.09 0-29.18 13.09-29.18 29.18s13.09 29.18 29.18 29.18c13.129 0 24.262-8.7148 27.914-20.668h42.441v116.89h-12.062v-54.461c0-4.7031-3.8086-8.5117-8.5117-8.5117h-13.824c-3.6523-11.953-14.781-20.668-27.914-20.668-16.09 0-29.18 13.09-29.18 29.18s13.09 29.18 29.18 29.18c13.129 0 24.262-8.7148 27.914-20.668h5.3125v45.941h-50.652c-2.6523 0-5.1562 1.2383-6.7656 3.3438s-2.1484 4.8477-1.4453 7.4102c1.8945 6.9609 2.8594 14.168 2.8594 21.426 0 44.789-36.441 81.23-81.23 81.23s-81.23-36.441-81.23-81.23c0-7.2578 0.96094-14.465 2.8594-21.422 0.69922-2.5625 0.16406-5.2969-1.4453-7.4102-1.6094-2.1055-4.1133-3.3438-6.7656-3.3438l-88.246 0.003906c-4.7031 0-8.5117 3.8086-8.5117 8.5117v47.32c0 3.5234 2.1719 6.6797 5.4531 7.9453l24.855 9.5664c3.5586 13.27 8.832 25.98 15.715 37.906l-10.82 24.359c-1.4297 3.2188-0.73047 6.9844 1.7617 9.4727l33.461 33.461c2.4922 2.4922 6.2539 3.1914 9.4727 1.7617l24.367-10.82c11.922 6.8828 24.633 12.152 37.906 15.715l9.5664 24.863c1.2656 3.2852 4.4219 5.4531 7.9453 5.4531h47.32c3.5234 0 6.6797-2.1719 7.9453-5.4531l9.5664-24.863c13.266-3.5625 25.977-8.832 37.898-15.715l24.367 10.82c3.2188 1.4297 6.9844 0.73047 9.4727-1.7617l33.461-33.461c2.4922-2.4922 3.1914-6.2578 1.7617-9.4727l-10.816-24.355c6.8828-11.922 12.156-24.641 15.723-37.91l24.855-9.5664c3.2852-1.2656 5.4531-4.4219 5.4531-7.9453v-181.24c-0.007813-4.6914-3.8164-8.5078-8.5195-8.5078zm-78.863 20.668c-6.7031 0-12.156-5.4531-12.156-12.156s5.4531-12.156 12.156-12.156 12.156 5.4531 12.156 12.156-5.457 12.156-12.156 12.156zm8.043 70.953c-6.7031 0-12.156-5.4531-12.156-12.156s5.4531-12.156 12.156-12.156 12.156 5.4531 12.156 12.156c0 6.6992-5.4531 12.156-12.156 12.156zm62.312 92.293-23.508 9.0469c-2.6211 1.0078-4.5742 3.2422-5.2227 5.9727-3.4648 14.566-9.2148 28.434-17.086 41.211-1.4688 2.3906-1.668 5.3555-0.53125 7.9219l10.23 23.043-25.195 25.195-23.055-10.238c-2.5625-1.1367-5.5312-0.94531-7.9141 0.53125-12.781 7.8711-26.641 13.613-41.195 17.078-2.7305 0.64844-4.9648 2.6016-5.9727 5.2227l-9.0586 23.52h-35.629l-9.0547-23.52c-1.0078-2.6211-3.2422-4.5742-5.9727-5.2227-14.555-3.4648-28.414-9.2109-41.199-17.078-2.3906-1.4688-5.3555-1.668-7.9141-0.53125l-23.055 10.238-25.195-25.195 10.238-23.047c1.1367-2.5664 0.9375-5.5312-0.53125-7.9219-7.8711-12.781-13.613-26.641-17.078-41.199-0.65234-2.7305-2.6016-4.9648-5.2266-5.9727l-23.516-9.0547v-32.965h69.23c-0.77734 5-1.168 10.062-1.168 15.148 0 54.18 44.078 98.25 98.25 98.25 54.176 0 98.258-44.078 98.258-98.25 0-5.082-0.39062-10.148-1.168-15.148h69.23v32.965zm-328.02-68.215c16.09 0 29.18-13.09 29.18-29.18 0-13.129-8.7148-24.262-20.668-27.914v-42.441h99.715c0.75781 3.6211 1.3984 7.6172 1.8906 12.059h-39.164c-4.7031 0-8.5117 3.8086-8.5117 8.5117v13.824c-11.953 3.6523-20.668 14.781-20.668 27.914 0 16.09 13.09 29.18 29.18 29.18 16.09 0 29.18-13.09 29.18-29.18 0-13.129-8.7148-24.262-20.668-27.914v-5.3125h31.402v3.0039c0 8.1484 4.8984 15.168 11.898 18.293v4.75c0 8.1133 4.8594 15.102 11.812 18.246v4.7891c0 11.043 8.9844 20.031 20.031 20.031h14.949c11.043 0 20.031-8.9844 20.031-20.031v-4.7891c6.9531-3.1445 11.812-10.133 11.812-18.246v-5.1133c6.5859-3.2852 11.137-10.074 11.137-17.922v-11.242c1.7266-28.859 8.8828-41.09 15.801-52.914 6.2695-10.715 12.758-21.801 12.758-42.402 0-43.777-35.617-79.391-79.391-79.391-43.773 0-79.391 35.617-79.391 79.391 0 20.602 6.4883 31.688 12.758 42.402 2.707 4.625 5.4492 9.3164 7.8867 15.039l-102.96 0.003906c-4.7031 0-8.5117 3.8086-8.5117 8.5117v50.953c-11.953 3.6523-20.668 14.781-20.668 27.914 0.003906 16.086 13.094 29.176 29.18 29.176zm83.109-37.223c0 6.7031-5.4531 12.156-12.156 12.156s-12.156-5.4531-12.156-12.156c0-6.7031 5.4531-12.156 12.156-12.156s12.156 5.4531 12.156 12.156zm57.836-128.3h-7.957c-4.3867 0-7.957-3.5703-7.957-7.957s3.5703-7.957 7.957-7.957c4.3867 0 7.957 3.5703 7.957 7.957zm24.484 78.043h-7.4531l-0.003907-61.016h7.4531zm30.082 17.027v3.0039c0 1.6289-1.375 3.0039-3.0039 3.0039h-61.613c-1.6289 0-3.0039-1.375-3.0039-3.0039v-3.0039zm-14.141 29.051h-38.57c-1.6289 0-3.0039-1.375-3.0039-3.0039v-3.0039h44.586v3.0039c-0.007813 1.625-1.3828 3.0039-3.0117 3.0039zm-11.812 23.035h-14.949c-1.6289 0-3.0039-1.375-3.0039-3.0039v-3.0117h20.961v3.0039c-0.003906 1.6367-1.3789 3.0117-3.0078 3.0117zm-7.8555-218c34.387 0 62.371 27.977 62.371 62.371 0 15.988-4.6016 23.852-10.426 33.805-6.5977 11.277-14.672 25.07-17.484 52.723h-13.707v-61.023h7.957c13.777 0 24.984-11.207 24.984-24.984 0-13.777-11.207-24.984-24.984-24.984-13.777 0-24.984 11.207-24.984 24.984v7.957h-7.4531l-0.003907-7.957c0-13.777-11.207-24.984-24.984-24.984-13.777 0-24.984 11.207-24.984 24.984 0 13.777 11.207 24.984 24.984 24.984h7.957v61.023h-13.707c-2.8125-27.645-10.887-41.445-17.484-52.723-5.8203-9.9531-10.426-17.816-10.426-33.805 0.003907-34.395 27.98-62.371 62.375-62.371zm20.746 70.848v-7.957c0-4.3867 3.5703-7.957 7.957-7.957 4.3867 0 7.957 3.5703 7.957 7.957s-3.5703 7.957-7.957 7.957zm-182.45 124.18c6.7031 0 12.156 5.4531 12.156 12.156s-5.4531 12.156-12.156 12.156-12.156-5.4531-12.156-12.156c0-6.6992 5.457-12.156 12.156-12.156zm153.18-227.5v-16.695c0-4.7031 3.8086-8.5117 8.5117-8.5117s8.5117 3.8086 8.5117 8.5117v16.695c0 4.7031-3.8086 8.5117-8.5117 8.5117-4.6953 0.003906-8.5117-3.8125-8.5117-8.5117zm-60.66 4.125c-2.3516-4.0703-0.95703-9.2812 3.1133-11.625 4.0703-2.3516 9.2812-0.95703 11.625 3.1133l8.3477 14.461c2.3516 4.0703 0.95703 9.2812-3.1133 11.625-1.3398 0.77734-2.8047 1.1445-4.2461 1.1445-2.9414 0-5.8047-1.5273-7.3789-4.2578zm-45.25 36.73c2.3516-4.0703 7.5586-5.4648 11.633-3.1133l14.461 8.3477c4.0703 2.3516 5.4648 7.5547 3.1133 11.625-1.5742 2.7305-4.4375 4.2578-7.3789 4.2578-1.4453 0-2.9062-0.36719-4.2461-1.1445l-14.461-8.3477c-4.0742-2.3438-5.4688-7.5547-3.1211-11.625zm160.52-30.789 8.3477-14.461c2.3516-4.0703 7.5547-5.4648 11.625-3.1133 4.0703 2.3516 5.4648 7.5547 3.1133 11.625l-8.3477 14.461c-1.5742 2.7305-4.4375 4.2578-7.3789 4.2578-1.4453 0-2.9062-0.36719-4.2461-1.1445-4.0703-2.3438-5.4648-7.5508-3.1133-11.625zm39.129 47.648c-2.3516-4.0703-0.95703-9.2812 3.1133-11.625l14.461-8.3477c4.0703-2.3516 9.2812-0.95703 11.625 3.1133 2.3516 4.0703 0.95703 9.2812-3.1133 11.625l-14.461 8.3477c-1.3398 0.77734-2.8047 1.1445-4.2461 1.1445-2.9414 0-5.8008-1.5234-7.3789-4.2578z"/>
  <use x="70" y="647.5" xlink:href="#t"/>
  <use x="91.40625" y="647.5" xlink:href="#c"/>
  <use x="105.789062" y="647.5" xlink:href="#b"/>
  <use x="125.570312" y="647.5" xlink:href="#m"/>
  <use x="145.253906" y="647.5" xlink:href="#d"/>
  <use x="159.195312" y="647.5" xlink:href="#b"/>
  <use x="178.976562" y="647.5" xlink:href="#l"/>
  <use x="210.007812" y="647.5" xlink:href="#k"/>
  <use x="230.886719" y="647.5" xlink:href="#j"/>
  <use x="260.054688" y="647.5" xlink:href="#i"/>
  <use x="279.976562" y="647.5" xlink:href="#s"/>
  <use x="299.375" y="647.5" xlink:href="#a"/>
  <use x="329.566406" y="647.5" xlink:href="#h"/>
  <use x="350.941406" y="647.5" xlink:href="#g"/>
  <use x="371.707031" y="647.5" xlink:href="#c"/>
  <use x="386.089844" y="647.5" xlink:href="#f"/>
  <use x="406.855469" y="647.5" xlink:href="#a"/>
  <use x="426.894531" y="647.5" xlink:href="#e"/>
  <use x="457.285156" y="647.5" xlink:href="#a"/>
  <use x="70" y="676.667969" xlink:href="#r"/>
  <use x="82.6875" y="676.667969" xlink:href="#c"/>
  <use x="97.074219" y="676.667969" xlink:href="#a"/>
  <use x="117.109375" y="676.667969" xlink:href="#e"/>
  <use x="157.65625" y="676.667969" xlink:href="#d"/>
  <use x="171.597656" y="676.667969" xlink:href="#q"/>
  <use x="192.363281" y="676.667969" xlink:href="#b"/>
  <use x="222.300781" y="676.667969" xlink:href="#p"/>
  <use x="246.710938" y="676.667969" xlink:href="#a"/>
  <use x="266.746094" y="676.667969" xlink:href="#g"/>
  <use x="287.511719" y="676.667969" xlink:href="#f"/>
  <use x="318.429688" y="676.667969" xlink:href="#h"/>
  <use x="339.804688" y="676.667969" xlink:href="#c"/>
  <use x="354.191406" y="676.667969" xlink:href="#a"/>
  <use x="374.226562" y="676.667969" xlink:href="#o"/>
  <use x="384.226562" y="676.667969" xlink:href="#b"/>
  <use x="404.007812" y="676.667969" xlink:href="#n"/>
  <use x="421.296875" y="676.667969" xlink:href="#d"/>
 </g>
</svg>
