<?xml version="1.0" encoding="UTF-8"?><svg id="uuid-00243116-090c-4ce9-95b7-204436f1bf42" xmlns="http://www.w3.org/2000/svg" viewBox="0 0 50 50"><defs><style>.uuid-c3ae223b-34c7-493d-a6b5-e2517b6d0a1f{fill:#a5d6a7;}</style></defs><g id="uuid-6ed18229-a202-4164-82ed-47f0d4271b4f"><path class="uuid-c3ae223b-34c7-493d-a6b5-e2517b6d0a1f" d="M46.74,.81c-.92-.52-1.98-.81-3.1-.81H6.35c-1.13,0-2.19,.29-3.1,.81C1.31,1.9,0,3.97,0,6.35V43.65c0,2.38,1.31,4.46,3.25,5.54,.91,.52,1.97,.81,3.1,.81H43.64c1.12,0,2.18-.29,3.1-.81,1.95-1.08,3.26-3.16,3.26-5.54V6.35c0-2.38-1.31-4.45-3.26-5.54ZM8.89,40.67c0,.73-.59,1.33-1.33,1.33h-2.98c-.73,0-1.33-.59-1.33-1.33v-1.83c0-.73,.59-1.33,1.33-1.33h2.98c.73,0,1.33,.59,1.33,1.33v1.83Zm0-9.81c0,.73-.59,1.33-1.33,1.33h-2.98c-.73,0-1.33-.59-1.33-1.33v-1.83c0-.73,.59-1.33,1.33-1.33h2.98c.73,0,1.33,.59,1.33,1.33v1.83Zm0-9.81c0,.73-.59,1.33-1.33,1.33h-2.98c-.73,0-1.33-.59-1.33-1.33v-1.83c0-.73,.59-1.33,1.33-1.33h2.98c.73,0,1.33,.59,1.33,1.33v1.83Zm0-9.81c0,.73-.59,1.33-1.33,1.33h-2.98c-.73,0-1.33-.59-1.33-1.33v-1.83c0-.73,.59-1.33,1.33-1.33h2.98c.73,0,1.33,.59,1.33,1.33v1.83Zm28.65,31.62c0,.77-.63,1.4-1.4,1.4H13.86c-.77,0-1.4-.63-1.4-1.4v-11.86c0-.55,.22-1.08,.61-1.47l1.92-1.92c.49-.49,1.28-.49,1.77,0l2.23,2.23c.49,.49,1.28,.49,1.77,0l7.34-7.35c.49-.49,1.28-.49,1.77,0l7.06,7.05c.39,.39,.61,.92,.61,1.47v11.86Zm9.21-2.2c0,.73-.59,1.33-1.33,1.33h-2.98c-.73,0-1.33-.59-1.33-1.33v-1.83c0-.73,.59-1.33,1.33-1.33h2.98c.73,0,1.33,.59,1.33,1.33v1.83Zm0-9.81c0,.73-.59,1.33-1.33,1.33h-2.98c-.73,0-1.33-.59-1.33-1.33v-1.83c0-.73,.59-1.33,1.33-1.33h2.98c.73,0,1.33,.59,1.33,1.33v1.83Zm0-9.81c0,.73-.59,1.33-1.33,1.33h-2.98c-.73,0-1.33-.59-1.33-1.33v-1.83c0-.73,.59-1.33,1.33-1.33h2.98c.73,0,1.33,.59,1.33,1.33v1.83Zm0-9.81c0,.73-.59,1.33-1.33,1.33h-2.98c-.73,0-1.33-.59-1.33-1.33v-1.83c0-.73,.59-1.33,1.33-1.33h2.98c.73,0,1.33,.59,1.33,1.33v1.83Z"/></g></svg>