<?xml version="1.0" encoding="UTF-8"?>
<svg id="Ebene_2" data-name="Ebene 2" xmlns="http://www.w3.org/2000/svg" viewBox="0 0 68.48 72.81">
  <g id="Ebene_1-2" data-name="Ebene 1">
    <g>
      <path d="m19.16,5.98c1.65-.2,2.82-1.69,2.62-3.33-.2-1.65-1.69-2.82-3.33-2.62-1.65.2-2.82,1.69-2.62,3.33.2,1.65,1.69,2.82,3.33,2.62Z"/>
      <path d="m9.1,11.62c1.02-1.3.8-3.19-.5-4.21s-3.19-.8-4.21.5-.8,3.19.5,4.21c1.3,1.02,3.19.8,4.21-.5Z"/>
      <path d="m20.74,30.23h.18c-.06,0-.12,0-.18-.01l-1.62-3.16c-1.16-2.28-.64-5.1,1.25-6.7,1.55-1.31,3.42-1.6,5.39-.84,1.23.47,2.18,1.34,2.82,2.59.35.69.71,1.39,1.06,2.08.05-.11.08-.21.12-.31.07-.23.14-.45.19-.68.13-.51.21-1.03.25-1.55.02-.23.03-.46.03-.69h0c0-.35-.03-.69-.06-1.04-.02-.17-.04-.35-.07-.52-.03-.16-.06-.33-.1-.49-.02-.13-.05-.25-.09-.36-.03-.14-.07-.28-.12-.42-.02-.09-.05-.17-.08-.25-.05-.15-.11-.3-.17-.45-.37-.92-.9-1.79-1.58-2.57-.09-.11-.18-.21-.28-.31-.09-.1-.19-.2-.29-.29,0-.01,0-.02-.02-.02-.18-.18-.37-.35-.57-.5-.03-.04-.07-.07-.11-.1-.41-.32-.84-.61-1.29-.85-.08-.05-.16-.09-.25-.13-.41-.21-.84-.39-1.27-.54-.2-.06-.4-.12-.6-.17-.23-.06-.45-.11-.68-.15-.08-.02-.17-.03-.26-.04-.23-.04-.47-.06-.71-.08-.22-.02-.45-.03-.67-.03-.34,0-.69.02-1.03.06-.47.05-.93.14-1.38.26-.13.03-.25.07-.38.11-1.73.54-3.32,1.59-4.53,3.12-.32.41-.61.85-.85,1.29-.05.08-.09.16-.13.25-.22.41-.39.84-.54,1.27-.07.23-.14.45-.19.68-.05.2-.1.41-.13.61-.02.08-.03.16-.04.24-.04.23-.07.46-.08.7-.02.23-.03.46-.03.69h0c0,.34.03.7.06,1.04.05.46.13.91.26,1.36.03.14.07.28.12.42.29.93.73,1.81,1.31,2.62.16.23.34.44.52.65.18.21.37.41.57.6.19.19.4.37.62.55.03.02.06.05.09.07.19.15.38.29.57.42.28.18.56.35.85.5.2.11.4.21.6.3.26.11.52.21.78.3.23.07.46.14.69.19.18.05.35.09.53.12.1.02.2.04.29.05.18.03.37.05.55.07.05,0,.1.01.16.01.17.02.34.02.52.03Z"/>
      <path d="m2.65,20.09c-1.65.2-2.82,1.69-2.62,3.33.2,1.65,1.69,2.82,3.33,2.62s2.82-1.69,2.62-3.33c-.2-1.65-1.69-2.82-3.33-2.62Z"/>
      <path d="m39.23,21.78c1.65-.2,2.82-1.69,2.62-3.33-.2-1.65-1.69-2.82-3.33-2.62-1.65.2-2.82,1.69-2.62,3.33.2,1.65,1.69,2.82,3.33,2.62Z"/>
      <path d="m11.62,32.78c-1.3-1.02-3.19-.8-4.21.5-1.02,1.3-.8,3.19.5,4.21s3.19.8,4.21-.5.8-3.19-.5-4.21Z"/>
      <path d="m30.26,9.1c1.3,1.02,3.19.8,4.21-.5s.8-3.19-.5-4.21c-1.3-1.02-3.19-.8-4.21.5s-.8,3.19.5,4.21Z"/>
      <path d="m66.77,49.05c-1.04-2.06-2.1-4.11-3.15-6.16l-1.78-3.46c-.26-.51-.52-1.02-.78-1.52-.46-.93-1.14-1.57-2.06-1.96-1.54-.65-3.82-.22-4.79,1.61-.09.16-.16.32-.24.49l-.64,1.33-.69-.96c-1.03-1.43-2.27-2.06-3.75-1.96-1.53.12-2.63.94-3.34,2.51l-.52,1.13-.7-1.02c-.98-1.4-2.2-2.01-3.73-1.85-1.58.16-2.64.99-3.25,2.54l-.56,1.45-3.44-6.7-1.22-2.37-1.41-2.75c-.62-1.2-1.23-2.41-1.85-3.62-.52-1.01-1.03-2.01-1.55-3.02-.48-.95-1.16-1.58-2.06-1.92-1.49-.58-2.83-.37-3.97.6-1.4,1.18-1.78,3.27-.91,4.98l1.9,3.71,12.6,24.59-1.63-.42c-.09-.02-.15-.04-.21-.06l-5.41-1.91c-.53-.19-1.07-.28-1.6-.28-1.31,0-2.56.55-3.44,1.56-.8.91-1.16,2.16-1,3.43.17,1.28.85,2.41,1.86,3.09.64.42,1.38.66,2.16.91,2.09.66,4.07,1.57,5.93,2.72,3.44,2.14,6.61,4.5,9.25,6.54,1.16.89,2.41,1.54,3.71,1.94,2.96.91,5.85.73,8.59-.52,1.04-.48,2.08-1.02,3.08-1.54.41-.22.82-.43,1.23-.64l5.12-2.62c1.44-.74,2.67-1.76,3.64-3.03,1.26-1.64,1.99-3.52,2.22-5.74.34-3.23-.2-6.29-1.61-9.1Z"/>
    </g>
  </g>
</svg>