<?xml version="1.0" encoding="UTF-8"?>
<svg id="Ebene_2" data-name="Ebene 2" xmlns="http://www.w3.org/2000/svg" viewBox="0 0 98.63 96.17">
  <g id="Ebene_1-2" data-name="Ebene 1">
    <g>
      <path d="m98.27,87.05l-16.73-50.69c-.94-2.85-3.6-4.77-6.6-4.77h-4.51l-2.98,5.04c.75.11,1.46.24,2.14.41,1.07.26,1.73,1.34,1.46,2.42-.22.91-1.04,1.52-1.94,1.52-.16,0-.32-.02-.48-.06-1.03-.25-2.17-.42-3.42-.5l-3.21,5.43c-.54.92-1.52,1.48-2.58,1.48s-2.04-.56-2.58-1.48l-8.44-14.26h-24.71c-3,0-5.66,1.92-6.6,4.77L.36,87.05c-1.49,4.49,1.86,9.12,6.59,9.12h84.73c4.73,0,8.08-4.63,6.59-9.12Zm-69.86-5.56c-1.78,2.82-3.42,5.92-4.87,9.23-.33.75-1.07,1.2-1.84,1.2-.27,0-.54-.06-.8-.17-1.01-.44-1.47-1.62-1.03-2.64,1.54-3.49,3.27-6.77,5.16-9.76.59-.93,1.82-1.21,2.76-.62.93.6,1.21,1.83.62,2.76Zm14.12-14.89c-2.79,1.89-5.42,4.14-7.81,6.69-.39.42-.93.63-1.46.63-.49,0-.98-.18-1.37-.54-.8-.76-.84-2.03-.09-2.83,2.59-2.76,5.45-5.21,8.48-7.26.92-.62,2.16-.38,2.78.53s.38,2.16-.53,2.78Zm19.12-7.81c-2.95.71-6.45,1.64-10.01,3.04-.24.09-.49.14-.74.14-.79,0-1.55-.48-1.86-1.27-.4-1.03.1-2.19,1.13-2.59,3.79-1.49,7.45-2.46,10.54-3.21,1.07-.26,2.15.4,2.41,1.47.26,1.08-.4,2.16-1.47,2.42Zm16.67-8.62c-1,2.49-2.91,4.28-6.01,5.62-.26.11-.53.17-.79.17-.78,0-1.51-.46-1.84-1.21-.44-1.01.03-2.19,1.04-2.63,2.1-.91,3.3-1.97,3.89-3.45.19-.47.29-1.02.29-1.6,0-.34-.03-.68-.1-1.01-.22-1.08.48-2.14,1.56-2.36,1.08-.23,2.14.48,2.36,1.56.12.59.18,1.2.18,1.81,0,1.08-.2,2.15-.58,3.1Z"/>
      <path d="m74.37,14.95c0,2.62-.67,5.07-1.85,7.21l-5.57,9.43-2.83,4.79-2.38,4.03-2.32,3.92-7.53-12.74-5.57-9.43c-2.21-4.01-2.63-9.1-.23-14.29,1.23-2.65,3.34-4.82,5.96-6.1,2.51-1.22,5-1.77,7.37-1.77,8.25,0,14.95,6.7,14.95,14.95Z"/>
    </g>
  </g>
</svg>