<?xml version="1.0" encoding="utf-8"?>
<!-- Generator: Adobe Illustrator 27.4.0, SVG Export Plug-In . SVG Version: 6.00 Build 0)  -->
<svg version="1.1" id="Ebene_2" xmlns="http://www.w3.org/2000/svg" xmlns:xlink="http://www.w3.org/1999/xlink" x="0px" y="0px"
	 viewBox="0 0 82.2 71" style="enable-background:new 0 0 82.2 71;" xml:space="preserve">
<style type="text/css">
	.st0{fill:none;}
	.st1{fill:#FFFFFF;}
	.st2{fill:#CE93D8;}
	.st3{fill:#1D1E1C;}
</style>
<g id="Ebene_1-2">
	<g>
		<path class="st0" d="M34.4,27.7c-1.4,3.5,0.2,7.4,3.7,8.8c0.3,0.1,0.7,0.2,1,0.3c0.5,0.1,1,0.2,1.6,0.2s1.1-0.1,1.6-0.2
			c0.3-0.1,0.7-0.2,1-0.3c0,0,0,0,0.1,0c-0.3,0.1-0.7,0.2-1,0.3c-0.5,0.1-1,0.2-1.6,0.2s-1.1-0.1-1.6-0.2c-0.3-0.1-0.7-0.2-1-0.3
			c-0.5-0.2-1-0.5-1.5-0.9c-3-2.3-3.5-6.6-1.2-9.5c0.6-0.8,1.3-1.4,2.2-1.8c0,0,0,0-0.1,0c-0.9,0.5-1.6,1.1-2.2,1.9
			C34.9,26.6,34.6,27.1,34.4,27.7z"/>
		<path class="st0" d="M43.2,34.3v0.5c-0.3,0.2-0.6,0.3-1,0.4l0,0c0.3-0.1,0.7-0.2,1-0.4L43.2,34.3c0-1.4-1.1-2.6-2.6-2.6
			c0,0,0,0,0,0C42.1,31.7,43.2,32.9,43.2,34.3z"/>
		<path class="st0" d="M45.4,38.2l-0.2,0.1c0,0,0,0,0,0L45.4,38.2c0.1,0.4,0.3,0.7,0.6,1l2.4,2.4L46,39.1
			C45.8,38.8,45.5,38.5,45.4,38.2z"/>
		<path class="st0" d="M50.2,40.5l-2.8-2.8c0,0,0,0,0,0L50.2,40.5c0.1,0.1,0.2,0.2,0.4,0.2s0.2,0,0.3-0.1l0,0
			c-0.1,0.1-0.2,0.1-0.3,0.1C50.4,40.6,50.3,40.6,50.2,40.5z"/>
		<path class="st0" d="M40.7,40.9c0,0-0.1,0-0.1,0c-0.3,0-0.6,0-0.8-0.2c-0.2-0.1-0.4-0.2-0.6-0.4C39.5,40.7,40.1,40.9,40.7,40.9
			L40.7,40.9C40.7,40.9,40.7,40.9,40.7,40.9L40.7,40.9L40.7,40.9z"/>
		<path class="st0" d="M39.1,34.3v1c0,0,0,0,0,0L39.1,34.3c0-0.9,0.7-1.6,1.6-1.6c0,0,0,0,0,0C39.8,32.7,39.1,33.4,39.1,34.3
			L39.1,34.3z"/>
		<path class="st0" d="M39,40.3c-0.2-0.2-0.4-0.3-0.5-0.5C38.7,40,38.9,40.2,39,40.3z"/>
		<polygon class="st0" points="31.1,40.5 33.9,37.8 33.9,37.7 33.9,37.8 		"/>
		<polygon class="st0" points="77.4,11.4 77.4,11.4 70.7,23.4 70.7,23.4 		"/>
		<polygon class="st0" points="80.8,11.5 80.9,11.4 79.7,11.4 77.4,11.4 77.4,11.5 		"/>
		<path class="st0" d="M77.5,7.7c0,0,0-0.1,0-0.1c0-0.1,0-0.1,0-0.2C77.5,7.6,77.5,7.6,77.5,7.7L77.5,7.7z"/>
		<path class="st0" d="M46.7,35.1c-0.3,0.4-0.7,0.8-1.2,1.2l-0.3,0.2c-0.6,0.5-1.3,0.8-2,1.1c-0.3,0.1-0.7,0.2-1,0.3
			c-0.5,0.1-1.1,0.2-1.6,0.2s-1.1-0.1-1.6-0.2c-0.3-0.1-0.7-0.2-1-0.3c-0.7-0.2-1.4-0.6-2-1.1c-0.1-0.1-0.2-0.1-0.3-0.2
			c-0.4-0.3-0.8-0.7-1.1-1.1c-0.7-0.8-1.2-1.8-1.5-2.8c0.3,1.1,0.8,2.1,1.5,3c0.3,0.4,0.7,0.8,1.1,1.1c0.1,0.1,0.2,0.2,0.3,0.2
			c0.6,0.5,1.3,0.8,2,1.1c0.3,0.1,0.7,0.2,1,0.3c0.5,0.1,1.1,0.2,1.6,0.2s1.1-0.1,1.6-0.2c0.3-0.1,0.7-0.2,1-0.3
			c0.7-0.3,1.4-0.6,2-1.1l0.3-0.2l0,0c0.4-0.3,0.8-0.7,1.2-1c1.5-1.8,2-4.1,1.6-6.3C48.7,31.1,48.1,33.3,46.7,35.1z"/>
		<path class="st0" d="M47.4,22.8C47.4,22.8,47.4,22.8,47.4,22.8C47.4,22.8,47.4,22.8,47.4,22.8C47.5,22.8,47.4,22.8,47.4,22.8z"/>
		<path class="st0" d="M45.4,22.4C45.4,22.4,45.4,22.4,45.4,22.4L45.4,22.4l0-0.1c0,0,0,0,0,0L45.4,22.4L45.4,22.4z"/>
		<path class="st0" d="M50.9,20.8l-1,1l-1.2,1.2l-0.5,0.5c-0.1,0.1-0.2,0.1-0.3,0.1c0,0,0,0,0,0c0.1,0,0.2,0,0.3-0.1l0.5-0.5
			l1.2-1.2L50.9,20.8L50.9,20.8c0.1-0.1,0.1-0.1,0.1-0.2C51,20.6,51,20.7,50.9,20.8C50.9,20.7,50.9,20.7,50.9,20.8L50.9,20.8z"/>
		<path class="st0" d="M40.8,42.9c5.2,0.6,9.1,1.6,11.7,2.9C50,44.5,46,43.5,40.8,42.9L40.8,42.9L40.8,42.9L40.8,42.9z"/>
		<path class="st0" d="M29,18.9c0.9-1.1,2.5-1.2,3.5-0.3l2.8,2.7c0.3,0.3,0.5,0.6,0.6,1c0,0,0,0,0,0c-0.1-0.3-0.3-0.6-0.6-0.9
			l-2.8-2.7c-1-0.9-2.5-0.9-3.5,0c-1,1-1,2.5-0.1,3.5C28.2,21.2,28.2,19.9,29,18.9z"/>
		<path class="st0" d="M32.7,25.5C32.7,25.5,32.7,25.5,32.7,25.5c-0.3-0.2-0.6-0.4-0.9-0.6L29,22.2l2.8,2.8
			C32,25.2,32.3,25.4,32.7,25.5z"/>
		<path class="st0" d="M31.7,27.8L31.7,27.8c-0.4,0.2-0.8,0.4-1.1,0.6C31,28.2,31.3,28,31.7,27.8z"/>
		<path class="st0" d="M32.7,41.8c1.9,0.4,3.8,0.6,5.7,0.8l1.1,0.1l0.2,0c-0.1,0-0.1,0-0.2,0l1.4,0.2c2.2-0.1,3.9-1.7,4.3-3.7
			c-0.4,2-2.2,3.5-4.3,3.6l-1.4-0.2c-1.7-0.5-3-1.9-3.3-3.6c0.3,1.7,1.6,3.2,3.3,3.6l-1.1-0.1C36.4,42.4,34.5,42.2,32.7,41.8
			l2.6-2.7c0.3-0.3,0.5-0.6,0.6-0.9l0.2,0.1c0,0,0,0,0,0l-0.2-0.1c-0.1,0.3-0.3,0.7-0.6,0.9l-2.8,2.8c-0.5,0.5-1.1,0.7-1.8,0.7
			s-1.3-0.3-1.8-0.7c-4.6-1.5-5.9-3.6-6.1-5.4l0,0c0,0,0,0,0,0.1c0.1,1.8,1.5,3.9,6.1,5.4c0.5,0.5,1.1,0.7,1.8,0.7
			c0.2,0,0.4,0,0.6-0.1c0.4-0.1,0.8-0.3,1.1-0.6L32.7,41.8L32.7,41.8z"/>
		<path class="st0" d="M61.4,22c1.1,0,2.1,0,3.2,0c0,0,0,0,0,0c0,0,0,0,0,0C63.5,22,62.5,22,61.4,22z"/>
		<path class="st0" d="M33.5,23.7c0.1,0,0.3-0.1,0.3-0.1c0,0,0,0,0,0c0.1-0.1,0.2-0.4,0.1-0.5c0.1,0.2,0,0.4-0.1,0.5c0,0,0,0,0,0
			C33.8,23.6,33.7,23.6,33.5,23.7c-0.2,0-0.3-0.1-0.4-0.2l-2.8-2.7c0,0,0,0,0,0l2.8,2.7C33.3,23.6,33.4,23.7,33.5,23.7z"/>
		<path class="st1" d="M77.9,10.4c0.3-0.9,0.5-1.8,0.5-2.7C78.4,3.5,75,0,70.7,0C66.5,0,63,3.5,63,7.7c0,0.9,0.2,1.8,0.5,2.7H25.8
			L0,71h62.5l19.8-60.6H77.9z M71.3,0.8c0.1,0,0.1,0,0.2,0c0,0,0,0,0,0c0.2,0,0.4,0,0.5,0.1c0,0,0.1,0,0.1,0c0.1,0,0.2,0,0.2,0.1h0
			c0,0,0,0,0,0c0.1,0,0.2,0,0.3,0.1c0.2,0.1,0.5,0.1,0.7,0.2c0.2,0.1,0.3,0.1,0.4,0.2c0.2,0.1,0.4,0.2,0.7,0.4
			C74.6,2,74.8,2.1,75,2.3c0,0,0.1,0,0.1,0.1c0.1,0.1,0.2,0.2,0.3,0.3c0.2,0.1,0.3,0.3,0.4,0.5c0.1,0.2,0.3,0.3,0.4,0.5c0,0,0,0,0,0
			c0.2,0.3,0.4,0.7,0.6,1.1c0,0,0,0,0,0c0.4,0.8,0.6,1.6,0.6,2.5v0.5h0c0,0.1,0,0.1,0,0.2c0,0.3,0,0.6-0.1,0.9c0,0.1,0,0.2,0,0.2
			c-0.1,0.3-0.2,0.7-0.3,1l-0.2,0.3l-0.6,1l-5.6,10l-5.6-10l-0.6-1l0,0l-0.1-0.2c-0.2-0.4-0.3-0.8-0.3-1.2C64,8.6,64,8.2,64,7.7
			c-0.1-3.7,2.8-6.8,6.5-7v0c0.1,0,0.2,0,0.2,0C70.9,0.7,71.1,0.7,71.3,0.8z M61.8,70H1.5l24.9-58.6H64l6.7,12l0,0l6.7-12h3.4l0,0.1
			h0L61.8,70z"/>
		<path class="st2" d="M57.8,21.1C57.7,21.1,57.7,21.1,57.8,21.1c0.6,0,1.2,0,1.9-0.1C59,21,58.4,21.1,57.8,21.1z M57.4,21.1
			c-0.2,0-0.4,0-0.7,0c-0.1,0-0.2,0-0.2,0c0.3,0,0.7,0,1-0.1H57.4z M57.8,21.1C57.7,21.1,57.7,21.1,57.8,21.1c0.6,0,1.2,0,1.9-0.1
			C59,21,58.4,21.1,57.8,21.1z M56.7,21.2c-0.1,0-0.2,0-0.2,0c0.3,0,0.7,0,1-0.1h-0.1C57.2,21.1,57,21.1,56.7,21.2z M77.5,11.5
			L77.5,11.5l-6.7,11.9v0l-6.7-12H26.5L1.5,70h60.2l19.1-58.5H77.5z M47.4,22.8C47.4,22.8,47.4,22.8,47.4,22.8L47.4,22.8
			C47.5,22.8,47.5,22.8,47.4,22.8l0.8-0.8l0,0l2-2c0.2-0.2,0.5-0.2,0.7,0c0,0,0,0,0,0c0.1,0.2,0.2,0.4,0.1,0.5
			c0,0.1-0.1,0.1-0.1,0.2l-1,1l-1.2,1.2l-0.6,0.6c-0.1,0.1-0.2,0.1-0.3,0.1c0,0,0,0,0,0s0,0,0,0c0,0,0,0,0,0c0,0-0.1,0-0.2,0
			c0,0,0,0,0,0c0,0,0,0-0.1,0c0,0,0,0,0,0c0,0,0,0-0.1-0.1c0,0,0,0,0,0c-0.1-0.1-0.1-0.2-0.1-0.3C47.3,23,47.4,22.9,47.4,22.8
			L47.4,22.8C47.4,22.8,47.4,22.8,47.4,22.8z M51,40.3C51,40.4,51,40.4,51,40.3c0,0.1-0.1,0.1-0.1,0.2l0,0h0
			c-0.1,0.1-0.2,0.1-0.3,0.1s-0.3,0-0.4-0.1l-2.8-2.8c0,0,0,0,0,0c-0.1-0.1-0.1-0.2-0.1-0.3c0-0.1,0-0.2,0.1-0.3c0,0,0,0,0,0
			c0,0,0.1-0.1,0.2-0.1c0,0,0,0,0,0c0,0,0,0,0,0c0.2-0.1,0.4,0,0.5,0.1h0l2.7,2.8h0c0,0,0.1,0.1,0.1,0.2C51,40.1,51,40.2,51,40.3z
			 M43.1,22.9c0.5,0.2,1.1,0.4,1.6,0.7c0.3,0.2,0.6,0.4,0.9,0.6c0.2,0.2,0.4,0.4,0.6,0.5c0,0,0,0,0,0c0.2,0.2,0.4,0.4,0.5,0.6v0h0
			v-0.1c0.2,0.3,0.4,0.5,0.6,0.8c0.1,0.2,0.2,0.4,0.4,0.7c0.2,0.5,0.4,1,0.5,1.5c0,0.1,0,0.2,0.1,0.3c0,0.1,0,0.2,0.1,0.3
			c0,0.2,0.1,0.5,0.1,0.7c0,0.2,0,0.5,0,0.7c0,0.2,0,0.4,0,0.7c0,0.2,0,0.4-0.1,0.6c-0.1,0.5-0.2,0.9-0.3,1.3
			c-0.1,0.2-0.1,0.4-0.2,0.5c-0.2,0.4-0.4,0.8-0.7,1.2c-0.1,0.2-0.3,0.4-0.4,0.5c-0.4,0.4-0.8,0.7-1.2,1l0,0l-0.3,0.2
			c-0.6,0.5-1.3,0.8-2,1.1c-0.3,0.1-0.7,0.2-1,0.3c-0.5,0.1-1.1,0.2-1.6,0.2c-0.5,0-1.1-0.1-1.6-0.2c-0.3-0.1-0.7-0.2-1-0.3
			c-0.7-0.2-1.4-0.6-2-1.1c-0.1-0.1-0.2-0.1-0.3-0.2c-0.4-0.3-0.8-0.7-1.1-1.1c-0.1-0.1-0.2-0.2-0.3-0.3c-0.2-0.2-0.3-0.5-0.5-0.7
			c-0.1-0.1-0.1-0.2-0.2-0.4c-0.1-0.2-0.2-0.5-0.3-0.8c-0.1-0.3-0.2-0.5-0.2-0.8c-0.2-0.7-0.3-1.3-0.3-2c0-1.2,0.3-2.4,0.8-3.5
			c0.2-0.5,0.5-1,0.9-1.4l0-0.1c0.3-0.4,0.7-0.8,1.1-1.1c1.4-1.1,3.1-1.7,4.9-1.7C41.5,22.5,42.3,22.6,43.1,22.9z M40.7,40.9
			L40.7,40.9L40.7,40.9L40.7,40.9L40.7,40.9c-0.1,0-0.2,0-0.2,0c-0.1,0-0.1,0-0.2,0c0,0,0,0,0,0c0,0,0,0,0,0c-0.1,0-0.1,0-0.2-0.1
			c-0.1,0-0.1,0-0.2-0.1c0,0,0,0,0,0c0,0,0,0-0.1,0c-0.1,0-0.2-0.1-0.3-0.1c0,0-0.1,0-0.1-0.1c0,0,0,0,0,0c0,0,0,0,0,0v0
			c0,0-0.1-0.1-0.2-0.1c0,0,0,0,0,0c0,0-0.1,0-0.1-0.1c-0.1-0.1-0.2-0.1-0.2-0.2c-0.1-0.1-0.1-0.1-0.2-0.2c0,0,0-0.1-0.1-0.1
			c0-0.1-0.1-0.2-0.1-0.3c0,0,0-0.1-0.1-0.1c0,0,0,0,0,0h0v0c0,0,0.1,0,0.1,0c0,0,0,0,0,0c0.5,0.1,0.9,0.2,1.4,0.3
			c0.3,0.2,0.6,0.4,1,0.4c0.4,0,0.7-0.1,1-0.4c0,0,0.1,0,0.1,0c0.2,0,0.3,0,0.5-0.1c0.1,0,0.2,0,0.3-0.1c0.2,0,0.3-0.1,0.5-0.1
			c0,0,0,0,0,0h0c0,0,0.1,0,0.1,0c-0.1,0.2-0.1,0.3-0.2,0.5c0,0,0,0,0,0c-0.1,0.1-0.2,0.3-0.3,0.4c-0.3,0.2-0.6,0.5-0.9,0.6
			c-0.3,0.1-0.6,0.2-0.8,0.2H40.7z M33.9,37.8l-2.8,2.7c-0.2,0.2-0.5,0.2-0.7,0c-0.2-0.2-0.2-0.5,0-0.7l2.8-2.8
			c0.2-0.2,0.5-0.2,0.7,0S34.1,37.5,33.9,37.8L33.9,37.8z M34,23.1C34,23.2,34,23.2,34,23.1c0,0.1,0,0.3-0.1,0.3c0,0,0,0,0,0
			c-0.1,0.1-0.2,0.1-0.4,0.1s-0.3,0-0.4-0.1l-2.8-2.7c0,0,0,0,0,0l0,0c-0.2-0.2-0.2-0.5,0-0.7c0.1-0.1,0.2-0.1,0.4-0.1
			c0.1,0,0.2,0,0.3,0.1l2.8,2.7c0,0,0.1,0.1,0.1,0.2c0,0,0,0.1,0,0.1C34,23.1,34,23.1,34,23.1z M23.2,65.7c0.2,0.2,0.2,0.5,0,0.7
			c-0.1,0.1-0.2,0.1-0.4,0.1s-0.2,0-0.3-0.1l-4.2-4.2L14,66.4c-0.2,0.2-0.5,0.2-0.7,0c-0.2-0.2-0.2-0.5,0-0.7l4.2-4.2l-4.2-4.2
			c-0.2-0.2-0.2-0.5,0-0.7c0.2-0.2,0.5-0.2,0.7,0l4.2,4.2l4.2-4.2c0.2-0.2,0.5-0.2,0.7,0c0.2,0.2,0.2,0.5,0,0.7L19,61.5L23.2,65.7z
			 M57.4,21.1c-0.2,0-0.4,0-0.7,0c-0.1,0-0.2,0-0.2,0c0.3,0,0.7,0,1-0.1H57.4z M57.8,21.1C57.7,21.1,57.7,21.1,57.8,21.1
			c0.6,0,1.2,0,1.9-0.1C59,21,58.4,21.1,57.8,21.1z M57.4,21.1c-0.2,0-0.4,0-0.7,0c-0.1,0-0.2,0-0.2,0c0.3,0,0.7,0,1-0.1H57.4z
			 M57.8,21.1C57.7,21.1,57.7,21.1,57.8,21.1c0.6,0,1.2,0,1.9-0.1C59,21,58.4,21.1,57.8,21.1z"/>
		<path class="st2" d="M64.6,10.4l0.6,1l5.6,10l5.6-10l0.6-1l0.2-0.3c0.1-0.3,0.2-0.7,0.3-1c0-0.1,0-0.2,0.1-0.2
			c0.1-0.3,0.1-0.6,0.1-0.9c0-0.1,0-0.2,0-0.2h0c0-0.1,0-0.2,0-0.3c0-0.1,0-0.2,0-0.2c-0.1-3.7-3.3-6.6-7-6.5
			c-3.7,0.1-6.6,3.3-6.5,7c0,0.8,0.2,1.7,0.5,2.4L64.6,10.4L64.6,10.4z"/>
		<path class="st1" d="M29,41.9c-0.4-0.3-0.6-0.8-0.7-1.3c0,0,0,0,0,0c-2.8-1.1-4.3-2.5-4.4-4.2c-0.2-2.5,2.5-5.5,6.7-8
			c0.4-0.2,0.7-0.4,1.1-0.6c0,0,0,0,0,0c0.1-0.5,0.3-0.9,0.5-1.3c-5.4,2.7-9.6,6.6-9.3,10l0,0C23.1,38.2,24.4,40.3,29,41.9L29,41.9z
			"/>
		<path class="st1" d="M52.6,45.8c-2.6-1.3-6.6-2.3-11.7-2.9h-0.1h-0.1c-0.3,0-0.7,0-1-0.1l-0.2,0l-1.1-0.1
			c-1.9-0.2-3.8-0.4-5.7-0.8l-0.1,0.1c-0.3,0.3-0.7,0.5-1.1,0.6c2.2,0.5,4.5,0.8,6.8,1c12.3,1.2,16.8,3.9,16.9,6.2
			c0.1,2.9-6.6,7.3-26,11c-0.3,0-0.5,0.3-0.4,0.6c0,0.2,0.2,0.4,0.5,0.4h0.1c17.2-3.2,27-7.6,26.8-12C56.1,48.2,54.8,46.9,52.6,45.8
			L52.6,45.8z"/>
		<path class="st1" d="M64.6,21c-4-0.1-7.9,0.1-11.8,0.5c-0.1,0.3-0.3,0.5-0.5,0.7l-0.4,0.4c3.2-0.3,6.3-0.5,9.5-0.6
			c1.1,0,2.1,0,3.2,0c0,0,0,0,0,0c0.3,0,0.5-0.2,0.5-0.5l0,0C65.1,21.2,64.9,21,64.6,21L64.6,21z"/>
		<path class="st1" d="M23.2,56.5c-0.2-0.2-0.5-0.2-0.7,0l-4.2,4.2l-4.2-4.2c-0.2-0.2-0.5-0.2-0.7,0s-0.2,0.5,0,0.7l4.2,4.2
			l-4.2,4.2c-0.2,0.2-0.2,0.5,0,0.7c0.2,0.2,0.5,0.2,0.7,0l4.2-4.2l4.2,4.2c0.1,0.1,0.2,0.1,0.4,0.1c0.1,0,0.3-0.1,0.4-0.1
			c0.2-0.2,0.2-0.5,0-0.7L19,61.5l4.2-4.2C23.4,57.1,23.4,56.8,23.2,56.5z"/>
		<path class="st3" d="M45.4,22.3C45.4,22.3,45.4,22.3,45.4,22.3L45.4,22.3L45.4,22.3L45.4,22.3z"/>
		<path class="st1" d="M33.9,37c-0.2-0.2-0.5-0.2-0.7,0l-2.8,2.8c-0.2,0.2-0.2,0.5,0,0.7c0.2,0.2,0.5,0.2,0.7,0l2.8-2.8v0
			C34.1,37.5,34.1,37.2,33.9,37z"/>
		<path class="st1" d="M51,40.3c0.1-0.2,0-0.4-0.1-0.5l-2.8-2.8l0,0c-0.2-0.2-0.5-0.2-0.7,0c-0.2,0.2-0.2,0.5,0,0.7l2.8,2.8
			c0.1,0.1,0.2,0.1,0.4,0.1s0.2,0,0.3-0.1C50.9,40.5,50.9,40.4,51,40.3C51,40.4,51,40.4,51,40.3L51,40.3z"/>
		<path class="st1" d="M47.8,23.6C47.8,23.6,47.8,23.6,47.8,23.6c0.1,0,0.3,0,0.4-0.1l0.5-0.5l1.2-1.2l1-1c0,0,0,0,0,0
			c0,0,0.1-0.1,0.1-0.2c0.1-0.2,0-0.4-0.1-0.5c0,0,0,0,0,0c-0.2-0.2-0.5-0.2-0.7,0l-2,2l0,0l-0.8,0.8c0,0,0,0,0,0.1
			c-0.1,0.1-0.1,0.2-0.1,0.3c0,0.1,0,0.2,0.1,0.3C47.6,23.6,47.7,23.6,47.8,23.6z"/>
		<path class="st1" d="M34.7,25.3L34.7,25.3c-0.4,0.5-0.7,1-1,1.5c-0.5,1.1-0.8,2.2-0.8,3.5c0,0.7,0.1,1.4,0.3,2
			c0.3,1,0.8,2,1.5,2.8c0.3,0.4,0.7,0.8,1.1,1.1c0.1,0.1,0.2,0.2,0.3,0.2c0.6,0.5,1.3,0.8,2,1.1c0.3,0.1,0.7,0.2,1,0.3
			c0.5,0.1,1.1,0.2,1.6,0.2s1.1-0.1,1.6-0.2c0.3-0.1,0.7-0.2,1-0.3c0.7-0.3,1.4-0.6,2-1.1l0.3-0.2c0.4-0.3,0.8-0.7,1.2-1.2
			c1.4-1.8,2-4,1.6-6.1c-0.2-1.3-0.8-2.6-1.6-3.6v0.1c-0.3-0.4-0.7-0.8-1.2-1.2c-0.3-0.2-0.6-0.4-0.9-0.6c-0.5-0.3-1-0.5-1.6-0.7
			c-0.8-0.2-1.6-0.4-2.4-0.4c-1.8,0-3.5,0.6-4.9,1.7C35.4,24.5,35,24.9,34.7,25.3z M38.1,34.3c0-1.4,1.2-2.6,2.6-2.6c0,0,0,0,0,0
			c1.4,0,2.6,1.2,2.6,2.6v0.5c-0.3,0.2-0.7,0.3-1,0.4l0,0v-1c0-0.9-0.7-1.6-1.6-1.6c0,0,0,0,0,0c-0.9,0-1.6,0.7-1.6,1.6v1
			c0,0,0,0,0,0c-0.3-0.1-0.7-0.2-1-0.4L38.1,34.3L38.1,34.3z"/>
		<path class="st1" d="M33.5,23.6c0.1,0,0.3-0.1,0.3-0.1c0,0,0,0,0,0c0.1-0.1,0.2-0.4,0.1-0.5c0-0.1-0.1-0.1-0.1-0.2L31.1,20l0,0
			c-0.2-0.2-0.5-0.2-0.7,0c-0.2,0.2-0.2,0.5,0,0.7l0,0l2.8,2.7C33.3,23.6,33.4,23.6,33.5,23.6z"/>
		<path class="st3" d="M40.7,40.9c0,0,0.1,0,0.1,0C40.8,40.9,40.7,40.9,40.7,40.9L40.7,40.9L40.7,40.9z"/>
		<path class="st2" d="M39.1,34.3c0-0.9,0.7-1.6,1.6-1.6c0,0,0,0,0,0s0,0,0,0c0.9,0,1.6,0.7,1.6,1.6v1c0.3-0.1,0.7-0.2,1-0.4v-0.5
			c0-1.4-1.2-2.6-2.6-2.6c-1.4,0-2.6,1.2-2.6,2.6v0.5c0.3,0.2,0.6,0.3,1,0.4C39.1,35.3,39.1,34.3,39.1,34.3z"/>
	</g>
</g>
</svg>
