<?xml version="1.0" encoding="UTF-8"?>
<svg id="Layer_2" data-name="Layer 2" xmlns="http://www.w3.org/2000/svg" viewBox="0 0 906.32 601.74">
  <g id="Layer_2-2" data-name="Layer 2">
    <g>
      <g>
        <path d="m884.09,582.51c-.32,9.66-32.93,16.86-78.81,18.74-7.93.33-16.25.5-24.87.49-6.84,0-13.87-.11-21.04-.35-12.57-.4-24.7-1.14-36.11-2.16-4.1-.36-8.11-.76-12.02-1.19-44.43-4.93-75.42-14.09-75.11-23.58.41-12.65,56.25-21.11,124.72-18.89,68.48,2.23,123.65,14.29,123.24,26.94Z" fill="#81d4fa"/>
        <path d="m737.19,432.54l-2.91-73.6c-.3-7.48,5.54-13.76,13.02-14.01l139.84-4.67c7.27-.25,13.42,5.32,13.91,12.57l5.24,78.27c.53,7.79-5.65,14.39-13.45,14.39h-142.17c-7.24,0-13.19-5.72-13.48-12.95h0Z" fill="#81d4fa"/>
        <path d="m605.05,559.19c.03,3.14-2.6,5.65-5.73,5.49l-68.18-3.39c-2.24-.11-4.01-1.95-4.02-4.19l-.09-12.22h0l-1.15-155.47v-.05c.01-2.31,1.84-4.2,4.16-4.28,12.53-.46,50.37-1.22,65.93-1.53,3.75-.07,6.84,2.91,6.9,6.67l2.09,157.16c.04,4.83.07,8.84.09,11.81h0Z" fill="#81d4fa"/>
      </g>
      <g>
        <path d="m422.34,15.85l-4.29,175.14c-.24,9.99-7.89,18.24-17.83,19.23l-162.54,15.99c-3.48.35-7-.12-10.27-1.36l-121.24-44.91c-3.39-1.29-5.53-4.67-5.24-8.29l6.66-100.35c.78-9.79,8.03-17.84,17.69-19.62L404.08.26c9.65-1.78,18.5,5.77,18.26,15.59h0Z" fill="#ce93d8"/>
        <path d="m542.39,141.03l-2.47,125.5c-.22,6.52-7.49,10.29-12.95,6.72l-85.31-57.55c-7.26-4.74-11.54-12.9-11.33-21.57l4.15-170.88c.23-9.44,12.17-13.39,17.99-5.96l84.47,107.94c3.53,4.51,5.45,10.07,5.45,15.8Z" fill="#ce93d8"/>
      </g>
      <g>
        <path d="m199.9,312.26l-5.49,105.12-.03.49c-.3,5.82-5.1,10.36-10.88,10.39-.13,0-.26-.01-.39-.01l-172.48-5.2h-.05c-2.42-.08-4.62-.94-6.38-2.32-.27-.21-.53-.43-.78-.67-2.11-2.01-3.42-4.85-3.42-7.94v-.48c.02-.16.03-.31.04-.47l12.09-141.45c.57-6.71,7-11.32,13.54-9.7l165.92,41.03c5.1,1.26,8.59,5.96,8.31,11.21h0Z" fill="#a5d6a7"/>
        <path d="m341.27,437.92l-13.38,26.89c-1.21,2.44-3.72,3.96-6.43,3.91l-58.75-1.05c-2.14-.04-3.5-2.31-2.51-4.22l13.48-25.91c1.22-2.33,3.63-3.79,6.26-3.79h58.75c2.14,0,3.54,2.25,2.58,4.17h0Z" fill="#a5d6a7"/>
      </g>
    </g>
  </g>
</svg>