<?xml version="1.0" encoding="utf-8"?>
<!-- Generator: Adobe Illustrator 27.5.0, SVG Export Plug-In . SVG Version: 6.00 Build 0)  -->
<svg version="1.1" id="Layer_2_00000147941097391893104430000011684872250106472851_"
	 xmlns="http://www.w3.org/2000/svg" xmlns:xlink="http://www.w3.org/1999/xlink" x="0px" y="0px" viewBox="0 0 1021.5 1021.5"
	 style="enable-background:new 0 0 1021.5 1021.5;" xml:space="preserve">
<style type="text/css">
	.st0{fill:#81D4FA;}
	.st1{fill:#CE93D8;}
	.st2{fill:#A5D6A7;}
	.st3{fill:none;}
</style>
<g>
	<g>
		<g>
			<path class="st0" d="M-362.4-308.3c-0.3,9.7-32.9,16.9-78.8,18.7c-7.9,0.3-16.2,0.5-24.9,0.5c-6.8,0-13.9-0.1-21-0.3
				c-12.6-0.4-24.7-1.1-36.1-2.2c-4.1-0.4-8.1-0.8-12-1.2c-44.4-4.9-75.4-14.1-75.1-23.6c0.4-12.7,56.2-21.1,124.7-18.9
				C-417.1-333-361.9-321-362.4-308.3z"/>
		</g>
		<path class="st0" d="M-509.3-458.3l-2.9-73.6c-0.3-7.5,5.5-13.8,13-14l139.8-4.7c7.3-0.2,13.4,5.3,13.9,12.6l5.2,78.3
			c0.5,7.8-5.7,14.4-13.5,14.4h-142.2C-503-445.3-509-451.1-509.3-458.3L-509.3-458.3z"/>
		<path class="st0" d="M-641.4-331.6c0,3.1-2.6,5.7-5.7,5.5l-68.2-3.4c-2.2-0.1-4-2-4-4.2l-0.1-12.2l0,0l-1.2-155.5v0
			c0-2.3,1.8-4.2,4.2-4.3c12.5-0.5,50.4-1.2,65.9-1.5c3.8-0.1,6.8,2.9,6.9,6.7l2.1,157.2C-641.4-338.6-641.4-334.6-641.4-331.6
			L-641.4-331.6z"/>
	</g>
	<g>
		<path class="st1" d="M-824.1-875l-4.3,175.1c-0.2,10-7.9,18.2-17.8,19.2l-162.5,16c-3.5,0.3-7-0.1-10.3-1.4l-121.2-44.9
			c-3.4-1.3-5.5-4.7-5.2-8.3l6.7-100.4c0.8-9.8,8-17.8,17.7-19.6l278.8-51.4C-832.7-892.4-823.9-884.8-824.1-875L-824.1-875z"/>
		<path class="st1" d="M-704.1-749.8l-2.5,125.5c-0.2,6.5-7.5,10.3-13,6.7l-85.3-57.5c-7.3-4.7-11.5-12.9-11.3-21.6l4.1-170.9
			c0.2-9.4,12.2-13.4,18-6l84.5,107.9C-706-761.1-704.1-755.5-704.1-749.8z"/>
	</g>
	<g>
		<path class="st2" d="M-1046.5-578.6l-5.5,105.1l0,0.5c-0.3,5.8-5.1,10.4-10.9,10.4c-0.1,0-0.3,0-0.4,0l-172.5-5.2h-0.1
			c-2.4-0.1-4.6-0.9-6.4-2.3c-0.3-0.2-0.5-0.4-0.8-0.7c-2.1-2-3.4-4.8-3.4-7.9v-0.5c0-0.2,0-0.3,0-0.5l12.1-141.5
			c0.6-6.7,7-11.3,13.5-9.7l165.9,41C-1049.8-588.5-1046.3-583.8-1046.5-578.6L-1046.5-578.6z"/>
		<path class="st2" d="M-905.2-452.9l-13.4,26.9c-1.2,2.4-3.7,4-6.4,3.9l-58.8-1c-2.1,0-3.5-2.3-2.5-4.2l13.5-25.9
			c1.2-2.3,3.6-3.8,6.3-3.8h58.8C-905.6-457.1-904.2-454.8-905.2-452.9L-905.2-452.9z"/>
	</g>
</g>
<g>
	<g>
		<path class="st0" d="M785.4,786.9c-7.3-0.2-14.5-0.4-21.6-0.4c-49.8,0-103.7,6.3-104.1,20.2c-0.4,11.9,39,20.5,76,24.6
			c4.1,0.4,8.1,0.8,12,1.2c11.7,1,23.8,1.8,36.2,2.2c7,0.2,14,0.4,21.1,0.4h0.7c8.2,0,16.4-0.2,24.2-0.5
			c38.3-1.6,79.4-7.6,79.8-19.7C910.1,799.9,846.9,788.9,785.4,786.9z"/>
		<path class="st0" d="M931.8,663.4l-5.2-78.3c-0.5-7.6-6.9-13.5-14.4-13.5c-0.2,0-0.3,0-0.5,0l-139.8,4.7
			c-3.9,0.1-7.5,1.8-10.1,4.6c-2.6,2.8-4,6.5-3.9,10.4l2.9,73.6c0.3,7.8,6.7,13.9,14.5,13.9h142.2c4.1,0,7.8-1.6,10.6-4.6
			C930.7,671.3,932.1,667.4,931.8,663.4z"/>
		<path class="st0" d="M628.4,622.6c-0.1-4.2-3.6-7.7-7.8-7.7l-0.1,0c-13.1,0.3-53.1,1.1-65.9,1.5c-2.9,0.1-5.1,2.4-5.1,5.3
			l1.2,167.7c0,2.8,2.2,5,5,5.2l68.2,3.4c0.1,0,0.2,0,0.3,0c1.7,0,3.4-0.7,4.6-1.9c1.2-1.2,1.9-2.9,1.9-4.6c0-3,0-7-0.1-11.8
			L628.4,622.6z"/>
	</g>
	<g>
		<path class="st1" d="M431.5,231.4c-1,0-2,0.1-3,0.3l-278.8,51.4c-10.1,1.9-17.7,10.3-18.5,20.5l-6.7,100.3c-0.3,4,2.1,7.9,5.9,9.3
			l121.2,44.9c2.7,1,5.5,1.5,8.4,1.5c0.8,0,1.6,0,2.3-0.1l162.5-16c10.4-1,18.5-9.7,18.7-20.2l4.3-175.1c0.1-4.5-1.5-8.7-4.7-11.9
			C440.1,233.2,435.8,231.4,431.5,231.4z"/>
		<path class="st1" d="M562.3,357L477.8,249c-2.2-2.7-5.2-4.3-8.6-4.3c-5.4,0-11,4-11.2,10.8l-4.1,170.9
			c-0.2,9.1,4.2,17.5,11.8,22.4l85.3,57.6c1.5,1,3.3,1.5,5.1,1.5c5.1,0,9.2-4,9.4-9.1l2.5-125.5C567.9,367.5,565.9,361.6,562.3,357z
			"/>
	</g>
	<g>
		<path class="st2" d="M216.4,532.4l-165.9-41c-1-0.2-1.9-0.4-2.9-0.4c-6.1,0-11.4,4.8-11.9,10.9L23.6,643.5c0,0.1,0,0.3,0,0.4
			l0,0.1v0.5c0,3.2,1.4,6.4,3.7,8.7c0.3,0.3,0.6,0.5,0.9,0.7c2,1.6,4.4,2.4,7,2.5l172.9,5.2h0c6.3,0,11.5-5,11.9-11.3l0-0.5
			l5.5-105.1C225.7,539,221.9,533.8,216.4,532.4z"/>
		<path class="st2" d="M366.5,667c-0.7-1.2-1.9-1.8-3.3-1.8h-58.8c-3,0-5.7,1.7-7.1,4.3l-13.5,25.9c-0.6,1.2-0.6,2.6,0.1,3.8
			c0.7,1.2,1.9,1.9,3.3,1.9l58.9,1.1c3,0,5.9-1.8,7.2-4.5l13.4-26.9C367.3,669.5,367.2,668.1,366.5,667z"/>
	</g>
	<rect class="st3" width="1021.5" height="1021.5"/>
</g>
</svg>
