<?xml version="1.0" encoding="utf-8"?>
<!-- Generator: Adobe Illustrator 27.4.0, SVG Export Plug-In . SVG Version: 6.00 Build 0)  -->
<svg version="1.1" id="Ebene_2" xmlns="http://www.w3.org/2000/svg" xmlns:xlink="http://www.w3.org/1999/xlink" x="0px" y="0px"
	 viewBox="0 0 92.2 84.4" style="enable-background:new 0 0 92.2 84.4;" xml:space="preserve">
<style type="text/css">
	.st0{fill:#FFFFFF;}
	.st1{fill:#81D4FA;}
</style>
<g id="Ebene_1-2">
	<g>
		<polygon class="st0" points="48.7,13.9 80.9,13.9 79.3,18.6 80.4,18.6 82.2,12.9 49.1,12.9 		"/>
		<path class="st0" d="M71.1,43.9l-9.3,28.5H41.6c-0.2,0.3-0.4,0.7-0.6,1h21.5l9.6-29.5C72.1,43.9,71.1,43.9,71.1,43.9z"/>
		<polygon class="st0" points="18.4,32.7 26.5,13.9 43.2,13.9 43.7,12.9 25.8,12.9 17.3,32.7 		"/>
		<polygon class="st0" points="20.5,72.4 1.5,72.4 16.3,37.7 15.2,37.7 0,73.4 20.8,73.4 		"/>
		<path class="st0" d="M46.2,12.1l-6.4,15.4C38.9,27.2,38,27,37.1,27c-4.4,0-8,3.4-8.2,7.7h-15c0,0.2,0,0.3,0,0.5s0,0.3,0,0.5h15
			c0.1,1.6,0.6,3,1.5,4.2l0.8-2.5c0,0,0-0.1,0-0.1c-0.2-0.7-0.4-1.4-0.4-2.2c0-3.4,2.8-6.2,6.2-6.2s6.2,2.8,6.2,6.2
			s-2.8,6.2-6.2,6.2c-0.2,0-0.4,0-0.6,0l-0.5,2c0.4,0,0.7,0.1,1.1,0.1c4.5,0,8.2-3.7,8.2-8.2c0-3.2-1.9-6-4.6-7.4l6.4-15.4
			C46.8,12.3,46.5,12.2,46.2,12.1z"/>
		<path class="st0" d="M55.4,6.9h24c0-0.2,0-0.3,0-0.5s0-0.3,0-0.5h-24c0,0.2,0,0.3,0,0.5S55.4,6.7,55.4,6.9z"/>
		<path class="st0" d="M37.1,40.5c2.9,0,5.2-2.3,5.2-5.2S40,30,37.1,30s-5.2,2.4-5.2,5.2c0,0.3,0,0.7,0.1,1c0.9-1,2.4-1.4,3.5-1.1
			c1.4,0.4,2.2,1.7,1.8,3.2l-0.5,2.1C36.9,40.4,37,40.5,37.1,40.5L37.1,40.5z"/>
		<path class="st1" d="M10.9,35.2c0-1.9-1.5-3.4-3.4-3.4s-3.4,1.5-3.4,3.4s1.5,3.4,3.4,3.4S10.9,37.1,10.9,35.2z"/>
		<path class="st0" d="M11.9,35.2c0-2.4-2-4.4-4.4-4.4s-4.4,2-4.4,4.4s2,4.4,4.4,4.4S11.9,37.7,11.9,35.2z M7.5,38.6
			c-1.9,0-3.4-1.5-3.4-3.4s1.5-3.4,3.4-3.4s3.4,1.5,3.4,3.4S9.3,38.6,7.5,38.6z"/>
		<path class="st1" d="M82.4,6.4c0,1.9,1.5,3.4,3.4,3.4s3.4-1.5,3.4-3.4S87.7,3,85.8,3S82.4,4.5,82.4,6.4z"/>
		<path class="st0" d="M81.4,6.4c0,2.4,2,4.4,4.4,4.4s4.4-2,4.4-4.4S88.2,2,85.8,2S81.4,4,81.4,6.4z M85.8,3c1.9,0,3.4,1.5,3.4,3.4
			s-1.5,3.4-3.4,3.4s-3.4-1.5-3.4-3.4S83.9,3,85.8,3z"/>
		<path class="st1" d="M54.9,8.9h25c1,2.3,3.2,3.9,5.9,3.9c3.5,0,6.4-2.9,6.4-6.4S89.3,0,85.8,0c-2.6,0-4.9,1.6-5.9,3.9h-25
			C54,1.6,51.7,0,49.1,0c-3.5,0-6.4,2.9-6.4,6.4c0,1.7,0.7,3.3,1.8,4.5l-0.9,2.1l-0.4,1H26.4l-8,18.8h-5.1c-1-2.3-3.2-3.9-5.9-3.9
			c-3.5,0-6.4,2.9-6.4,6.4s2.9,6.4,6.4,6.4c2.6,0,4.9-1.6,5.9-3.9h3L1.5,72.4h18.9l0.3,1l0.2,0.6l-1.1,7c-0.1,0.9,0,1.7,0.5,2.3
			c0.5,0.6,1.2,0.9,2,0.9h9.8c0,0,0.1,0,0.1,0c1.6,0,3.1-1.2,3.6-2.8l1.5-4.9c0-0.1,0.1-0.2,0.2-0.2l2-1.4c0.6-0.4,1.1-1,1.5-1.6
			c0.2-0.3,0.4-0.7,0.6-1h20.1l9.3-28.5h7.4l8-25.3h-7.2l1.5-4.7H48.6l0.4-1l0.1-0.1C51.7,12.7,54,11.1,54.9,8.9L54.9,8.9z M85.8,2
			c2.4,0,4.4,2,4.4,4.4s-2,4.4-4.4,4.4s-4.4-2-4.4-4.4S83.4,2,85.8,2z M79.4,5.9c0,0.2,0,0.3,0,0.5s0,0.3,0,0.5h-24
			c0-0.2,0-0.3,0-0.5s0-0.3,0-0.5H79.4z M44.7,6.4c0-2.4,2-4.4,4.4-4.4s4.4,2,4.4,4.4s-2,4.4-4.4,4.4S44.7,8.8,44.7,6.4z M7.5,39.6
			c-2.4,0-4.4-2-4.4-4.4s2-4.4,4.4-4.4s4.4,2,4.4,4.4S9.9,39.6,7.5,39.6z M39,74.3l-2,1.4c-0.2,0.2-0.4,0.4-0.5,0.7l-1.5,4.8
			c-0.4,1.3-1.6,2.2-2.8,2.2c0,0-0.1,0-0.1,0h-9.8c-0.5,0-1-0.2-1.3-0.6c-0.3-0.4-0.5-1-0.4-1.6l1.1-7.1c0-0.1,0-0.2,0-0.3L19,64.5
			c-0.4-1.2,0.1-2.6,1.2-3.8l6.7-7.6L32,37.8c0.5-1.5,2.1-2.1,3.2-1.8c1,0.3,1.5,1.2,1.2,2.2l-3.3,12.9c0,0.2,0,0.3,0.1,0.4
			c0.1,0.1,0.3,0.2,0.6,0c0.8-0.3,1.7-0.3,2.3,0.2l8.2,6.2c0.9,0.7,1.1,1.8,0.7,3l-4,10.7C40.7,72.6,40,73.6,39,74.3L39,74.3z
			 M37.3,38.4c0.3-1.5-0.4-2.8-1.8-3.2c-1.1-0.3-2.5,0-3.5,1.1c-0.1-0.3-0.1-0.7-0.1-1c0-2.9,2.3-5.2,5.2-5.2s5.2,2.4,5.2,5.2
			s-2.3,5.2-5.2,5.2c-0.1,0-0.2,0-0.3,0L37.3,38.4L37.3,38.4z M83.8,20.6l-6.7,21.3H48.9l8.5-21.3C57.4,20.6,83.8,20.6,83.8,20.6z
			 M40.7,27.8c2.7,1.3,4.6,4.1,4.6,7.4c0,4.5-3.7,8.2-8.2,8.2c-0.4,0-0.7,0-1.1-0.1l0.5-2c0.2,0,0.4,0,0.6,0c3.4,0,6.2-2.8,6.2-6.2
			S40.5,29,37.1,29s-6.2,2.8-6.2,6.2c0,0.8,0.1,1.5,0.4,2.2c0,0,0,0.1,0,0.1L30.4,40c-0.9-1.2-1.4-2.7-1.5-4.2h-15
			c0-0.2,0-0.3,0-0.5s0-0.3,0-0.5h15c0.3-4.3,3.8-7.7,8.2-7.7c0.9,0,1.8,0.2,2.7,0.5l6.4-15.4c0.3,0.1,0.6,0.3,0.9,0.4
			C47.1,12.4,40.7,27.8,40.7,27.8z"/>
		<circle class="st1" cx="49.1" cy="6.4" r="3.4"/>
		<path class="st0" d="M49.1,10.8c2.4,0,4.4-2,4.4-4.4S51.5,2,49.1,2s-4.4,2-4.4,4.4S46.6,10.8,49.1,10.8z M45.7,6.4
			c0-1.9,1.5-3.4,3.4-3.4s3.4,1.5,3.4,3.4s-1.5,3.4-3.4,3.4S45.7,8.2,45.7,6.4z"/>
		<path class="st1" d="M58.1,21.6l-7.7,19.3h25.9l6.1-19.3C82.4,21.6,58.1,21.6,58.1,21.6z M58.6,25.9h20.2l-2.4,7.7H55.5
			C55.5,33.7,58.6,25.9,58.6,25.9z"/>
		<path class="st0" d="M48.9,41.9H77l6.7-21.3H57.4L48.9,41.9z M76.3,40.9H50.4l7.7-19.3h24.3L76.3,40.9z"/>
		<polygon class="st1" points="59.3,26.9 57,32.7 75.7,32.7 77.5,26.9 		"/>
		<path class="st0" d="M76.4,33.7l2.4-7.7H58.6l-3.1,7.7H76.4z M75.7,32.7H57l2.3-5.7h18.2C77.5,26.9,75.7,32.7,75.7,32.7z"/>
		<path class="st1" d="M40.3,71.3l4-10.7c0.3-0.8,0.1-1.6-0.4-2l-8.2-6.2c-0.3-0.3-0.9-0.3-1.5-0.1c-0.5,0.2-1.1,0.2-1.5-0.2
			c-0.4-0.3-0.5-0.8-0.3-1.3L35.6,38c0.2-0.8-0.3-1.1-0.6-1.2c-0.8-0.2-1.8,0.2-2.1,1.2l-5.2,15.5l-0.2,0.3l-6.7,7.5
			c-0.9,0.9-1.2,2-1,2.9l0,0l2.9,9.3c0.1,0.2,0.1,0.4,0,0.7l-1.1,7.1c-0.1,0.4,0,0.7,0.2,0.9c0.2,0.2,0.4,0.3,0.7,0.3h9.8
			c0.8,0.1,1.7-0.7,2-1.6l1.5-4.8c0.1-0.4,0.4-0.8,0.8-1.1l2-1.4C39.3,73,40,72.2,40.3,71.3L40.3,71.3z"/>
		<path class="st0" d="M45.1,60.9c0.4-1.2,0.2-2.3-0.7-3l-8.2-6.2c-0.6-0.5-1.5-0.5-2.3-0.2c-0.3,0.1-0.5,0.1-0.6,0
			c-0.1-0.1-0.1-0.2-0.1-0.4l3.3-12.9c0.2-1.1-0.2-2-1.2-2.2c-1.1-0.3-2.7,0.3-3.2,1.8l-5.2,15.5l-6.7,7.6c-1.1,1.1-1.5,2.6-1.2,3.8
			l2.9,9.3c0,0.1,0,0.2,0,0.3l-1.1,7.1c-0.1,0.6,0,1.2,0.4,1.6c0.3,0.4,0.8,0.6,1.3,0.6h9.8c0,0,0.1,0,0.1,0c1.2,0,2.4-1,2.8-2.2
			l1.5-4.8c0.1-0.2,0.2-0.5,0.5-0.7l2-1.4c1-0.7,1.7-1.7,2.1-2.7L45.1,60.9L45.1,60.9z M38.5,73.6l-2,1.4c-0.4,0.3-0.7,0.7-0.8,1.1
			L34.2,81c-0.3,0.9-1.2,1.7-2,1.6h-9.8c-0.3,0-0.5-0.1-0.7-0.3c-0.2-0.2-0.2-0.6-0.2-0.9l1.1-7.1c0-0.2,0-0.5,0-0.7l-2.9-9.3l0,0
			c-0.3-0.9,0.1-2,1-2.9l6.7-7.5l0.2-0.3L32.8,38c0.4-1,1.4-1.5,2.1-1.2c0.3,0.1,0.8,0.4,0.6,1.2l-3.3,12.9c-0.1,0.5,0,1,0.3,1.3
			c0.4,0.3,1,0.4,1.5,0.2c0.5-0.2,1.1-0.2,1.5,0.1l8.2,6.2c0.5,0.4,0.7,1.2,0.4,2l-4,10.7C39.9,72.2,39.3,73,38.5,73.6L38.5,73.6z"
			/>
	</g>
</g>
</svg>
