<?xml version="1.0" encoding="UTF-8"?>
<svg id="Ebene_2" data-name="Ebene 2" xmlns="http://www.w3.org/2000/svg" viewBox="0 0 106.66 77.05">
  <g id="Ebene_1-2" data-name="Ebene 1">
    <g>
      <path d="m73.6,39.19c-.01.24-.08.83-.7,1.18l-28.21,16.01c-.63.35-1.18.11-1.38-.01-.21-.13-.69-.49-.68-1.2.11-8.77.26-24.73.17-33.01,0-.73.49-1.09.7-1.21.21-.12.77-.36,1.4.02l28.03,17.02c.61.37.67.97.67,1.2Z"/>
      <path d="m13.93,0C6.23,0,0,6.23,0,13.93v49.2c0,7.69,6.23,13.92,13.93,13.92h78.8c7.69,0,13.93-6.23,13.93-13.92V0H13.93Zm60.45,42.98l-28.21,16.01c-.68.38-1.42.58-2.16.58s-1.53-.21-2.23-.62c-1.36-.81-2.17-2.23-2.15-3.82.11-8.76.26-24.68.17-32.94v-.03c0-1.6.82-3.02,2.21-3.81,1.4-.81,3.06-.78,4.44.06l28.04,17.02c1.34.81,2.13,2.24,2.11,3.81-.03,1.57-.86,2.97-2.22,3.74Z"/>
    </g>
  </g>
</svg>