<?xml version="1.0" encoding="UTF-8"?>
<svg id="Ebene_2" data-name="Ebene 2" xmlns="http://www.w3.org/2000/svg" viewBox="0 0 92.01 62.06">
  <g id="Ebene_1-2" data-name="Ebene 1">
    <g>
      <path d="m82.14,62.06H9.87c-5.44,0-9.87-4.43-9.87-9.87V9.87C0,4.43,4.43,0,9.87,0h72.27c5.44,0,9.87,4.43,9.87,9.87v42.32c0,5.44-4.43,9.87-9.87,9.87ZM9.87,2.96c-3.81,0-6.91,3.1-6.91,6.91v42.32c0,3.81,3.1,6.91,6.91,6.91h72.27c3.81,0,6.91-3.1,6.91-6.91V9.87c0-3.81-3.1-6.91-6.91-6.91H9.87Z"/>
      <path d="m56.48,28.51c1.99,1.15,1.99,4.03,0,5.18l-8.98,5.18-8.98,5.18c-1.99,1.15-4.48-.29-4.48-2.59v-20.74c0-2.3,2.49-3.74,4.48-2.59l8.98,5.18,8.98,5.18Z"/>
    </g>
  </g>
</svg>